<?xml version="1.0" encoding="utf-8"?>
<!-- Generator: Adobe Illustrator 18.1.1, SVG Export Plug-In . SVG Version: 6.00 Build 0)  -->
<svg version="1.1" id="Layer_1" xmlns="http://www.w3.org/2000/svg" xmlns:xlink="http://www.w3.org/1999/xlink" x="0px" y="0px"
	 viewBox="0 0 60.8 67.9" enable-background="new 0 0 60.8 67.9" xml:space="preserve">
<path fill="#FFFFFF" d="M8.5,50.7c3.2-4,6.8-11,6.8-22c0-14.8,9.8-15.3,10.9-15.3h8.3c1.1,0,10.9,0.4,10.9,15.3
	c0,10.9,3.6,17.9,6.8,22H8.5z M30.4,61.8c-3.1,0-5.5-2.4-5.5-5.4c0-0.3,0-0.5,0.1-0.8h11c0,0.3,0.1,0.5,0.1,0.8
	C35.9,59.3,33.4,61.8,30.4,61.8z M30.4,3.9c2.6,0,4.7,2.1,4.7,4.7c-3.6-0.5-6.9-0.3-9.4,0C25.7,6,27.8,3.9,30.4,3.9z M59.6,51.1
	c-0.1-0.1-9.2-6-9.2-22.4c0-10.1-4.1-15-7.5-17.4c-2-1.4-4-2-5.6-2.4c0-0.1,0-0.3,0-0.4c0-3.9-1.7-8.5-7-8.5c-5.2,0-7,4.6-7,8.5
	c0,0.1,0,0.3,0,0.4c-0.7,0.1-1.2,0.3-1.5,0.4c-4.7,1.5-11.5,6-11.5,19.3c0,16.2-8.9,22.1-9.2,22.4c-0.9,0.6-1.3,1.7-1,2.7
	c0.3,1,1.3,1.7,2.4,1.7h16.2c0,0.3,0,0.5,0,0.8c0,6.3,5.2,11.5,11.7,11.5c6.5,0,11.7-5.2,11.7-11.5c0-0.3,0-0.5,0-0.8h16.2
	c1.1,0,2.1-0.7,2.4-1.7C61,52.7,60.6,51.6,59.6,51.1z"/>
<path fill="#FFFFFF" d="M18.5,31.4c-0.6,12.6,5-14.5,5-14.5S19.2,18.8,18.5,31.4z"/>
</svg>
