<?xml version="1.0" encoding="utf-8"?>
<!-- Generator: Adobe Illustrator 18.1.1, SVG Export Plug-In . SVG Version: 6.00 Build 0)  -->
<svg version="1.1" id="Layer_1" xmlns="http://www.w3.org/2000/svg" xmlns:xlink="http://www.w3.org/1999/xlink" x="0px" y="0px"
	 viewBox="0 0 76.2 67.7" enable-background="new 0 0 76.2 67.7" xml:space="preserve">
<path d="M3.6,0.1C1.6,0.1,0,1.7,0,3.7v8.7v6.2v45.6c0,2,1.6,3.6,3.6,3.6l69.1,0c2,0,3.6-1.6,3.6-3.6v0v-2.6V18.5v-6.2V3.7
	c0-2-1.6-3.6-3.6-3.6H3.6z M20.6,5.7L20.6,5.7c2,0,3.6,1.6,3.6,3.6v0.1c0,2-1.6,3.6-3.6,3.6h-0.1c-2,0-3.6-1.6-3.6-3.6V9.3
	C17,7.3,18.6,5.7,20.6,5.7z M9.8,5.7L9.8,5.7c2,0,3.6,1.6,3.6,3.6v0.1c0,2-1.6,3.6-3.6,3.6H9.8c-2,0-3.6-1.6-3.6-3.6V9.3
	C6.2,7.3,7.8,5.7,9.8,5.7z M68.1,61.6l-60,0c-1.1,0-1.9-0.9-1.9-1.9V20.6c0-1.1,0.9-1.9,1.9-1.9h60c1.1,0,1.9,0.9,1.9,1.9v39.1
	C70,60.7,69.2,61.6,68.1,61.6z M27.8,9.4L27.8,9.4c0-2,1.6-3.6,3.6-3.6h0.1c2,0,3.6,1.6,3.6,3.6v0.1c0,2-1.6,3.6-3.6,3.6h-0.1
	C29.4,13,27.8,11.4,27.8,9.4z"/>
<path d="M28.5,33.3v-0.6c0-1.5,1.3-2.8,2.8-2.8h25.8c1.5,0,2.8,1.3,2.8,2.8v0.6c0,1.5-1.3,2.8-2.8,2.8H31.3
	C29.7,36.1,28.5,34.8,28.5,33.3z"/>
<path d="M16.2,33.3v-0.6c0-1.5,1.3-2.8,2.8-2.8h2.9c1.5,0,2.8,1.3,2.8,2.8v0.6c0,1.5-1.3,2.8-2.8,2.8H19
	C17.5,36.1,16.2,34.8,16.2,33.3z"/>
<path d="M28.5,46.4v-0.6c0-1.5,1.3-2.8,2.8-2.8h25.8c1.5,0,2.8,1.3,2.8,2.8v0.6c0,1.5-1.3,2.8-2.8,2.8H31.3
	C29.7,49.2,28.5,47.9,28.5,46.4z"/>
<path d="M16.2,46.4v-0.6c0-1.5,1.3-2.8,2.8-2.8h2.9c1.5,0,2.8,1.3,2.8,2.8v0.6c0,1.5-1.3,2.8-2.8,2.8H19
	C17.5,49.2,16.2,47.9,16.2,46.4z"/>
</svg>
