<?xml version="1.0" encoding="utf-8"?>
<!-- Generator: Adobe Illustrator 18.1.1, SVG Export Plug-In . SVG Version: 6.00 Build 0)  -->
<svg version="1.1" id="Layer_1" xmlns="http://www.w3.org/2000/svg" xmlns:xlink="http://www.w3.org/1999/xlink" x="0px" y="0px"
	 viewBox="-36.4 -4.6 166.3 47.3" enable-background="new -36.4 -4.6 166.3 47.3" xml:space="preserve">
<g>
	<path fill="#005A8B" d="M124.7,3.8c-1.9,0-3,0.9-3.4,2.6l-5,16.9l-3.2,10.2c-0.2,0.8-0.8,1.9-1.2,2.2c-0.9,0.7-2.1,0.8-3.6,0.8h-2
		H-23.4l131.3,6.1c0.2,0,0.5,0,0.8,0c0.3,0,0.5,0,0.8,0h1.5v0c2.1-0.1,3.8-0.5,4.8-1.2c1.3-1,2.4-2.7,3.2-5l11-32.5H124.7z"/>
	<path fill="#005A8B" d="M-35.6,22.7h7.2c0.3,1.4,0.9,2.5,2,3.2c1.2,0.7,2.6,1.1,4.4,1.1c1.3,0,2.3-0.2,3.2-0.7c0.8-0.5,1.1-1.2,1-2
		c-0.2-1.3-1.8-2.2-4.9-2.9c-1.3-0.2-2.3-0.4-3-0.6c-3.9-0.9-6.5-2-8-3.3c-1.6-1.3-2.5-3-2.8-5.1c-0.4-2.7,0.4-4.9,2.2-6.7
		c1.9-1.6,4.6-2.4,8-2.4c3.7,0,6.7,0.8,9.1,2.4c2.3,1.8,3.7,4.1,4.2,6.9h-4.6c-1.3,0-2.3-0.7-3.3-1.8c-0.3-0.3-0.6-0.6-1-0.9
		c-0.9-0.6-2.1-1-3.6-1c-1.4,0-2.5,0.2-3.1,0.6c-0.6,0.4-0.8,1.1-0.7,1.9c0.2,1.1,2.1,2.1,5.9,2.9c0.4,0.1,1.8,0.4,2.1,0.4
		c3.9,0.9,6.4,2,8,3.2c1.5,1.3,2.4,3,2.7,5.1c0.4,3.1-0.4,5.5-2.4,7.2c-1.9,1.6-5,2.3-9.2,2.3c-4,0-7.2-0.8-9.4-2.4
		c-2.3-1.6-3.6-4-4-7.1L-35.6,22.7z"/>
	<path fill="#005A8B" d="M11.7,23.3h5.3c-0.4,3-1.6,5.2-3.5,6.8c-2,1.6-4.6,1.8-8,1.8c-4,0-7.4-0.7-10-3.3
		c-2.6-2.6-4.2-6.2-4.9-10.9c-0.6-4.5,0-8.1,1.9-10.6c1.9-2.6,4.9-3.9,8.9-3.9c4.3,0,7.7,1.3,10.4,3.8c1.5,1.6,2.7,3.4,3.5,5.4H7.9
		c-0.5-0.7-0.9-1.2-1.3-1.6c-1.1-1-2.4-1.5-4.1-1.5c-1.6,0-2.8,0.5-3.6,1.5c-1.1,1.4-1.4,3.8-1,7c0.4,3.3,1.4,5.6,2.8,6.9
		c1.1,1.1,2.5,1.7,4.4,1.7c1.2,0,2.2-0.2,3-0.7c0.2-0.1,0.4-0.2,0.5-0.4c0.2-0.2,0.3-0.4,0.5-0.6c0.1-0.2,0.4-0.5,0.7-0.9
		C10.3,23.5,10.9,23.3,11.7,23.3z"/>
	<path fill="#005A8B" d="M38.5,30.9c-1.7,0.8-5.9,1.2-8,1.2c-2.6,0-5.8-0.2-7.9-1.5c-2.1-1.4-3.4-3.7-3.8-6.9
		c-0.4-3,0.2-5.1,1.7-6.4c1.6-1.3,3.7-2.1,6.3-2.6c0.4,0,0.8-0.1,1.3-0.2c0.5-0.1,1-0.2,1.7-0.3c3.1-0.4,4.5-1.3,4.3-2.8
		c-0.1-1.1-0.8-1.8-1.9-2.1C31,9.2,30,9,29,9c-1,0-1.9,0.1-2.6,0.4c-0.7,0.3-1.2,0.8-1.5,1.6h-7.1c0-2.2,0.7-4,2.2-5.4
		c1.7-1.6,4.3-2.4,7.9-2.4c4,0,7,0.7,9.2,2c2.2,1.4,3.5,3.4,3.9,6l1.3,9.7c0.4,2.8,0.2,5-0.6,6.6C40.9,29,39.8,30.2,38.5,30.9z
		 M35,17.8c-0.9,0.5-2.2,1-4,1.4l-2.4,0.5c-1.2,0.4-2.1,0.8-2.6,1.4c-0.4,0.8-0.5,1.6-0.4,2.3c0.1,1.1,0.6,1.9,1.3,2.6
		c0.7,0.6,1.7,0.9,2.9,0.9c2,0,3.5-0.6,4.4-1.7c1-1.1,1.3-2.7,1.1-4.7L35,17.8z"/>
	<path fill="#005A8B" d="M71.1,32.1h-3.7c-1.1,0-2-0.3-2.7-1c-0.8-0.7-1.2-1.5-1.4-2.6l-2-14.5c-0.2-1.7-0.9-2.9-2-3.7
		c-1.1-0.8-2.3-1.2-3.6-1.2s-2.4,0.4-3.2,1.2c-0.9,0.8-1.2,2-1,3.7l2.4,18.1h-7.4l-2.2-16.6c-0.7-4.8,0.2-8,2.5-9.7
		c2.3-1.6,5-2.5,8-2.7c3.1,0,6.1,0.8,8.9,2.4c2.8,1.6,4.6,4.9,5.3,9.9L71.1,32.1z"/>
	<path fill="#005A8B" d="M69.9-4.5h3.8c1,0,1.9,0.4,2.7,1.1c0.8,0.7,1.3,1.6,1.4,2.6l0.3,2.2h-7.4L69.9-4.5z M71,3.8h3.8
		c1,0,1.9,0.4,2.7,1.1c0.8,0.7,1.3,1.6,1.4,2.6l3.3,24.7h-7.4L71,3.8z"/>
	<path fill="#005A8B" d="M86.1,32.1L82.1,2.9c-0.3-2.6,0.1-4.5,1.2-5.7c1.1-1.2,3.1-1.8,6-1.8c0.7,0,1.3,0,1.7,0.1
		c0.8,0,1.4,0,1.8,0.1l0.8,5.8h-1.9c-1,0-1.7,0.1-2.1,0.4c-0.3,0.3-0.4,0.9-0.3,1.7l0.3,1.9h4.6l0.2,1.6c0.1,1.1-0.1,1.9-0.7,2.6
		c-0.6,0.7-1.4,1-2.3,1h-1.1l2.9,21.4H86.1z"/>
	<path fill="#005A8B" d="M96.1-4.5h3.8c1,0,1.9,0.3,2.7,1c0.8,0.7,1.3,1.5,1.4,2.5l4.5,33H101L96.1-4.5z"/>
	<polygon fill="#005A8B" points="116.5,17.2 114.8,3.8 107.8,3.8 111.8,32.1 	"/>
</g>
</svg>
