<?xml version="1.0" encoding="utf-8"?>
<!-- Generator: Adobe Illustrator 18.1.1, SVG Export Plug-In . SVG Version: 6.00 Build 0)  -->
<svg version="1.1" id="Layer_1" xmlns="http://www.w3.org/2000/svg" xmlns:xlink="http://www.w3.org/1999/xlink" x="0px" y="0px"
	 viewBox="-13.2 -34 153 100" enable-background="new -13.2 -34 153 100" xml:space="preserve">
<g>
	<path fill="#005A8B" d="M3.2,47.1L3.2,47.1c0-0.3,17-7.7,24.1-13.3c1.2-1.2,2.8-2.5,4.6-4c1.5-1.2,2.2-2.2,4-3.4l0.3,0.3
		c-1.5,1.2-2.5,2.2-4,3.4c-1.9,1.5-3.4,3.1-4.6,4C20.5,39.7,3.5,47.1,3.2,47.1z"/>
</g>
<g>
	<path fill="#005A8B" d="M52.4,59.5L52.4,59.5c7.4-1.9,34.6-12.4,45.8-20.4c8.7-6.2,22.3-9.3,22.3-9.3v0.3c-0.3,0-13.6,3.1-22.3,9.3
		C87,47.4,59.8,58,52.4,59.5z"/>
</g>
<g>
	<path fill="#005A8B" d="M27,52.7L27,52.7c0-0.3,1.9-1.5,6.5-4c4-2.2,11.4-5.6,13-6.8l0.3,0.3c-1.9,1.2-9.3,4.6-13,6.8
		C30.4,51.2,27.3,52.7,27,52.7z"/>
</g>
<g>
	<path fill="#005A8B" d="M82.1,57c-10.2-1.5-21-4.3-30.6-6.5C41.2,47.8,6.3,34.1,6,34.1v-0.3c0.3,0.3,35.3,13.6,45.5,16.4
		C60.7,52.4,71.8,55.2,82.1,57L82.1,57L82.1,57z"/>
</g>
<g>
	<path fill="#005A8B" d="M35.7,30.4C30.1,23.3,23,22.1,23,22.1v-0.3c0,0,6.8,0.9,13,8L35.7,30.4z"/>
</g>
<g>
	<path fill="#005A8B" d="M107.4,49c-1.2,0-0.3,0.3-1.5,0c-13.3-1.5-29.7-6.5-30-6.5v-0.3C76.2,42.2,88.9,46.5,107.4,49L107.4,49z"/>
</g>
<g>
	
		<rect x="-13.8" y="52.1" transform="matrix(-0.9683 -0.2499 0.2499 -0.9683 38.4436 110.3022)" fill="#005A8B" width="80.1" height="1.2"/>
</g>
<g>
	
		<rect x="101.6" y="10.8" transform="matrix(-0.3174 -0.9483 0.9483 -0.3174 87.0017 163.0727)" fill="#005A8B" width="1.2" height="78.9"/>
</g>
<path fill="#005A8B" d="M108,38.2c-2.5-1.2-4.3-1.9-8-4.6h-0.6C103.4,36.3,105.6,37.6,108,38.2c3.7,2.5,14.2,5.3,14.2,5.3l0.3-0.3
	C122.6,43.1,112.4,40,108,38.2z"/>
<path fill="#005A8B" d="M35.7,11.3c-5.6,3.4-11.4,8.3-16.4,12.4c-1.9,1.9-3.7,3.1-5.3,4.3c-7.4,5.9-26.9,14.5-27.2,14.5l0.3,0.9
	c0.9-0.3,19.8-8.3,27.5-14.5c1.5-1.2,3.1-2.8,5.3-4.3c4.6-4,9.9-8.7,15.8-12.1C35.7,12.5,35.7,11.3,35.7,11.3z"/>
<path fill="#005A8B" d="M111.1,23.6l-0.3,0.9c7.1,4.6,16.4,9.3,29.1,13.3l0.3-0.9C127.5,32.9,118.2,28.3,111.1,23.6z"/>
<polygon fill="#005A8B" points="65.4,66 -12.9,46.2 -12.9,42.5 65.4,62.6 "/>
<polygon fill="#005A8B" points="139.9,40.3 65.4,66 65.4,62.6 139.9,37.2 "/>
<g>
	<g>
		<path fill="#005A8B" d="M61.7,47.5l-25.4-8.2l-0.5-0.6V2.4l0.9-0.6l25.4,8.2l0.5,0.6v36.3L61.7,47.5z M37.2,38.2l24.1,7.8V11.1
			L37.2,3.3V38.2z"/>
	</g>
	<g>
		<path fill="#005A8B" d="M62,11.2l0-0.3l-0.2,0.2L36.3,3l-0.4-1l12.7-20.8l1.2,0.1l12.7,29L62,11V11.2z M37.5,2l23.3,7.5L49.1-17
			L37.5,2z"/>
	</g>
	<g>
		<g>
			<polygon fill="#005A8B" points="69.7,-0.7 71.2,2.6 74.2,1.6 72.8,-1.8 			"/>
		</g>
		<g>
			<polygon fill="#005A8B" points="90.5,-25.1 93.8,-26.3 92.4,-29.6 89,-28.4 			"/>
		</g>
		<g>
			<polygon fill="#005A8B" points="70,-9.2 71.4,-5.9 74.5,-7 73.1,-10.3 			"/>
		</g>
		<g>
			<polygon fill="#005A8B" points="95.3,-14.2 98.6,-15.4 97.2,-18.6 93.8,-17.5 			"/>
		</g>
		<g>
			<polygon fill="#005A8B" points="92.1,-21.5 95.4,-22.7 94,-25.9 90.7,-24.7 			"/>
		</g>
		<g>
			<polygon fill="#005A8B" points="93.6,-17.9 97,-19.1 95.6,-22.3 92.2,-21.1 			"/>
		</g>
		<g>
			<polygon fill="#005A8B" points="73.2,-1.9 74.6,1.4 77.7,0.3 76.3,-3 			"/>
		</g>
		<g>
			<polygon fill="#005A8B" points="76.7,-3.1 78.2,0.2 81.2,-0.9 79.8,-4.2 			"/>
		</g>
		<g>
			<polygon fill="#005A8B" points="80.2,-4.4 81.7,-1 84.8,-2.1 83.3,-5.4 			"/>
		</g>
		<g>
			<polygon fill="#005A8B" points="83.7,-5.6 85.2,-2.3 88.3,-3.3 86.8,-6.7 			"/>
		</g>
		<g>
			<polygon fill="#005A8B" points="96.8,-10.6 100.2,-11.8 98.8,-15 95.4,-13.8 			"/>
		</g>
		<g>
			<polygon fill="#005A8B" points="98.5,-6.9 101.8,-8.1 100.4,-11.4 97,-10.2 			"/>
		</g>
		<g>
			<polygon fill="#005A8B" points="81.9,-26.4 80.4,-29.8 77.6,-28.8 79.1,-25.4 			"/>
		</g>
		<g>
			<polygon fill="#005A8B" points="62.6,1.8 64.1,5.1 67.1,4 65.6,0.7 			"/>
		</g>
		<g>
			<polygon fill="#005A8B" points="60.8,-10.2 57.8,-9.1 59.3,-5.9 62.3,-7 			"/>
		</g>
		<g>
			<polygon fill="#005A8B" points="62.4,-6.5 59.4,-5.5 60.9,-2.2 63.9,-3.3 			"/>
		</g>
		<g>
			<polygon fill="#005A8B" points="78.6,-25.2 77.1,-28.6 74.1,-27.6 75.6,-24.2 			"/>
		</g>
		<g>
			<polygon fill="#005A8B" points="64.5,-11.5 61.2,-10.3 62.7,-7.1 65.9,-8.2 			"/>
		</g>
		<g>
			<polygon fill="#005A8B" points="85,-27.5 83.6,-30.9 80.8,-29.9 82.3,-26.5 			"/>
		</g>
		<g>
			<polygon fill="#005A8B" points="64,-2.9 61.1,-1.8 62.5,1.4 65.4,0.3 			"/>
		</g>
		<g>
			<polygon fill="#005A8B" points="92.2,-30 90.7,-33.4 87.4,-32.2 88.9,-28.8 			"/>
		</g>
		<g>
			<polygon fill="#005A8B" points="62.9,-15 59.7,-13.9 61.1,-10.7 64.3,-11.9 			"/>
		</g>
		<g>
			<polygon fill="#005A8B" points="88.4,-28.7 86.9,-32.1 84,-31 85.5,-27.6 			"/>
		</g>
		<g>
			<polygon fill="#005A8B" points="83.4,-14.3 82,-17.6 78.9,-16.5 80.4,-13.3 			"/>
		</g>
		<g>
			<polygon fill="#005A8B" points="88.2,-20.2 86.9,-23.4 84.1,-22.4 85.5,-19.2 			"/>
		</g>
		<g>
			<polygon fill="#005A8B" points="88.7,-11.9 91.5,-12.9 90,-16.2 87.3,-15.2 			"/>
		</g>
		<g>
			<polygon fill="#005A8B" points="72.9,-10.7 71.5,-13.9 68.4,-12.8 69.8,-9.6 			"/>
		</g>
		<g>
			<polygon fill="#005A8B" points="87.1,-15.6 89.8,-16.6 88.4,-19.8 85.7,-18.8 			"/>
		</g>
		<g>
			<polygon fill="#005A8B" points="80,-13.1 78.5,-16.3 75.4,-15.3 76.8,-12 			"/>
		</g>
		<g>
			<polygon fill="#005A8B" points="84,-14.1 85.5,-10.8 88.3,-11.8 86.9,-15.1 			"/>
		</g>
		<g>
			<polygon fill="#005A8B" points="76.4,-11.9 75,-15.1 71.9,-14 73.3,-10.8 			"/>
		</g>
		<g>
			<polygon fill="#005A8B" points="66.5,-8 68,-4.7 71,-5.8 69.6,-9 			"/>
		</g>
		<g>
			<polygon fill="#005A8B" points="73.5,-10.4 74.9,-7.1 78,-8.2 76.6,-11.5 			"/>
		</g>
		<g>
			<polygon fill="#005A8B" points="80.5,-12.9 82,-9.6 85.1,-10.7 83.6,-13.9 			"/>
		</g>
		<g>
			<polygon fill="#005A8B" points="77,-11.6 78.4,-8.4 81.6,-9.4 80.1,-12.7 			"/>
		</g>
		<g>
			<polygon fill="#005A8B" points="68,-12.7 64.9,-11.6 66.3,-8.4 69.4,-9.4 			"/>
		</g>
		<g>
			<polygon fill="#005A8B" points="75.2,-24 73.7,-27.4 70.5,-26.3 72,-22.9 			"/>
		</g>
		<g>
			<polygon fill="#005A8B" points="71.3,-14.3 69.9,-17.5 66.8,-16.4 68.2,-13.2 			"/>
		</g>
		<g>
			<polygon fill="#005A8B" points="74.8,-15.5 73.4,-18.7 70.3,-17.6 71.7,-14.4 			"/>
		</g>
		<g>
			<polygon fill="#005A8B" points="67.8,-13.1 66.4,-16.2 63.3,-15.2 64.7,-12 			"/>
		</g>
		<g>
			<polygon fill="#005A8B" points="90.5,-7.9 91.9,-4.6 94.7,-5.6 93.2,-8.9 			"/>
		</g>
		<g>
			<polygon fill="#005A8B" points="93.6,-9 95.1,-5.7 98.1,-6.7 96.6,-10.1 			"/>
		</g>
		<g>
			<polygon fill="#005A8B" points="81.8,-18 80.4,-21.1 77.4,-20.1 78.8,-16.9 			"/>
		</g>
		<g>
			<polygon fill="#005A8B" points="86.7,-15.5 85.3,-18.7 82.4,-17.7 83.9,-14.5 			"/>
		</g>
		<g>
			<polygon fill="#005A8B" points="78.4,-16.8 77,-19.9 73.8,-18.8 75.2,-15.7 			"/>
		</g>
		<g>
			<polygon fill="#005A8B" points="85.1,-19.1 83.7,-22.3 80.9,-21.3 82.3,-18.1 			"/>
		</g>
		<g>
			<polygon fill="#005A8B" points="87.2,-6.8 88.7,-3.5 91.5,-4.5 90,-7.8 			"/>
		</g>
		<g>
			<polygon fill="#005A8B" points="100.2,-2.9 103.6,-4 102,-7.7 98.7,-6.5 			"/>
		</g>
		<g>
			<polygon fill="#005A8B" points="66,0.6 67.5,3.9 70.8,2.8 69.3,-0.6 			"/>
		</g>
		<g>
			<polygon fill="#005A8B" points="90.3,-16.7 93.2,-17.7 91.8,-21 88.8,-19.9 			"/>
		</g>
		<g>
			<polygon fill="#005A8B" points="74.8,1.8 76.3,5.2 79.4,4.2 77.9,0.7 			"/>
		</g>
		<g>
			<polygon fill="#005A8B" points="71.3,3 72.8,6.4 75.9,5.3 74.4,2 			"/>
		</g>
		<g>
			<polygon fill="#005A8B" points="68.1,-4.3 69.5,-1.1 72.6,-2.2 71.2,-5.4 			"/>
		</g>
		<g>
			<polygon fill="#005A8B" points="78.3,0.6 79.8,4 82.9,3 81.4,-0.5 			"/>
		</g>
		<g>
			<polygon fill="#005A8B" points="91.9,-13 94.8,-14.1 93.4,-17.3 90.4,-16.3 			"/>
		</g>
		<g>
			<polygon fill="#005A8B" points="88.7,-20.3 91.6,-21.4 90.2,-24.5 87.3,-23.5 			"/>
		</g>
		<g>
			<polygon fill="#005A8B" points="60.5,6.8 61.9,10 65.3,8.9 63.9,5.6 			"/>
		</g>
		<g>
			<polygon fill="#005A8B" points="90.1,-25 88.6,-28.3 85.6,-27.2 87.1,-23.9 			"/>
		</g>
		<g>
			<polygon fill="#005A8B" points="86.7,-23.8 85.2,-27.1 82.5,-26.1 83.9,-22.8 			"/>
		</g>
		<g>
			<polygon fill="#005A8B" points="71.6,-5.5 73,-2.3 76.1,-3.4 74.7,-6.6 			"/>
		</g>
		<g>
			<polygon fill="#005A8B" points="64.3,5.5 65.7,8.8 68.7,7.8 67.3,4.4 			"/>
		</g>
		<g>
			<polygon fill="#005A8B" points="67.7,4.3 69.1,7.6 72.4,6.5 70.9,3.2 			"/>
		</g>
		<g>
			<polygon fill="#005A8B" points="95.3,-5.3 96.8,-1.7 99.8,-2.7 98.2,-6.3 			"/>
		</g>
		<g>
			<polygon fill="#005A8B" points="82.2,-9.2 83.6,-6 86.6,-7.1 85.2,-10.3 			"/>
		</g>
		<g>
			<polygon fill="#005A8B" points="92.1,-4.2 93.7,-0.6 96.4,-1.6 94.8,-5.2 			"/>
		</g>
		<g>
			<polygon fill="#005A8B" points="88.9,-11.5 90.3,-8.3 93,-9.3 91.6,-12.5 			"/>
		</g>
		<g>
			<polygon fill="#005A8B" points="85.7,-10.4 87.1,-7.2 89.9,-8.2 88.5,-11.4 			"/>
		</g>
		<g>
			<polygon fill="#005A8B" points="93.4,-9.4 96.4,-10.5 95,-13.7 92,-12.6 			"/>
		</g>
		<g>
			<polygon fill="#005A8B" points="81.8,-0.6 83.4,2.8 86.5,1.8 85,-1.7 			"/>
		</g>
		<g>
			<polygon fill="#005A8B" points="85.4,-1.9 86.9,1.6 90,0.6 88.5,-2.9 			"/>
		</g>
		<g>
			<polygon fill="#005A8B" points="75.1,-6.7 76.5,-3.5 79.6,-4.6 78.2,-7.8 			"/>
		</g>
		<g>
			<polygon fill="#005A8B" points="78.6,-7.9 80,-4.8 83.1,-5.8 81.7,-9 			"/>
		</g>
		<g>
			<polygon fill="#005A8B" points="88.9,-3.1 90.4,0.4 93.2,-0.5 91.7,-4.1 			"/>
		</g>
		<g>
			<polygon fill="#005A8B" points="62.2,1.9 58.9,3.1 60.3,6.4 63.7,5.2 			"/>
		</g>
		<g>
			<polygon fill="#005A8B" points="57.6,-17.5 54.6,-16.4 56.1,-13.1 59.1,-14.2 			"/>
		</g>
		<g>
			<polygon fill="#005A8B" points="62.8,-15.4 61.3,-18.8 58,-17.6 59.5,-14.3 			"/>
		</g>
		<g>
			<polygon fill="#005A8B" points="54.2,-16.3 50.9,-15.1 52.3,-11.8 55.7,-13 			"/>
		</g>
		<g>
			<polygon fill="#005A8B" points="57.5,-17.9 56,-21.3 53,-20.2 54.5,-16.8 			"/>
		</g>
		<g>
			<polygon fill="#005A8B" points="66.2,-16.6 64.8,-20 61.7,-18.9 63.2,-15.6 			"/>
		</g>
		<g>
			<polygon fill="#005A8B" points="52.6,-20.1 49.2,-18.9 50.7,-15.5 54.1,-16.7 			"/>
		</g>
		<g>
			<polygon fill="#005A8B" points="61.1,-19.2 59.6,-22.5 56.4,-21.4 57.9,-18 			"/>
		</g>
		<g>
			<polygon fill="#005A8B" points="64.6,-20.4 63.1,-23.8 60.1,-22.7 61.5,-19.3 			"/>
		</g>
		<g>
			<polygon fill="#005A8B" points="66.1,-7.8 62.8,-6.7 64.3,-3.4 67.5,-4.6 			"/>
		</g>
		<g>
			<polygon fill="#005A8B" points="59.3,-13.8 56.3,-12.7 57.7,-9.5 60.7,-10.6 			"/>
		</g>
		<g>
			<polygon fill="#005A8B" points="64.5,-3 65.9,0.2 69.1,-1 67.7,-4.2 			"/>
		</g>
		<g>
			<polygon fill="#005A8B" points="68.1,-21.6 66.6,-25 63.5,-23.9 65,-20.5 			"/>
		</g>
		<g>
			<polygon fill="#005A8B" points="71.6,-22.8 70.1,-26.2 67,-25.1 68.5,-21.7 			"/>
		</g>
		<g>
			<polygon fill="#005A8B" points="76.8,-20.3 75.3,-23.6 72.2,-22.5 73.7,-19.2 			"/>
		</g>
		<g>
			<polygon fill="#005A8B" points="59,-5.4 55.7,-4.2 57.1,-0.9 60.5,-2.1 			"/>
		</g>
		<g>
			<polygon fill="#005A8B" points="83.5,-22.7 82.1,-26 79.2,-25 80.7,-21.7 			"/>
		</g>
		<g>
			<polygon fill="#005A8B" points="80.3,-21.5 78.8,-24.8 75.7,-23.8 77.2,-20.5 			"/>
		</g>
		<g>
			<polygon fill="#005A8B" points="73.2,-19.1 71.8,-22.4 68.7,-21.3 70.1,-18 			"/>
		</g>
		<g>
			<polygon fill="#005A8B" points="55.9,-12.6 52.5,-11.4 53.9,-8.2 57.3,-9.4 			"/>
		</g>
		<g>
			<polygon fill="#005A8B" points="60.6,-1.7 57.3,-0.5 58.7,2.7 62,1.5 			"/>
		</g>
		<g>
			<polygon fill="#005A8B" points="57.4,-9 54.1,-7.8 55.5,-4.6 58.9,-5.8 			"/>
		</g>
		<g>
			<polygon fill="#005A8B" points="69.7,-17.9 68.3,-21.2 65.2,-20.1 66.6,-16.8 			"/>
		</g>
		<g>
			<polygon fill="#FFFFFF" points="52.9,-20.3 52.5,-20.2 52.6,-20.1 53,-20.2 			"/>
		</g>
		<g>
			<polygon fill="#FFFFFF" points="56.3,-21.5 55.9,-21.3 56,-21.3 56.4,-21.4 			"/>
		</g>
		<g>
			<polygon fill="#FFFFFF" points="59.9,-23.1 59.5,-22.9 59.6,-22.5 60.1,-22.7 			"/>
		</g>
	</g>
	<path fill="none" d="M85.5,17.1c0-7.7,6.3-14.1,14.1-14.1c1.2,0,2.3,0.2,3.4,0.4v-6L62.6,11v34.9l36-12.1v-2.7
		C91.3,30.6,85.5,24.5,85.5,17.1z"/>
	<path fill="none" d="M99.9,33.4l3.1-1v-1.6c-1,0.2-2,0.4-3.1,0.4V33.4z"/>
	<path fill="none" d="M86.8,17.1c0,6.7,5.2,12.2,11.8,12.7v-9.2l-4.3-2.1l0.6-1.2l3.7,1.8v-2.2l-3.7-5.1l1.1-0.8l2.7,3.7V8.8h1.3
		v4.6l3.1-0.9V4.9c-1.1-0.3-2.2-0.5-3.4-0.5C92.5,4.4,86.8,10.1,86.8,17.1z"/>
	<path fill="none" d="M99.9,26.4v3.4c1.1,0,2.1-0.2,3.1-0.5v-6.1L99.9,26.4z"/>
	<polygon fill="none" points="99.9,24.5 102.4,21.9 103,22.4 103,13.8 99.9,14.8 	"/>
	<path fill="none" d="M104.7,12l0.4,1.3l-0.8,0.2v15.5c4.7-1.9,8-6.5,8-11.8c0-5.3-3.3-9.9-8-11.8v6.8L104.7,12z"/>
	<path fill="#005A8B" d="M62.6,45.9V11L103-2.6v6c0.4,0.1,0.9,0.2,1.3,0.4v-7.4l-0.9-0.6l-41.7,14l-0.4,0.6v36.3l0.9,0.6l36.4-12.3
		v-1.4L62.6,45.9z"/>
	<path fill="#005A8B" d="M103,32.3l-3.1,1v1.4l3.9-1.3l0.4-0.6v-2.5c-0.4,0.2-0.9,0.3-1.3,0.4V32.3z"/>
	<polygon fill="#005A8B" points="105,13.2 104.7,12 104.3,12.1 104.3,13.4 	"/>
	<path fill="#005A8B" d="M113.6,17.1c0-6-3.8-11.2-9.2-13.2c0,0-0.1,0-0.1,0v1.4c4.7,1.9,8,6.5,8,11.8c0,3-1.1,5.8-2.9,8l1.3,0.4
		C112.5,23.2,113.6,20.3,113.6,17.1z"/>
	<path fill="#005A8B" d="M104.3,28.9v1.4c2.1-0.8,4-2,5.5-3.7l-1.4-0.5C107.3,27.3,105.8,28.3,104.3,28.9z"/>
	<path fill="#005A8B" d="M109.4,25.1c-0.3,0.4-0.6,0.7-1,1.1l1.4,0.5c0.3-0.3,0.6-0.7,0.9-1.1L109.4,25.1z"/>
	<path fill="#005A8B" d="M99.9,26.4l3.1-3.1v-0.8l-0.5-0.5l-2.5,2.6v-9.8l3.1-0.9v-1.4l-3.1,0.9V8.8h-1.3v5.8L95.9,11l-1.1,0.8
		l3.7,5.1v2.2l-3.7-1.8l-0.6,1.2l4.3,2.1v9.2c-6.6-0.5-11.8-6-11.8-12.7c0-7,5.7-12.7,12.7-12.7c1.2,0,2.3,0.2,3.4,0.5V4.1V3.5
		c-1.1-0.3-2.2-0.4-3.4-0.4c-7.7,0-14.1,6.3-14.1,14.1c0,7.4,5.8,13.5,13.1,14v2.7l1.3-0.4v-2.2c1.1,0,2.1-0.2,3.1-0.4v-1.4
		c-1,0.3-2,0.4-3.1,0.5V26.4z"/>
	<polygon fill="#005A8B" points="98.6,39.5 99.9,39.5 99.9,34.7 98.6,35.2 	"/>
	<polygon fill="#005A8B" points="104.3,13.4 104.3,12.1 103,12.5 103,13.8 	"/>
	<path fill="#005A8B" d="M103,29.3v1.4c0.4-0.1,0.9-0.2,1.3-0.4v-1.4C103.9,29.1,103.4,29.2,103,29.3z"/>
	<polygon fill="#005A8B" points="103.4,22.8 103,22.4 103,23.3 	"/>
	<polygon fill="#005A8B" points="98.6,33.8 98.6,35.2 99.9,34.7 99.9,33.4 	"/>
	<path fill="#005A8B" d="M103,4.1v0.7c0.4,0.1,0.9,0.3,1.3,0.4V3.9c-0.4-0.2-0.9-0.3-1.3-0.4V4.1z"/>
	<g>
		<ellipse fill="#005A8B" cx="99.3" cy="39.5" rx="2.1" ry="0.9"/>
	</g>
</g>
</svg>
