<?xml version="1.0" encoding="utf-8"?>
<!-- Generator: Adobe Illustrator 18.1.1, SVG Export Plug-In . SVG Version: 6.00 Build 0)  -->
<svg version="1.1" id="Layer_1" xmlns="http://www.w3.org/2000/svg" xmlns:xlink="http://www.w3.org/1999/xlink" x="0px" y="0px"
	 viewBox="13.5 -34 118.5 100" enable-background="new 13.5 -34 118.5 100" xml:space="preserve">
<g>
	<path fill="#005A8B" d="M63.3,58.4L34.2,49l-0.5-0.7V6.8l1-0.7l29.1,9.4l0.5,0.7v41.5L63.3,58.4z M35.2,47.7l27.6,8.9V16.7
		L35.2,7.8V47.7z"/>
</g>
<g>
	<g>
		<path fill="#005A8B" d="M82.4,29.4h-0.5v-2.6h0.5V29.4z M82.4,25.2h-0.5v-2.6h0.5V25.2z M82.4,21.1h-0.5v-2.6h0.5V21.1z
			 M82.4,16.9h-0.5v-2.6h0.5V16.9z M82.4,12.8h-0.5v-2.6h0.5V12.8z"/>
	</g>
	<g>
		<polygon fill="#005A8B" points="83.2,32.8 82,32.5 81.9,32.2 81.9,31 82.4,31 82.4,32 83.4,32.4 		"/>
	</g>
	<g>
		<path fill="#005A8B" d="M105,39.6l-2.3-0.7l0.1-0.5l2.3,0.7L105,39.6z M101.4,38.5l-2.3-0.7l0.1-0.5l2.3,0.7L101.4,38.5z
			 M94.1,36.2l-2.3-0.7L92,35l2.3,0.7L94.1,36.2z M90.5,35.1l-2.3-0.7l0.1-0.5l2.3,0.7L90.5,35.1z M86.9,34l-2.3-0.7l0.1-0.5
			l2.3,0.7L86.9,34z"/>
	</g>
	<g>
		<polygon fill="#005A8B" points="111.2,41.5 110,41.2 111,41 111,41 111,40.1 111.5,40.1 111.5,41.3 		"/>
	</g>
</g>
<g>
	<path fill="#005A8B" d="M34.3,48.6l-0.2-0.5l2.4-0.8l0.2,0.5L34.3,48.6z M38.1,47.3L38,46.8l2.4-0.8l0.2,0.5L38.1,47.3z M34.1,46.6
		l0-2.5l0.5,0l0,2.5L34.1,46.6z M41.9,46l-0.2-0.5l2.4-0.8l0.2,0.5L41.9,46z M45.7,44.7l-0.2-0.5l2.4-0.8l0.2,0.5L45.7,44.7z
		 M49.5,43.5L49.4,43l2.4-0.8l0.2,0.5L49.5,43.5z M34.1,42.6l0-2.5l0.5,0l0,2.5L34.1,42.6z M53.3,42.2l-0.2-0.5l2.4-0.8l0.2,0.5
		L53.3,42.2z M57.2,40.9L57,40.4l2.4-0.8l0.2,0.5L57.2,40.9z M61,39.6l-0.2-0.5l2.4-0.8l0.2,0.5L61,39.6z M34,38.6l0-2.5l0.5,0
		l0,2.5L34,38.6z M64.8,38.3l-0.2-0.5l2.4-0.8l0.2,0.5L64.8,38.3z M68.6,37.1l-0.2-0.5l2.4-0.8l0.2,0.5L68.6,37.1z M72.4,35.8
		l-0.2-0.5l2.4-0.8l0.2,0.5L72.4,35.8z M34,34.6l0-2.5l0.5,0l0,2.5L34,34.6z M76.2,34.5L76,34l2.4-0.8l0.2,0.5L76.2,34.5z M80,33.2
		l-0.2-0.5l2.4-0.8l0.2,0.5L80,33.2z M33.9,30.5l0-2.5l0.5,0l0,2.5L33.9,30.5z M33.9,26.5l0-2.5l0.5,0l0,2.5L33.9,26.5z M33.8,22.5
		l0-2.5l0.5,0l0,2.5L33.8,22.5z M33.8,18.5l0-2.5l0.5,0l0,2.5L33.8,18.5z M33.7,14.5l0-2.5l0.5,0l0,2.5L33.7,14.5z M33.7,10.5l0-2.5
		l0.5,0l0,2.5L33.7,10.5z M34.3,6.9l-0.2-0.5l2.4-0.8l0.2,0.5L34.3,6.9z M38.1,5.6L38,5.2l2.4-0.8l0.2,0.5L38.1,5.6z M41.9,4.4
		l-0.2-0.5l2.4-0.8l0.2,0.5L41.9,4.4z M45.7,3.1l-0.2-0.5L48,1.8l0.2,0.5L45.7,3.1z M49.6,1.8l-0.2-0.5l2.4-0.8L51.9,1L49.6,1.8z
		 M53.4,0.6l-0.2-0.5l2.4-0.8l0.2,0.5L53.4,0.6z M57.2-0.7L57-1.2L59.4-2l0.2,0.5L57.2-0.7z M61-2l-0.2-0.5l2.4-0.8l0.2,0.5L61-2z
		 M64.8-3.2l-0.2-0.5L67-4.5L67.2-4L64.8-3.2z M68.6-4.5L68.5-5l2.4-0.8L71-5.3L68.6-4.5z M72.4-5.8l-0.2-0.5l2.4-0.8l0.2,0.5
		L72.4-5.8z M76.2-7.1l-0.2-0.5l2.4-0.8l0.2,0.5L76.2-7.1z M80-8.3l-0.2-0.5l2.4-0.8l0.2,0.5L80-8.3z"/>
</g>
<g>
	<path fill="#005A8B" d="M63.5,16.9l0-0.3l-0.2,0.3L34.2,7.5l-0.4-1.1l14.6-23.8l1.3,0.1l14.6,33.1l-0.7,0.8V16.9z M35.5,6.4
		l26.6,8.6L48.9-15.4L35.5,6.4z"/>
</g>
<g>
	<g>
		<polygon fill="#005A8B" points="72.4,3.3 74.1,7.1 77.6,5.8 75.9,2 		"/>
	</g>
	<g>
		<polygon fill="#005A8B" points="96.2,-24.7 100,-26 98.3,-29.8 94.5,-28.4 		"/>
	</g>
	<g>
		<polygon fill="#005A8B" points="72.7,-6.4 74.4,-2.7 77.9,-3.9 76.3,-7.7 		"/>
	</g>
	<g>
		<polygon fill="#005A8B" points="101.7,-12.2 105.5,-13.5 103.8,-17.3 100,-16 		"/>
	</g>
	<g>
		<polygon fill="#005A8B" points="98,-20.6 101.8,-21.9 100.2,-25.5 96.4,-24.2 		"/>
	</g>
	<g>
		<polygon fill="#005A8B" points="99.8,-16.4 103.6,-17.7 102,-21.4 98.2,-20.1 		"/>
	</g>
	<g>
		<polygon fill="#005A8B" points="76.4,1.9 78.1,5.7 81.6,4.4 79.9,0.6 		"/>
	</g>
	<g>
		<polygon fill="#005A8B" points="80.4,0.5 82.1,4.3 85.6,3 83.9,-0.8 		"/>
	</g>
	<g>
		<polygon fill="#005A8B" points="84.4,-0.9 86.1,2.9 89.7,1.6 88,-2.2 		"/>
	</g>
	<g>
		<polygon fill="#005A8B" points="88.5,-2.3 90.1,1.5 93.7,0.2 92,-3.6 		"/>
	</g>
	<g>
		<polygon fill="#005A8B" points="103.5,-8.1 107.3,-9.4 105.7,-13.1 101.9,-11.7 		"/>
	</g>
	<g>
		<polygon fill="#005A8B" points="105.3,-3.8 109.2,-5.2 107.5,-9 103.7,-7.6 		"/>
	</g>
	<g>
		<polygon fill="#005A8B" points="86.3,-26.1 84.6,-30 81.4,-28.9 83.1,-25 		"/>
	</g>
	<g>
		<polygon fill="#005A8B" points="64.3,6.1 66,9.9 69.4,8.7 67.7,4.9 		"/>
	</g>
	<g>
		<polygon fill="#005A8B" points="62.3,-7.6 58.8,-6.4 60.5,-2.7 63.9,-3.9 		"/>
	</g>
	<g>
		<polygon fill="#005A8B" points="64.1,-3.4 60.7,-2.2 62.3,1.5 65.7,0.3 		"/>
	</g>
	<g>
		<polygon fill="#005A8B" points="82.6,-24.8 80.9,-28.7 77.4,-27.5 79.1,-23.6 		"/>
	</g>
	<g>
		<polygon fill="#005A8B" points="66.5,-9.1 62.7,-7.8 64.4,-4.1 68.1,-5.4 		"/>
	</g>
	<g>
		<polygon fill="#005A8B" points="90,-27.4 88.3,-31.3 85.1,-30.2 86.8,-26.3 		"/>
	</g>
	<g>
		<polygon fill="#005A8B" points="65.9,0.8 62.5,2 64.1,5.6 67.5,4.4 		"/>
	</g>
	<g>
		<polygon fill="#005A8B" points="98.1,-30.2 96.4,-34.1 92.6,-32.8 94.3,-28.9 		"/>
	</g>
	<g>
		<polygon fill="#005A8B" points="64.7,-13.2 60.9,-11.9 62.5,-8.2 66.3,-9.5 		"/>
	</g>
	<g>
		<polygon fill="#005A8B" points="93.9,-28.7 92.1,-32.6 88.7,-31.4 90.4,-27.6 		"/>
	</g>
	<g>
		<polygon fill="#005A8B" points="88.1,-12.3 86.5,-16 83,-14.8 84.6,-11.1 		"/>
	</g>
	<g>
		<polygon fill="#005A8B" points="93.6,-19.1 92,-22.7 88.9,-21.6 90.5,-18 		"/>
	</g>
	<g>
		<polygon fill="#005A8B" points="94.2,-9.6 97.3,-10.7 95.7,-14.4 92.5,-13.3 		"/>
	</g>
	<g>
		<polygon fill="#005A8B" points="76.1,-8.1 74.4,-11.8 70.9,-10.6 72.5,-6.9 		"/>
	</g>
	<g>
		<polygon fill="#005A8B" points="92.3,-13.8 95.5,-14.9 93.8,-18.6 90.7,-17.5 		"/>
	</g>
	<g>
		<polygon fill="#005A8B" points="84.1,-11 82.5,-14.6 78.9,-13.4 80.6,-9.7 		"/>
	</g>
	<g>
		<polygon fill="#005A8B" points="88.8,-12 90.5,-8.3 93.7,-9.4 92,-13.2 		"/>
	</g>
	<g>
		<polygon fill="#005A8B" points="80.1,-9.5 78.5,-13.2 74.9,-12 76.5,-8.3 		"/>
	</g>
	<g>
		<polygon fill="#005A8B" points="68.8,-5.1 70.4,-1.3 73.9,-2.5 72.3,-6.3 		"/>
	</g>
	<g>
		<polygon fill="#005A8B" points="76.8,-7.8 78.4,-4.1 81.9,-5.3 80.3,-9.1 		"/>
	</g>
	<g>
		<polygon fill="#005A8B" points="84.8,-10.7 86.5,-6.9 90,-8.1 88.3,-11.9 		"/>
	</g>
	<g>
		<polygon fill="#005A8B" points="80.8,-9.2 82.4,-5.5 86,-6.7 84.3,-10.5 		"/>
	</g>
	<g>
		<polygon fill="#005A8B" points="70.4,-10.4 66.9,-9.2 68.6,-5.5 72,-6.7 		"/>
	</g>
	<g>
		<polygon fill="#005A8B" points="78.6,-23.4 76.9,-27.3 73.4,-26.1 75.1,-22.2 		"/>
	</g>
	<g>
		<polygon fill="#005A8B" points="74.2,-12.3 72.6,-15.9 69.1,-14.7 70.7,-11.1 		"/>
	</g>
	<g>
		<polygon fill="#005A8B" points="78.3,-13.7 76.7,-17.3 73.1,-16.1 74.7,-12.5 		"/>
	</g>
	<g>
		<polygon fill="#005A8B" points="70.2,-10.9 68.6,-14.5 65.1,-13.3 66.7,-9.7 		"/>
	</g>
	<g>
		<polygon fill="#005A8B" points="96.2,-5 97.8,-1.2 101,-2.3 99.3,-6.1 		"/>
	</g>
	<g>
		<polygon fill="#005A8B" points="99.8,-6.3 101.5,-2.5 104.9,-3.7 103.2,-7.5 		"/>
	</g>
	<g>
		<polygon fill="#005A8B" points="86.3,-16.5 84.7,-20.1 81.2,-18.9 82.8,-15.3 		"/>
	</g>
	<g>
		<polygon fill="#005A8B" points="91.8,-13.6 90.2,-17.3 87,-16.2 88.6,-12.5 		"/>
	</g>
	<g>
		<polygon fill="#005A8B" points="82.3,-15.1 80.7,-18.7 77.1,-17.5 78.7,-13.9 		"/>
	</g>
	<g>
		<polygon fill="#005A8B" points="90,-17.8 88.4,-21.4 85.2,-20.3 86.8,-16.7 		"/>
	</g>
	<g>
		<polygon fill="#005A8B" points="92.5,-3.7 94.1,0.1 97.4,-1 95.7,-4.8 		"/>
	</g>
	<g>
		<polygon fill="#005A8B" points="107.4,0.8 111.2,-0.5 109.4,-4.7 105.6,-3.4 		"/>
	</g>
	<g>
		<polygon fill="#005A8B" points="68.2,4.7 69.9,8.5 73.6,7.2 71.9,3.4 		"/>
	</g>
	<g>
		<polygon fill="#005A8B" points="95.9,-15.1 99.3,-16.2 97.7,-19.9 94.3,-18.8 		"/>
	</g>
	<g>
		<polygon fill="#005A8B" points="78.3,6.1 80,10 83.5,8.8 81.8,4.9 		"/>
	</g>
	<g>
		<polygon fill="#005A8B" points="74.3,7.5 76,11.4 79.5,10.2 77.8,6.3 		"/>
	</g>
	<g>
		<polygon fill="#005A8B" points="70.6,-0.9 72.2,2.8 75.7,1.6 74.1,-2.1 		"/>
	</g>
	<g>
		<polygon fill="#005A8B" points="82.3,4.7 84,8.7 87.6,7.5 85.8,3.5 		"/>
	</g>
	<g>
		<polygon fill="#005A8B" points="97.8,-10.9 101.2,-12 99.5,-15.8 96.1,-14.6 		"/>
	</g>
	<g>
		<polygon fill="#005A8B" points="94.1,-19.2 97.5,-20.4 95.9,-24 92.5,-22.9 		"/>
	</g>
	<g>
		<polygon fill="#005A8B" points="61.9,11.8 63.5,15.5 67.4,14.3 65.7,10.5 		"/>
	</g>
	<g>
		<polygon fill="#005A8B" points="95.7,-24.5 94.1,-28.3 90.7,-27.1 92.3,-23.3 		"/>
	</g>
	<g>
		<polygon fill="#005A8B" points="91.8,-23.1 90.2,-26.9 87,-25.8 88.7,-22 		"/>
	</g>
	<g>
		<polygon fill="#005A8B" points="74.6,-2.2 76.2,1.4 79.7,0.2 78.1,-3.5 		"/>
	</g>
	<g>
		<polygon fill="#005A8B" points="66.2,10.3 67.9,14.1 71.3,12.9 69.6,9.1 		"/>
	</g>
	<g>
		<polygon fill="#005A8B" points="70.1,9 71.8,12.8 75.5,11.5 73.8,7.7 		"/>
	</g>
	<g>
		<polygon fill="#005A8B" points="101.7,-2 103.5,2.1 106.9,0.9 105.1,-3.2 		"/>
	</g>
	<g>
		<polygon fill="#005A8B" points="86.7,-6.4 88.3,-2.8 91.8,-4 90.2,-7.7 		"/>
	</g>
	<g>
		<polygon fill="#005A8B" points="98,-0.7 99.8,3.3 103,2.3 101.2,-1.8 		"/>
	</g>
	<g>
		<polygon fill="#005A8B" points="94.4,-9.1 96,-5.5 99.1,-6.6 97.5,-10.2 		"/>
	</g>
	<g>
		<polygon fill="#005A8B" points="90.7,-7.8 92.3,-4.2 95.5,-5.3 93.9,-9 		"/>
	</g>
	<g>
		<polygon fill="#005A8B" points="99.6,-6.7 103,-7.9 101.4,-11.6 98,-10.4 		"/>
	</g>
	<g>
		<polygon fill="#005A8B" points="86.3,3.3 88,7.3 91.6,6.1 89.9,2.1 		"/>
	</g>
	<g>
		<polygon fill="#005A8B" points="90.4,1.9 92.1,5.9 95.6,4.7 93.9,0.7 		"/>
	</g>
	<g>
		<polygon fill="#005A8B" points="78.6,-3.6 80.2,0 83.7,-1.2 82.1,-4.9 		"/>
	</g>
	<g>
		<polygon fill="#005A8B" points="82.6,-5 84.2,-1.4 87.8,-2.6 86.2,-6.3 		"/>
	</g>
	<g>
		<polygon fill="#005A8B" points="94.3,0.5 96.1,4.6 99.3,3.5 97.6,-0.6 		"/>
	</g>
	<g>
		<polygon fill="#005A8B" points="63.9,6.2 60,7.6 61.7,11.4 65.5,10 		"/>
	</g>
	<g>
		<polygon fill="#005A8B" points="58.6,-15.9 55.2,-14.7 56.8,-11 60.3,-12.2 		"/>
	</g>
	<g>
		<polygon fill="#005A8B" points="64.5,-13.6 62.8,-17.4 59.1,-16.1 60.7,-12.3 		"/>
	</g>
	<g>
		<polygon fill="#005A8B" points="54.7,-14.6 50.9,-13.2 52.5,-9.5 56.4,-10.8 		"/>
	</g>
	<g>
		<polygon fill="#005A8B" points="58.4,-16.4 56.7,-20.3 53.3,-19.1 55,-15.2 		"/>
	</g>
	<g>
		<polygon fill="#005A8B" points="68.4,-15 66.8,-18.8 63.3,-17.6 64.9,-13.8 		"/>
	</g>
	<g>
		<polygon fill="#005A8B" points="52.8,-18.9 49,-17.6 50.7,-13.7 54.5,-15 		"/>
	</g>
	<g>
		<polygon fill="#005A8B" points="62.6,-17.9 60.9,-21.7 57.2,-20.4 58.9,-16.6 		"/>
	</g>
	<g>
		<polygon fill="#005A8B" points="66.6,-19.2 64.8,-23.1 61.4,-21.9 63.1,-18 		"/>
	</g>
	<g>
		<polygon fill="#005A8B" points="68.3,-4.9 64.6,-3.6 66.2,0.1 69.9,-1.2 		"/>
	</g>
	<g>
		<polygon fill="#005A8B" points="60.5,-11.7 57,-10.5 58.6,-6.9 62.1,-8.1 		"/>
	</g>
	<g>
		<polygon fill="#005A8B" points="66.4,0.6 68,4.3 71.7,3 70.1,-0.7 		"/>
	</g>
	<g>
		<polygon fill="#005A8B" points="70.6,-20.6 68.9,-24.5 65.3,-23.3 67,-19.4 		"/>
	</g>
	<g>
		<polygon fill="#005A8B" points="74.6,-22 72.9,-25.9 69.4,-24.7 71.1,-20.8 		"/>
	</g>
	<g>
		<polygon fill="#005A8B" points="80.5,-19.2 78.9,-23 75.3,-21.7 76.9,-18 		"/>
	</g>
	<g>
		<polygon fill="#005A8B" points="60.2,-2.1 56.4,-0.7 58,3 61.8,1.7 		"/>
	</g>
	<g>
		<polygon fill="#005A8B" points="88.2,-21.9 86.5,-25.7 83.3,-24.5 85,-20.8 		"/>
	</g>
	<g>
		<polygon fill="#005A8B" points="84.5,-20.6 82.8,-24.4 79.3,-23.2 81,-19.4 		"/>
	</g>
	<g>
		<polygon fill="#005A8B" points="76.5,-17.8 74.8,-21.6 71.3,-20.3 72.9,-16.6 		"/>
	</g>
	<g>
		<polygon fill="#005A8B" points="56.6,-10.3 52.7,-9 54.3,-5.4 58.2,-6.7 		"/>
	</g>
	<g>
		<polygon fill="#005A8B" points="62,2.1 58.2,3.5 59.8,7.1 63.7,5.8 		"/>
	</g>
	<g>
		<polygon fill="#005A8B" points="58.4,-6.2 54.5,-4.9 56.2,-1.2 60,-2.5 		"/>
	</g>
	<g>
		<polygon fill="#005A8B" points="72.4,-16.4 70.8,-20.2 67.2,-18.9 68.9,-15.2 		"/>
	</g>
	<g>
		<polygon fill="#FFFFFF" points="53.2,-19.2 52.8,-19 52.8,-18.9 53.3,-19.1 		"/>
	</g>
	<g>
		<polygon fill="#FFFFFF" points="57.1,-20.5 56.7,-20.3 56.7,-20.3 57.2,-20.4 		"/>
	</g>
	<g>
		<polygon fill="#FFFFFF" points="61.2,-22.3 60.7,-22.1 60.9,-21.7 61.4,-21.9 		"/>
	</g>
</g>
<g>
	<path fill="#005A8B" d="M83.9,65.1l-20.6-6.7l0-1.4L111,40.9l0.5,0l20.6,6.7l0,1.4L84.4,65.1L83.9,65.1z M65.9,57.6l18.2,5.9
		l45.3-15.3l-18.2-5.9L65.9,57.6z"/>
</g>
<g>
	
		<rect x="13.3" y="44.5" transform="matrix(0.951 0.3093 -0.3093 0.951 15.2065 -5.4892)" fill="#005A8B" width="23.2" height="1.5"/>
</g>
<g>
	<g>
		
			<rect x="80.9" y="31.8" transform="matrix(0.9511 0.3089 -0.3089 0.9511 13.8906 -23.6487)" fill="#005A8B" width="1.5" height="0.5"/>
	</g>
	<g>
		<path fill="#005A8B" d="M35.5,34.6l-0.2-0.5l2.4-0.8l0.2,0.5L35.5,34.6z M39.3,33.3l-0.2-0.5l2.4-0.8l0.2,0.5L39.3,33.3z M43,32
			l-0.2-0.5l2.4-0.8l0.2,0.5L43,32z M79.4,31.6L77,30.8l0.2-0.5l2.4,0.8L79.4,31.6z M46.8,30.7l-0.2-0.5l2.4-0.8l0.2,0.5L46.8,30.7z
			 M75.6,30.4l-2.4-0.8l0.2-0.5l2.4,0.8L75.6,30.4z M50.6,29.5L50.5,29l2.4-0.8l0.2,0.5L50.6,29.5z M71.8,29.1l-2.4-0.8l0.2-0.5
			l2.4,0.8L71.8,29.1z M54.4,28.2l-0.2-0.5l2.4-0.8l0.2,0.5L54.4,28.2z M68,27.9l-2.4-0.8l0.2-0.5l2.4,0.8L68,27.9z M58.2,26.9
			L58,26.4l2.4-0.8l0.2,0.5L58.2,26.9z M64.2,26.6l-2.4-0.8l0.2-0.5l2.4,0.8L64.2,26.6z"/>
	</g>
</g>
<g>
	<polygon fill="#005A8B" points="13.7,42.4 13.5,40.9 34.4,33.9 34.9,35.3 	"/>
</g>
<g>
	<polygon fill="#005A8B" points="48.7,63.3 19.3,53.7 19.3,52.3 34.9,47 35.4,48.4 21.9,53 49,61.8 64.3,56.6 64.8,58 49.2,63.3 	
		"/>
</g>
<g>
	<path fill="#005A8B" d="M82.3,32.2l-0.2-0.5l2.4-0.8l0.2,0.5L82.3,32.2z M86.1,31l-0.2-0.5l2.4-0.8l0.2,0.5L86.1,31z M89.9,29.7
		l-0.2-0.5l2.4-0.8l0.2,0.5L89.9,29.7z"/>
</g>
<path fill="none" d="M90.5,23.6c0-8.9,7.2-16.1,16.1-16.1c1.4,0,2.7,0.2,3.9,0.5V1.1L64.3,16.7v39.9l41.2-13.9v-3.1
	C97.1,39.1,90.5,32.1,90.5,23.6z"/>
<path fill="none" d="M107,42.2l3.5-1.2v-1.9c-1.1,0.3-2.3,0.5-3.5,0.5V42.2z"/>
<path fill="none" d="M92,23.6c0,7.7,6,14,13.5,14.5V27.6l-4.9-2.4l0.7-1.4l4.3,2.1v-2.6l-4.3-5.9l1.2-0.9l3.1,4.2v-6.7h1.5v5.2
	l3.5-1.1V9.6c-1.3-0.4-2.6-0.6-3.9-0.6C98.5,9.1,92,15.6,92,23.6z"/>
<path fill="none" d="M107,34.3v3.9c1.2,0,2.4-0.2,3.5-0.5v-6.9L107,34.3z"/>
<polygon fill="none" points="107,32.1 109.9,29.2 110.5,29.7 110.5,19.9 107,20.9 "/>
<path fill="none" d="M112.4,17.7l0.4,1.4l-0.9,0.3v17.7c5.3-2.2,9.1-7.4,9.1-13.5c0-6.1-3.8-11.4-9.1-13.5v7.7L112.4,17.7z"/>
<path fill="#005A8B" d="M64.3,56.6V16.7l46.2-15.6V8c0.5,0.1,1,0.3,1.5,0.5V0.1l-1-0.7L63.3,15.4l-0.5,0.7v41.5l1,0.7l41.7-14.1
	v-1.6L64.3,56.6z"/>
<path fill="#005A8B" d="M110.5,41.1l-3.5,1.2v1.6l4.5-1.5l0.5-0.7v-2.9c-0.5,0.2-1,0.3-1.5,0.5V41.1z"/>
<polygon fill="#005A8B" points="112.8,19.2 112.4,17.7 112,17.9 112,19.4 "/>
<path fill="#005A8B" d="M126.5,35.7l-7.1-2.4c-0.3,0.4-0.7,0.8-1,1.2l5.6,1.9L110.4,41l0.5,1.4l15.6-5.3L126.5,35.7z"/>
<path fill="#005A8B" d="M122.6,23.6c0-6.9-4.4-12.8-10.5-15.1c0,0-0.1,0-0.1,0v1.6c5.4,2.2,9.1,7.4,9.1,13.5c0,3.5-1.2,6.7-3.3,9.2
	l1.5,0.5C121.4,30.6,122.6,27.3,122.6,23.6z"/>
<path fill="#005A8B" d="M112,37.1v1.6c2.4-0.9,4.6-2.3,6.3-4.2l-1.6-0.5C115.4,35.3,113.8,36.4,112,37.1z"/>
<path fill="#005A8B" d="M117.9,32.8c-0.3,0.4-0.7,0.8-1.1,1.2l1.6,0.5c0.4-0.4,0.7-0.8,1-1.2L117.9,32.8z"/>
<path fill="#005A8B" d="M107,34.3l3.5-3.6v-1l-0.6-0.6l-2.9,3V20.9l3.5-1.1v-1.6l-3.5,1.1v-5.2h-1.5v6.7l-3.1-4.2l-1.2,0.9l4.3,5.9
	v2.6l-4.3-2.1l-0.7,1.4l4.9,2.4v10.6C97.9,37.6,92,31.3,92,23.6c0-8,6.5-14.6,14.6-14.6c1.4,0,2.7,0.2,3.9,0.6V8.8V8
	c-1.3-0.3-2.6-0.5-3.9-0.5c-8.9,0-16.1,7.2-16.1,16.1c0,8.5,6.6,15.5,15,16v3.1l1.5-0.5v-2.5c1.2,0,2.4-0.2,3.5-0.5v-1.6
	c-1.1,0.3-2.3,0.5-3.5,0.5V34.3z"/>
<polygon fill="#005A8B" points="105.5,49.2 107,49.2 107,43.8 105.5,44.3 "/>
<polygon fill="#005A8B" points="112,19.4 112,17.9 110.5,18.3 110.5,19.9 "/>
<path fill="#005A8B" d="M110.5,37.6v1.6c0.5-0.1,1-0.3,1.5-0.5v-1.6C111.5,37.3,111,37.5,110.5,37.6z"/>
<polygon fill="#005A8B" points="111,30.2 110.5,29.7 110.5,30.7 "/>
<polygon fill="#005A8B" points="105.5,42.7 105.5,44.3 107,43.8 107,42.2 "/>
<path fill="#005A8B" d="M110.5,8.8v0.8c0.5,0.1,1,0.3,1.5,0.5V8.5c-0.5-0.2-1-0.3-1.5-0.5V8.8z"/>
<g>
	<ellipse fill="#005A8B" cx="106.3" cy="49.2" rx="2.4" ry="1"/>
</g>
</svg>
