<?xml version="1.0" encoding="utf-8"?>
<!-- Generator: Adobe Illustrator 18.1.1, SVG Export Plug-In . SVG Version: 6.00 Build 0)  -->
<svg version="1.1" id="Layer_1" xmlns="http://www.w3.org/2000/svg" xmlns:xlink="http://www.w3.org/1999/xlink" x="0px" y="0px"
	 viewBox="28 -58.4 78.1 100" enable-background="new 28 -58.4 78.1 100" xml:space="preserve">
<g>
	<g>
		<path fill="#005A8B" d="M91.6-39.8c-0.2-0.1-0.5-0.1-0.7-0.1c-1.9,0-3.6,1.4-4,3.3c-0.3,2.2,1.2,4.3,3.3,4.7c0.3,0,0.5,0,0.7,0
			c1.9,0,3.6-1.4,4-3.3C95.4-37.4,93.9-39.5,91.6-39.8z M94.3-35.3c-0.3,1.6-1.7,2.8-3.3,2.8c-0.2,0-0.4,0-0.6-0.1
			c-0.9-0.2-1.7-0.6-2.2-1.4c-0.5-0.7-0.7-1.7-0.6-2.5c0.3-1.6,1.7-2.8,3.3-2.8c0.2,0,0.4,0,0.6,0.1C93.4-38.9,94.7-37.1,94.3-35.3z
			"/>
		
			<rect x="70.1" y="-34.3" transform="matrix(0.972 -0.235 0.235 0.972 10.1815 17.4116)" fill="#005A8B" width="16.2" height="0.6"/>
		
			<rect x="81.1" y="-29.3" transform="matrix(0.7574 -0.6529 0.6529 0.7574 39.519 48.4626)" fill="#005A8B" width="7.7" height="0.6"/>
		
			<rect x="89.7" y="-30.9" transform="matrix(-0.9734 -0.229 0.229 -0.9734 182.3693 -19.8519)" fill="#005A8B" width="0.6" height="20.8"/>
		
			<rect x="83.7" y="-33.4" transform="matrix(-0.9284 0.3715 -0.3715 -0.9284 150.9919 -95.259)" fill="#005A8B" width="1.9" height="0.6"/>
		
			<rect x="87.8" y="-29.3" transform="matrix(0.3764 -0.9264 0.9264 0.3764 82.6247 64.8089)" fill="#005A8B" width="3.3" height="0.6"/>
		
			<rect x="84.2" y="-38.1" transform="matrix(0.985 0.1725 -0.1725 0.985 -5.2408 -15.2068)" fill="#005A8B" width="1.4" height="0.7"/>
	</g>
	<g>
		<path fill="#005A8B" d="M65.4-25.6c-0.6-0.1-1.1-0.1-1.7-0.1c-5.2,0-10,1.9-13.9,5.4c-3.8,3.5-6.1,8.2-6.6,13.5
			c-0.5,5.4,1.3,10.8,4.8,15c3.5,4.1,8.5,6.7,14.1,7.2c0.6,0.1,1.1,0.1,1.7,0.1c5.2,0,10-1.9,13.9-5.4c3.8-3.5,6.1-8.2,6.6-13.5
			C85.2-14.7,76.8-24.7,65.4-25.6z M63.8,14.3c-0.5,0-1.1,0-1.6-0.1C57,13.8,52.4,11.4,49,7.4c-3.3-4-4.9-8.9-4.5-14.2
			c0.4-4.9,2.6-9.3,6.2-12.8c3.6-3.3,8.2-5.1,13.2-5.1c0.5,0,1.1,0,1.6,0.1c5.2,0.4,9.8,2.8,13.3,6.8c3.3,4,4.9,8.9,4.5,14.2
			C82.8,1.3,80.6,5.8,77,9.2C73.3,12.5,68.7,14.3,63.8,14.3z"/>
		<g>
			<g>
				<path fill="#005A8B" d="M52.8,1.7c0.1,2.1,0.3,3.6,0.3,3.7h-0.2c1.7,0.5,3.5,0.9,5.3,1c0-0.2-0.2-1.9-0.3-3.9
					C56.3,2.4,54.6,2.1,52.8,1.7z"/>
			</g>
			<g>
				<path fill="#005A8B" d="M76-2.5c-0.4-1-0.9-2.2-1.4-3.2c-1,0.5-2,1-3.1,1.5c-0.1,0.1-0.2,0.1-0.3,0.1c0.5,1.1,0.9,2.3,1.3,3.4
					c0.1-0.1,0.2-0.1,0.3-0.2C74.1-1.3,75.1-1.9,76-2.5z"/>
			</g>
			<g>
				<path fill="#005A8B" d="M57.8,2.1c-0.1-1.2-0.2-2.5-0.3-3.7c-1.5-0.1-3.1-0.3-4.8-0.6c0,1.3,0,2.5,0.1,3.6
					C54.6,1.7,56.2,2,57.8,2.1z"/>
			</g>
			<g>
				<path fill="#005A8B" d="M61.9-1.7c-1.3,0.1-2.6,0.2-4,0.1c0.1,1.2,0.2,2.5,0.3,3.7c1.5,0.1,3,0.1,4.4-0.1
					C62.4,0.8,62.1-0.5,61.9-1.7z"/>
			</g>
			<g>
				<path fill="#005A8B" d="M72.3-0.4c0.1,0.1,0.1,0.2,0.1,0.3c0.1-0.1,0.2-0.1,0.3-0.2c-0.1-0.1-0.1-0.2-0.1-0.3
					C72.5-0.6,72.4-0.5,72.3-0.4z"/>
			</g>
			<g>
				<path fill="#005A8B" d="M67.8,1.2c0.1,0.1,0.1,0.2,0.1,0.3c0.1-0.1,0.2-0.1,0.3-0.1c-0.1-0.1-0.1-0.2-0.1-0.3
					C68,1.1,67.9,1.1,67.8,1.2z"/>
			</g>
			<g>
				<path fill="#005A8B" d="M70.9-3.9c-1.1,0.5-2.4,0.9-3.7,1.3c0.3,1.2,0.6,2.5,0.9,3.7c1.5-0.5,2.9-1,4.1-1.5
					C71.9-1.6,71.4-2.8,70.9-3.9z"/>
			</g>
			<g>
				<path fill="#005A8B" d="M62.6,2.1c0,0.1,0.1,0.2,0.1,0.3c0.1,0,0.2,0,0.3-0.1c0-0.1-0.1-0.2-0.1-0.3C62.9,2,62.8,2.1,62.6,2.1z"
					/>
			</g>
			<g>
				<path fill="#005A8B" d="M66.8-2.6c-1.4,0.3-2.9,0.6-4.5,0.8C62.5-0.6,62.8,0.8,63,2c1.7-0.2,3.3-0.5,4.7-0.9
					C67.5,0,67.1-1.4,66.8-2.6z"/>
			</g>
			<g>
				<path fill="#005A8B" d="M57.8,2.1c0,0.1,0,0.2,0.1,0.4c0.1,0,0.2,0,0.4,0c0-0.1,0-0.2-0.1-0.4C58.1,2.1,58,2.1,57.8,2.1z"/>
			</g>
			<g>
				<path fill="#005A8B" d="M58.6,6.5h-0.1c1.7,0.1,3.4,0.1,5-0.1c-0.1-0.2-0.3-1.8-0.8-4c-1.4,0.1-2.9,0.2-4.5,0.1
					C58.5,4.8,58.6,6.5,58.6,6.5z"/>
			</g>
			<g>
				<path fill="#005A8B" d="M63.9,6.4h-0.1c1.8-0.2,3.5-0.6,5.2-1.1l-0.2,0.1c0-0.1-0.4-1.7-0.9-3.8c-1.4,0.4-3,0.7-4.7,0.9
					C63.5,4.6,63.9,6.4,63.9,6.4z"/>
			</g>
			<g>
				<path fill="#005A8B" d="M69.2,5.3c1.6-0.5,3.1-1.1,4.6-1.9h-0.2c-0.3-0.8-0.7-2.1-1.1-3.4c-1.3,0.6-2.6,1.1-4.2,1.5
					C68.7,3.5,69.1,5.1,69.2,5.3z"/>
			</g>
			<g>
				<path fill="#005A8B" d="M77.5,0.8c1-0.8,2-1.7,2.9-2.6l-0.1,0c0-0.1-0.3-1.2-0.8-2.7c-0.9,0.7-1.9,1.4-3,2.2
					C77.1-0.8,77.5,0.4,77.5,0.8z"/>
			</g>
			<g>
				<path fill="#005A8B" d="M48.7,3.7l-0.2,0.1c1.3,0.7,2.7,1.2,4.2,1.7c-0.1-0.3-0.2-1.8-0.3-3.7c-1.3-0.3-2.7-0.7-4.1-1.3
					C48.5,2.3,48.7,3.7,48.7,3.7z"/>
			</g>
			<g>
				<path fill="#005A8B" d="M43.9-5.6c-0.1,1.4,0.1,2.7,0.3,4.1l0.1-0.2c1.3,0.6,2.5,1.1,3.6,1.5c-0.1-1.1-0.2-2.4-0.2-3.7
					C46.4-4.3,45.1-4.9,43.9-5.6z"/>
			</g>
			<g>
				<path fill="#005A8B" d="M52.3-2.4c-1.4-0.3-2.8-0.7-4.3-1.3c0,1.3,0.1,2.6,0.2,3.7c1.4,0.5,2.8,0.9,4.1,1.3
					C52.3,0.1,52.3-1.1,52.3-2.4z"/>
			</g>
			<g>
				<path fill="#005A8B" d="M47.9-0.2c0,0.1,0,0.3,0.1,0.4c0.1,0.1,0.2,0.1,0.4,0.1c0-0.1,0-0.3-0.1-0.4C48.1,0,48-0.1,47.9-0.2z"/>
			</g>
			<g>
				<path fill="#005A8B" d="M45,1.6c1,0.7,2.2,1.4,3.3,2c-0.1-0.4-0.3-1.7-0.4-3.3c-1.2-0.5-2.5-1-3.7-1.6C44.4-0.3,44.7,0.6,45,1.6
					z"/>
			</g>
			<g>
				<path fill="#005A8B" d="M52.4,1.3c0,0.1,0,0.3,0,0.4c0.1,0.1,0.2,0.1,0.4,0.1c0-0.1,0-0.2,0-0.4C52.7,1.3,52.5,1.3,52.4,1.3z"/>
			</g>
			<g>
				<path fill="#005A8B" d="M81.8-7c0.1,0.2,0.1,0.3,0.1,0.4c0.1-0.1,0.2-0.2,0.3-0.3c-0.1-0.1-0.1-0.3-0.1-0.4
					C81.9-7.3,81.8-7.1,81.8-7z"/>
			</g>
			<g>
				<path fill="#005A8B" d="M72.7-0.3c0.6,1.7,1.1,3.1,1.1,3.4c0.6-0.3,1.1-0.7,1.7-1c0.6-0.4,1.2-0.8,1.8-1.3l-0.2,0.1
					c0-0.1-0.4-1.4-1-3C75.2-1.5,74.2-1,73-0.4C73-0.4,72.9-0.3,72.7-0.3z"/>
			</g>
			<g>
				<path fill="#005A8B" d="M66.1-6.4c0.2,0.6,0.6,1.9,1,3.4c1.3-0.3,2.5-0.8,3.7-1.2c-0.6-1.4-1.1-2.4-1.5-2.7l0.2-0.3
					c0.4,0.3,1,1.5,1.6,2.9c0.1-0.1,0.2-0.1,0.2-0.1c1.1-0.5,2.2-1,3.1-1.5c-0.5-1-1.1-1.9-1.7-2.5l0.1-0.1
					C70.8-7.7,68.5-6.9,66.1-6.4z"/>
			</g>
			<g>
				<path fill="#005A8B" d="M52.9-6.7l0.3,0.1c-0.3,1-0.5,2.5-0.5,4C54.4-2.3,55.9-2,57.5-2c-0.2-1.9-0.3-3.5-0.3-4h0.2
					c-3.1-0.4-6.1-1.3-8.8-2.6c-0.3,1.4-0.5,3-0.5,4.6c1.4,0.6,2.9,1,4.3,1.3C52.4-4.2,52.6-5.7,52.9-6.7z"/>
			</g>
			<g>
				<path fill="#005A8B" d="M79.8-4.7c0.4,1.3,0.7,2.3,0.8,2.7c0.7-0.7,1.3-1.4,1.9-2.2l-0.2,0.1c0,0-0.2-1-0.5-2.3
					C81.3-6.1,80.6-5.4,79.8-4.7z"/>
			</g>
			<g>
				<path fill="#005A8B" d="M82.2-6.9c0.3,1.1,0.5,2.1,0.5,2.4c0.4-0.5,0.7-1,1.1-1.5c-0.1-0.8-0.1-1.5-0.2-2.3
					C83.3-8.1,82.8-7.6,82.2-6.9z"/>
			</g>
			<g>
				<path fill="#005A8B" d="M83.4-8.6c-0.2-1-0.4-1.9-0.7-2.9c-0.2,0.2-0.7,0.7-1.5,1.3c0.3,0.9,0.6,1.9,0.8,2.9
					c0.8-0.9,1.3-1.4,1.3-1.4L83.4-8.6z"/>
			</g>
			<g>
				<path fill="#005A8B" d="M43.9-6c1.3,0.7,2.5,1.3,3.8,1.8c0-1.6,0.1-3.2,0.5-4.5l0.2,0.1c-1.3-0.6-2.5-1.4-3.7-2.2
					c-0.4,1.3-0.7,2.7-0.8,4.1c0,0.3-0.1,0.6-0.1,0.9L43.9-6z"/>
			</g>
			<g>
				<path fill="#005A8B" d="M57.8-2c1.4,0.1,2.7,0,4-0.1c-0.3-1.7-0.6-3.1-0.8-3.7l0.2-0.1c-0.9,0-1.9,0-2.9-0.1
					c-0.3,0-0.6-0.1-0.9-0.1C57.6-5.4,57.7-3.8,57.8-2z"/>
			</g>
			<g>
				<path fill="#005A8B" d="M81.1-10.5c0.9-0.8,1.4-1.3,1.4-1.3l0.1,0.1c-0.4-1.1-0.9-2.1-1.5-3.1c-0.5,0.6-1,1.1-1.6,1.5
					C80.2-12.6,80.7-11.7,81.1-10.5z"/>
			</g>
			<g>
				<path fill="#005A8B" d="M78.4-8.5c0.9-0.7,1.7-1.3,2.3-1.8c-0.4-1.1-0.9-2.1-1.4-2.7l0.2-0.2c-0.9,0.8-1.8,1.5-2.7,2.2
					C77.3-10.6,77.9-9.6,78.4-8.5z"/>
			</g>
			<g>
				<path fill="#005A8B" d="M61.4-5.9c0.1,0.6,0.5,2.1,0.8,3.7c1.6-0.2,3.1-0.5,4.5-0.8c-0.4-1.5-0.7-2.7-0.9-3.4L66-6.5
					C64.4-6.1,62.9-5.9,61.4-5.9z"/>
			</g>
			<g>
				<path fill="#005A8B" d="M74.8-6.2c1.2-0.7,2.3-1.4,3.3-2.1c-0.5-1.1-1-2.1-1.5-2.5l0.1-0.2c-1.1,0.8-2.3,1.5-3.6,2.1
					C73.7-8.2,74.3-7.3,74.8-6.2z"/>
			</g>
			<g>
				<path fill="#005A8B" d="M78.3-7.9c-1,0.7-2.1,1.4-3.3,2.1c0.5,1,1,2.1,1.4,3.1c1.1-0.7,2.1-1.5,3-2.2
					C79.1-5.9,78.7-6.9,78.3-7.9z"/>
			</g>
			<g>
				<path fill="#005A8B" d="M76-2.5c0.1,0.1,0.1,0.2,0.1,0.3c0.1-0.1,0.2-0.1,0.3-0.2c-0.1-0.1-0.1-0.2-0.1-0.3
					C76.3-2.6,76.1-2.6,76-2.5z"/>
			</g>
			<g>
				<path fill="#005A8B" d="M79.4-4.9c0.1,0.1,0.1,0.2,0.1,0.4c0.1-0.1,0.2-0.2,0.3-0.2c-0.1-0.1-0.1-0.2-0.1-0.4
					C79.6-5.1,79.5-5,79.4-4.9z"/>
			</g>
			<g>
				<path fill="#005A8B" d="M81.8-7c-0.2-0.9-0.5-1.9-0.8-2.9c-0.6,0.5-1.4,1.1-2.3,1.8c0.4,1,0.8,2,1.1,3C80.5-5.8,81.2-6.5,81.8-7
					z"/>
			</g>
		</g>
		<g>
			<path fill="#005A8B" d="M64,12.1c-5.8,0-11.2-2.9-14.4-7.7l0.2-0.1c3.1,4.8,8.4,7.6,14.2,7.6c4.1,0,8-1.4,11.1-4.1
				c3-2.6,5-6.2,5.7-10.1l0.2,0.1c-0.6,4-2.7,7.6-5.8,10.3C72.2,10.7,68.2,12.1,64,12.1z"/>
		</g>
		<g>
			<path fill="#005A8B" d="M47.6-9.1l-0.2-0.1c1.9-7.7,8.8-13.2,16.8-13.2c6.4,0,12.2,3.5,15.3,9.1l-0.2,0.1c-3-5.6-8.7-9-15-9
				C56.2-22.2,49.4-16.8,47.6-9.1z"/>
		</g>
		<g>
			<path fill="#005A8B" d="M64,8.8c-2.9,0-5.6-0.9-8-2.5l0.1-0.2c2.3,1.6,5,2.5,7.8,2.5c4.8,0,9.3-2.6,11.7-6.6L75.9,2
				C73.6,6.2,69,8.8,64,8.8z"/>
		</g>
		<g>
			<path fill="#005A8B" d="M50.7-7.9h-0.2c1.3-6.4,7-11.1,13.7-11.1c5.4,0,10.4,3.2,12.7,8.1l-0.3,0.1c-2.2-4.9-7.1-8-12.4-8
				C57.6-18.8,51.9-14.2,50.7-7.9z"/>
		</g>
		<g>
			<path fill="#005A8B" d="M54.5-5.5h-0.2c0-0.6,0.1-0.7,0.1-1.3c0.7-4.8,4.9-8.2,9.7-8.2c4,0,7.6,2.5,9.1,6.2l-0.2,0.1
				c-1.5-3.7-4.9-6-8.9-6c-4.7,0-8.8,3.3-9.4,8C54.5-6.3,54.5-6.1,54.5-5.5z"/>
		</g>
		<g>
			<path fill="#005A8B" d="M58.7-5.5h-0.2c0,0,0-0.2,0.1-0.5c0.4-2.6,2.7-4.5,5.3-4.5c2.2,0,4.2,1.4,5,3.4L68.8-7
				c-0.8-1.9-2.7-3.2-4.8-3.2c-2.5,0-4.8,1.6-5.1,4.1C58.7-5.8,58.7-5.5,58.7-5.5z"/>
		</g>
		<g>
			<g>
				<rect x="64.1" y="-25.4" fill="#005A8B" width="0" height="21.5"/>
				<rect x="64" y="-25.4" fill="#005A8B" width="0.2" height="21.5"/>
			</g>
		</g>
		<g>
			<g>
				<rect x="64.1" y="5.3" fill="#005A8B" width="0" height="9.1"/>
				<rect x="64" y="5.3" fill="#005A8B" width="0.2" height="9.1"/>
			</g>
		</g>
	</g>
	<g>
		<g>
			<polygon fill="#005A8B" points="37,23.4 89.8,23.4 89.8,23.4 			"/>
			<rect x="36.6" y="22.6" fill="#005A8B" width="53.5" height="1.1"/>
		</g>
	</g>
	<g>
		<g>
			<polygon fill="#005A8B" points="37,27.2 89.8,27.2 89.8,27.2 			"/>
			<rect x="36.6" y="26.6" fill="#005A8B" width="53.5" height="1.1"/>
		</g>
	</g>
	<g>
		<g>
			<polygon fill="#005A8B" points="36.8,31.3 89.9,31.3 89.9,31.3 			"/>
			<rect x="36.6" y="30.7" fill="#005A8B" width="53.5" height="1.1"/>
		</g>
	</g>
	<path fill="#005A8B" d="M99.8-44.4l-10.3-9.3H28l0,0l0,0v95.4h71.5l0,0h0.4v-86H99.8z M98.7-43.3v80.7l0,0v2.8H29.1v-92.5h3.8l0,0
		h55.4v8.6L98.7-43.3z"/>
	<polygon fill="#005A8B" points="106.1,-58.4 32,-58.4 32,-55.6 90.8,-55.6 101.6,-45.9 101.6,39.3 106.1,39.3 	"/>
</g>
</svg>
