<?xml version="1.0" encoding="utf-8"?>
<!-- Generator: Adobe Illustrator 18.1.1, SVG Export Plug-In . SVG Version: 6.00 Build 0)  -->
<svg version="1.1" id="Layer_1" xmlns="http://www.w3.org/2000/svg" xmlns:xlink="http://www.w3.org/1999/xlink" x="0px" y="0px"
	 viewBox="2.8 -34 128.5 100" enable-background="new 2.8 -34 128.5 100" xml:space="preserve">
<g>
	<polygon fill="none" points="93.3,65 130.3,65 111.8,46.5 	"/>
	<polygon fill="none" points="3.5,65 3.5,65 40.4,65 22,46.6 	"/>
	<polygon fill="#005A8B" points="130.4,64.7 130.7,65 130.7,-24.7 130.4,-24.4 	"/>
	<polygon fill="#005A8B" points="93.3,7.8 93,8 93,65 93.3,64.7 	"/>
	<polygon fill="#005A8B" points="3.5,-24.5 3.2,-24.8 3.2,64.9 3.5,64.6 	"/>
	<polygon fill="#005A8B" points="3.5,65 3.5,65 3.5,65 	"/>
	<polygon fill="#005A8B" points="130.3,65 93.3,65 93.3,65.1 93.3,65.4 130.4,65.4 130.4,65.1 	"/>
	<polygon fill="#005A8B" points="130.4,65.1 130.4,65.4 130.6,65.4 	"/>
	<polygon fill="#005A8B" points="93,65.4 93.3,65.4 93.3,65.1 	"/>
	<polygon fill="#005A8B" points="3.5,65 3.5,65.4 40.7,65.4 40.4,65 	"/>
	<polygon fill="#005A8B" points="3.2,65.4 3.2,65.4 3.2,65.3 	"/>
	<polygon fill="#005A8B" points="3.5,65 3.2,65.3 3.2,65.4 3.5,65.4 3.5,65 	"/>
	<polygon fill="#005A8B" points="93,65 92.9,65 93,65 	"/>
	<polygon fill="#005A8B" points="111.6,46.3 93.3,64.7 93.3,65 93.3,65 111.8,46.5 	"/>
	<polygon fill="#005A8B" points="93.3,65 93.3,64.7 93,65 93,65 	"/>
	<polygon fill="#005A8B" points="93,65.4 93,65.4 93,65.4 	"/>
	<polygon fill="#005A8B" points="93,65 92.9,65 92.6,65.4 93,65.4 	"/>
	<polygon fill="#005A8B" points="93.3,65.1 93.3,65 93.3,65 	"/>
	<polygon fill="#005A8B" points="93,65 93,65.4 93,65.4 93.3,65.1 93.3,65 	"/>
	<polygon fill="#005A8B" points="130.4,-24.4 130.4,-25 93.3,7.3 93.3,7.8 	"/>
	<polygon fill="#005A8B" points="93.3,7.3 93,7.6 93,8 93.3,7.8 	"/>
	<g>
		<polygon fill="none" points="93.4,7.4 93.4,64.6 130.1,64.6 130.1,-23.8 5,-23.8 41,7.4 		"/>
		<polygon fill="none" points="4,-23.8 4,64.6 40.6,64.6 40.6,7.7 4.4,-23.8 		"/>
		<polygon fill="#005A8B" points="131.3,65.8 131.2,-25 3.5,-25 5,-23.8 130.1,-23.8 130.1,64.6 93.4,64.6 93.4,7.4 41,7.4 
			42.4,8.6 92.2,8.6 92.2,65.8 		"/>
		<polygon fill="#005A8B" points="40.6,64.6 4,64.6 4,-23.8 4.4,-23.8 3.5,-24.5 3.5,-25 2.8,-25 2.8,65.8 41.9,65.8 41.9,8.8 
			40.6,7.7 		"/>
		<polygon fill="#005A8B" points="3.5,-25 3.5,-25 3.5,-25 		"/>
		<polygon fill="#005A8B" points="40.6,7.7 40.6,7.4 41,7.4 5,-23.8 4.4,-23.8 		"/>
		<polygon fill="#005A8B" points="40.6,7.4 40.6,7.7 41.9,8.8 41.9,8.6 42.4,8.6 41,7.4 		"/>
		<polygon fill="#005A8B" points="4.4,-23.8 5,-23.8 3.5,-25 3.5,-25 3.5,-24.5 		"/>
	</g>
	<polygon fill="#005A8B" points="130.8,65 130.7,65 130.7,65 	"/>
	<polygon fill="#005A8B" points="130.4,64.7 112,46.3 111.8,46.5 130.3,65 130.4,65 	"/>
	<polygon fill="#005A8B" points="130.4,65 130.7,65 130.7,65 130.4,64.7 	"/>
	<polygon fill="#005A8B" points="130.6,65.4 130.7,65.4 130.7,65.4 	"/>
	<polygon fill="#005A8B" points="130.3,65 130.4,65.1 130.4,65 	"/>
	<polygon fill="#005A8B" points="130.7,65 130.7,65.4 131.1,65.4 130.8,65 	"/>
	<polygon fill="#005A8B" points="130.4,65.1 130.6,65.4 130.7,65.4 130.7,65 130.4,65 	"/>
	
		<rect x="111.7" y="46.2" transform="matrix(-0.7071 -0.7071 0.7071 -0.7071 158.1333 158.151)" fill="#005A8B" width="0.3" height="0.3"/>
	<polygon fill="#005A8B" points="22,46.6 21.7,46.4 3.5,64.6 3.5,65 	"/>
	<polygon fill="#005A8B" points="3.2,64.9 3,65 3.2,65 	"/>
	<polygon fill="#005A8B" points="3.5,65 3.5,65 3.5,64.6 3.2,64.9 3.2,65 	"/>
	<polygon fill="#005A8B" points="3.2,65 3,65 2.7,65.4 3.2,65.4 3.2,65.3 	"/>
	<polygon fill="#005A8B" points="3.2,65.3 3.5,65 3.2,65 	"/>
	<polygon fill="#005A8B" points="40.4,65 40.9,65 22.2,46.4 22,46.6 	"/>
	<polygon fill="#005A8B" points="40.4,65 40.7,65.4 41.2,65.4 40.9,65 	"/>
	
		<rect x="21.8" y="46.2" transform="matrix(0.7071 0.7071 -0.7071 0.7071 39.2074 -1.9536)" fill="#005A8B" width="0.3" height="0.3"/>
	<g>
		<rect x="21.6" y="-9" fill="#005A8B" width="90.2" height="0.3"/>
	</g>
	<g>
		<g>
			<rect x="13" y="22.3" fill="#005A8B" width="2" height="3.8"/>
		</g>
		<g>
			<polygon fill="#005A8B" points="19.9,43.6 19.9,47.4 20.7,47.4 21.9,46.2 21.9,43.6 			"/>
		</g>
		<g>
			<rect x="10.7" y="26.4" fill="#005A8B" width="2" height="3.8"/>
		</g>
		<g>
			<rect x="3.7" y="-20.4" fill="#005A8B" width="2" height="3.8"/>
		</g>
		<g>
			<rect x="13" y="13.7" fill="#005A8B" width="2" height="3.8"/>
		</g>
		<g>
			<rect x="13" y="9.5" fill="#005A8B" width="2" height="3.8"/>
		</g>
		<g>
			<rect x="13" y="18" fill="#005A8B" width="2" height="3.8"/>
		</g>
		<g>
			<polygon fill="#005A8B" points="17.6,-11.8 17.6,-8 19.5,-8 19.5,-11.3 19,-11.8 			"/>
		</g>
		<g>
			<rect x="13" y="26.4" fill="#005A8B" width="2" height="3.8"/>
		</g>
		<g>
			<rect x="10.7" y="43.6" fill="#005A8B" width="2" height="3.8"/>
		</g>
		<g>
			<rect x="3.7" y="-3.4" fill="#005A8B" width="2" height="3.8"/>
		</g>
		<g>
			<rect x="10.7" y="35" fill="#005A8B" width="2" height="3.8"/>
		</g>
		<g>
			<rect x="10.7" y="30.7" fill="#005A8B" width="2" height="3.8"/>
		</g>
		<g>
			<rect x="3.7" y="0.9" fill="#005A8B" width="2" height="3.8"/>
		</g>
		<g>
			<rect x="10.7" y="39.3" fill="#005A8B" width="2" height="3.8"/>
		</g>
		<g>
			<rect x="3.7" y="-7.6" fill="#005A8B" width="2" height="3.8"/>
		</g>
		<g>
			<rect x="3.7" y="-11.8" fill="#005A8B" width="2" height="3.8"/>
		</g>
		<g>
			<rect x="17.6" y="-7.6" fill="#005A8B" width="2" height="3.8"/>
		</g>
		<g>
			<rect x="3.7" y="-16.1" fill="#005A8B" width="2" height="3.8"/>
		</g>
		<g>
			<polygon fill="#005A8B" points="8,-20.8 8,-21.1 6,-22.7 6,-20.8 			"/>
		</g>
		<g>
			<polygon fill="#005A8B" points="10.3,-16.5 10.3,-19.2 8.7,-20.4 8.3,-20.4 8.3,-16.5 			"/>
		</g>
		<g>
			<rect x="17.6" y="39.3" fill="#005A8B" width="2" height="3.8"/>
		</g>
		<g>
			<rect x="6" y="-20.4" fill="#005A8B" width="2" height="3.8"/>
		</g>
		<g>
			<rect x="6" y="56.3" fill="#005A8B" width="2" height="3.8"/>
		</g>
		<g>
			<rect x="13" y="-7.6" fill="#005A8B" width="2" height="3.8"/>
		</g>
		<g>
			<rect x="13" y="35" fill="#005A8B" width="2" height="3.8"/>
		</g>
		<g>
			<polygon fill="#005A8B" points="19.9,-8 21.9,-8 21.9,-9.3 19.9,-11 			"/>
		</g>
		<g>
			<rect x="13" y="-3.4" fill="#005A8B" width="2" height="3.8"/>
		</g>
		<g>
			<rect x="13" y="0.9" fill="#005A8B" width="2" height="3.8"/>
		</g>
		<g>
			<rect x="13" y="30.7" fill="#005A8B" width="2" height="3.8"/>
		</g>
		<g>
			<polygon fill="#005A8B" points="17.6,50.5 19.5,48.5 19.5,47.7 17.6,47.7 			"/>
		</g>
		<g>
			<rect x="13" y="5.2" fill="#005A8B" width="2" height="3.8"/>
		</g>
		<g>
			<rect x="17.6" y="43.6" fill="#005A8B" width="2" height="3.8"/>
		</g>
		<g>
			<rect x="10.7" y="-11.8" fill="#005A8B" width="2" height="3.8"/>
		</g>
		<g>
			<rect x="10.7" y="47.7" fill="#005A8B" width="2" height="3.8"/>
		</g>
		<g>
			<rect x="13" y="39.3" fill="#005A8B" width="2" height="3.8"/>
		</g>
		<g>
			<rect x="13" y="43.6" fill="#005A8B" width="2" height="3.8"/>
		</g>
		<g>
			<rect x="13" y="47.7" fill="#005A8B" width="2" height="3.8"/>
		</g>
		<g>
			<rect x="10.7" y="0.9" fill="#005A8B" width="2" height="3.8"/>
		</g>
		<g>
			<rect x="19.9" y="22.3" fill="#005A8B" width="2" height="3.8"/>
		</g>
		<g>
			<rect x="19.9" y="18" fill="#005A8B" width="2" height="3.8"/>
		</g>
		<g>
			<rect x="19.9" y="9.5" fill="#005A8B" width="2" height="3.8"/>
		</g>
		<g>
			<rect x="19.9" y="13.7" fill="#005A8B" width="2" height="3.8"/>
		</g>
		<g>
			<polygon fill="#005A8B" points="6,62.1 7.7,60.4 6,60.4 			"/>
		</g>
		<g>
			<polygon fill="#005A8B" points="19.9,48.2 20.2,47.7 19.9,47.7 			"/>
		</g>
		<g>
			<rect x="3.7" y="5.2" fill="#005A8B" width="2" height="3.8"/>
		</g>
		<g>
			<rect x="19.9" y="35" fill="#005A8B" width="2" height="3.8"/>
		</g>
		<g>
			<rect x="19.9" y="30.7" fill="#005A8B" width="2" height="3.8"/>
		</g>
		<g>
			<rect x="19.9" y="26.4" fill="#005A8B" width="2" height="3.8"/>
		</g>
		<g>
			<rect x="10.7" y="-3.4" fill="#005A8B" width="2" height="3.8"/>
		</g>
		<g>
			<rect x="13" y="-11.8" fill="#005A8B" width="2" height="3.8"/>
		</g>
		<g>
			<rect x="10.7" y="-7.6" fill="#005A8B" width="2" height="3.8"/>
		</g>
		<g>
			<polygon fill="#005A8B" points="3.7,-20.8 5.7,-20.8 5.7,-23 3.8,-24.7 3.7,-24.7 			"/>
		</g>
		<g>
			<rect x="19.9" y="-3.4" fill="#005A8B" width="2" height="3.8"/>
		</g>
		<g>
			<rect x="19.9" y="-7.6" fill="#005A8B" width="2" height="3.8"/>
		</g>
		<g>
			<rect x="19.9" y="0.9" fill="#005A8B" width="2" height="3.8"/>
		</g>
		<g>
			<rect x="19.9" y="5.2" fill="#005A8B" width="2" height="3.8"/>
		</g>
		<g>
			<rect x="19.9" y="39.3" fill="#005A8B" width="2" height="3.8"/>
		</g>
		<g>
			<rect x="10.7" y="9.5" fill="#005A8B" width="2" height="3.8"/>
		</g>
		<g>
			<rect x="3.7" y="18" fill="#005A8B" width="2" height="3.8"/>
		</g>
		<g>
			<rect x="3.7" y="22.3" fill="#005A8B" width="2" height="3.8"/>
		</g>
		<g>
			<rect x="10.7" y="13.7" fill="#005A8B" width="2" height="3.8"/>
		</g>
		<g>
			<rect x="3.7" y="13.7" fill="#005A8B" width="2" height="3.8"/>
		</g>
		<g>
			<rect x="10.7" y="22.3" fill="#005A8B" width="2" height="3.8"/>
		</g>
		<g>
			<rect x="3.7" y="9.5" fill="#005A8B" width="2" height="3.8"/>
		</g>
		<g>
			<rect x="10.7" y="18" fill="#005A8B" width="2" height="3.8"/>
		</g>
		<g>
			<rect x="10.7" y="5.2" fill="#005A8B" width="2" height="3.8"/>
		</g>
		<g>
			<polygon fill="#005A8B" points="5.7,60.4 3.7,60.4 3.7,64.4 3.7,64.4 5.7,62.4 			"/>
		</g>
		<g>
			<rect x="3.7" y="43.6" fill="#005A8B" width="2" height="3.8"/>
		</g>
		<g>
			<rect x="3.7" y="47.7" fill="#005A8B" width="2" height="3.8"/>
		</g>
		<g>
			<rect x="3.7" y="56.3" fill="#005A8B" width="2" height="3.8"/>
		</g>
		<g>
			<rect x="3.7" y="52" fill="#005A8B" width="2" height="3.8"/>
		</g>
		<g>
			<rect x="3.7" y="39.3" fill="#005A8B" width="2" height="3.8"/>
		</g>
		<g>
			<rect x="3.7" y="26.4" fill="#005A8B" width="2" height="3.8"/>
		</g>
		<g>
			<rect x="3.7" y="35" fill="#005A8B" width="2" height="3.8"/>
		</g>
		<g>
			<rect x="3.7" y="30.7" fill="#005A8B" width="2" height="3.8"/>
		</g>
		<g>
			<rect x="6" y="26.4" fill="#005A8B" width="2" height="3.8"/>
		</g>
		<g>
			<rect x="15.3" y="43.6" fill="#005A8B" width="2" height="3.8"/>
		</g>
		<g>
			<rect x="15.3" y="39.3" fill="#005A8B" width="2" height="3.8"/>
		</g>
		<g>
			<rect x="15.3" y="-3.4" fill="#005A8B" width="2" height="3.8"/>
		</g>
		<g>
			<polygon fill="#005A8B" points="15.3,51.7 16.4,51.7 17.2,50.8 17.2,47.7 15.3,47.7 			"/>
		</g>
		<g>
			<rect x="15.3" y="35" fill="#005A8B" width="2" height="3.8"/>
		</g>
		<g>
			<rect x="8.3" y="13.7" fill="#005A8B" width="2" height="3.8"/>
		</g>
		<g>
			<rect x="15.3" y="-7.6" fill="#005A8B" width="2" height="3.8"/>
		</g>
		<g>
			<polygon fill="#005A8B" points="12.6,52 10.7,52 10.7,55.8 12.3,55.8 12.6,55.5 			"/>
		</g>
		<g>
			<rect x="8.3" y="18" fill="#005A8B" width="2" height="3.8"/>
		</g>
		<g>
			<rect x="8.3" y="9.5" fill="#005A8B" width="2" height="3.8"/>
		</g>
		<g>
			<rect x="8.3" y="5.2" fill="#005A8B" width="2" height="3.8"/>
		</g>
		<g>
			<rect x="6" y="0.9" fill="#005A8B" width="2" height="3.8"/>
		</g>
		<g>
			<rect x="6" y="-16.1" fill="#005A8B" width="2" height="3.8"/>
		</g>
		<g>
			<rect x="6" y="-7.6" fill="#005A8B" width="2" height="3.8"/>
		</g>
		<g>
			<rect x="6" y="-3.4" fill="#005A8B" width="2" height="3.8"/>
		</g>
		<g>
			<rect x="6" y="-11.8" fill="#005A8B" width="2" height="3.8"/>
		</g>
		<g>
			<rect x="8.3" y="0.9" fill="#005A8B" width="2" height="3.8"/>
		</g>
		<g>
			<polygon fill="#005A8B" points="15.3,-12.3 17.2,-12.3 17.2,-13.3 15.3,-14.9 			"/>
		</g>
		<g>
			<polygon fill="#005A8B" points="12.6,-16.5 12.6,-17.2 10.7,-18.8 10.7,-16.5 			"/>
		</g>
		<g>
			<polygon fill="#005A8B" points="13.5,-16.5 13,-16.9 13,-16.5 			"/>
		</g>
		<g>
			<rect x="15.3" y="-11.8" fill="#005A8B" width="2" height="3.8"/>
		</g>
		<g>
			<polygon fill="#005A8B" points="13,52 13,55.1 15,53.1 15,52 			"/>
		</g>
		<g>
			<polygon fill="#005A8B" points="15.3,52.8 16.1,52 15.3,52 			"/>
		</g>
		<g>
			<rect x="8.3" y="52" fill="#005A8B" width="2" height="3.8"/>
		</g>
		<g>
			<rect x="8.3" y="47.7" fill="#005A8B" width="2" height="3.8"/>
		</g>
		<g>
			<rect x="15.3" y="26.4" fill="#005A8B" width="2" height="3.8"/>
		</g>
		<g>
			<rect x="8.3" y="-11.8" fill="#005A8B" width="2" height="3.8"/>
		</g>
		<g>
			<rect x="8.3" y="30.7" fill="#005A8B" width="2" height="3.8"/>
		</g>
		<g>
			<rect x="8.3" y="43.6" fill="#005A8B" width="2" height="3.8"/>
		</g>
		<g>
			<rect x="8.3" y="35" fill="#005A8B" width="2" height="3.8"/>
		</g>
		<g>
			<rect x="8.3" y="39.3" fill="#005A8B" width="2" height="3.8"/>
		</g>
		<g>
			<rect x="15.3" y="30.7" fill="#005A8B" width="2" height="3.8"/>
		</g>
		<g>
			<polygon fill="#005A8B" points="15,-12.3 15,-15.3 14,-16.1 13,-16.1 13,-12.3 			"/>
		</g>
		<g>
			<rect x="10.7" y="-16.1" fill="#005A8B" width="2" height="3.8"/>
		</g>
		<g>
			<rect x="8.3" y="-16.1" fill="#005A8B" width="2" height="3.8"/>
		</g>
		<g>
			<rect x="15.3" y="18" fill="#005A8B" width="2" height="3.8"/>
		</g>
		<g>
			<rect x="8.3" y="22.3" fill="#005A8B" width="2" height="3.8"/>
		</g>
		<g>
			<rect x="15.3" y="9.5" fill="#005A8B" width="2" height="3.8"/>
		</g>
		<g>
			<rect x="15.3" y="0.9" fill="#005A8B" width="2" height="3.8"/>
		</g>
		<g>
			<rect x="15.3" y="13.7" fill="#005A8B" width="2" height="3.8"/>
		</g>
		<g>
			<rect x="15.3" y="5.2" fill="#005A8B" width="2" height="3.8"/>
		</g>
		<g>
			<rect x="15.3" y="22.3" fill="#005A8B" width="2" height="3.8"/>
		</g>
		<g>
			<rect x="17.6" y="26.4" fill="#005A8B" width="2" height="3.8"/>
		</g>
		<g>
			<rect x="17.6" y="22.3" fill="#005A8B" width="2" height="3.8"/>
		</g>
		<g>
			<rect x="17.6" y="30.7" fill="#005A8B" width="2" height="3.8"/>
		</g>
		<g>
			<polygon fill="#005A8B" points="8.3,56.3 8.3,59.8 10.3,57.8 10.3,56.3 			"/>
		</g>
		<g>
			<rect x="17.6" y="35" fill="#005A8B" width="2" height="3.8"/>
		</g>
		<g>
			<rect x="17.6" y="18" fill="#005A8B" width="2" height="3.8"/>
		</g>
		<g>
			<polygon fill="#005A8B" points="10.7,57.4 11.8,56.3 10.7,56.3 			"/>
		</g>
		<g>
			<rect x="17.6" y="9.5" fill="#005A8B" width="2" height="3.8"/>
		</g>
		<g>
			<rect x="8.3" y="-3.4" fill="#005A8B" width="2" height="3.8"/>
		</g>
		<g>
			<rect x="17.6" y="-3.4" fill="#005A8B" width="2" height="3.8"/>
		</g>
		<g>
			<rect x="17.6" y="0.9" fill="#005A8B" width="2" height="3.8"/>
		</g>
		<g>
			<rect x="17.6" y="5.2" fill="#005A8B" width="2" height="3.8"/>
		</g>
		<g>
			<rect x="17.6" y="13.7" fill="#005A8B" width="2" height="3.8"/>
		</g>
		<g>
			<rect x="6" y="5.2" fill="#005A8B" width="2" height="3.8"/>
		</g>
		<g>
			<polygon fill="#005A8B" points="18.6,-12.3 17.6,-12.9 17.6,-12.3 			"/>
		</g>
		<g>
			<rect x="6" y="30.7" fill="#005A8B" width="2" height="3.8"/>
		</g>
		<g>
			<rect x="6" y="35" fill="#005A8B" width="2" height="3.8"/>
		</g>
		<g>
			<rect x="6" y="22.3" fill="#005A8B" width="2" height="3.8"/>
		</g>
		<g>
			<rect x="6" y="9.5" fill="#005A8B" width="2" height="3.8"/>
		</g>
		<g>
			<rect x="6" y="39.3" fill="#005A8B" width="2" height="3.8"/>
		</g>
		<g>
			<rect x="6" y="13.7" fill="#005A8B" width="2" height="3.8"/>
		</g>
		<g>
			<rect x="6" y="18" fill="#005A8B" width="2" height="3.8"/>
		</g>
		<g>
			<rect x="8.3" y="26.4" fill="#005A8B" width="2" height="3.8"/>
		</g>
		<g>
			<rect x="8.3" y="-7.6" fill="#005A8B" width="2" height="3.8"/>
		</g>
		<g>
			<rect x="6" y="52" fill="#005A8B" width="2" height="3.8"/>
		</g>
		<g>
			<rect x="6" y="43.6" fill="#005A8B" width="2" height="3.8"/>
		</g>
		<g>
			<rect x="6" y="47.7" fill="#005A8B" width="2" height="3.8"/>
		</g>
		<g>
			<polygon fill="#005A8B" points="3.8,-24.7 3.7,-24.7 3.7,-24.7 			"/>
		</g>
		<g>
			<path fill="#005A8B" d="M3.7,64.4L3.7,64.4L3.7,64.4z"/>
		</g>
		<g>
			<path fill="#005A8B" d="M8,60.1L8,60.1L8,60.1z"/>
		</g>
	</g>
	<g>
		<g>
			<rect x="107.2" y="33.3" fill="#005A8B" width="2" height="3.2"/>
		</g>
		<g>
			<polygon fill="#005A8B" points="97.9,60 99.7,58.1 97.9,58.1 			"/>
		</g>
		<g>
			<polygon fill="#005A8B" points="95.4,62.4 96.2,61.7 95.4,61.7 			"/>
		</g>
		<g>
			<rect x="107.2" y="29.8" fill="#005A8B" width="2" height="3.2"/>
		</g>
		<g>
			<rect x="109.5" y="33.3" fill="#005A8B" width="2" height="3.2"/>
		</g>
		<g>
			<rect x="107.2" y="36.8" fill="#005A8B" width="2" height="3.2"/>
		</g>
		<g>
			<rect x="93.1" y="51.1" fill="#005A8B" width="2" height="3.2"/>
		</g>
		<g>
			<rect x="93.1" y="54.6" fill="#005A8B" width="2" height="3.2"/>
		</g>
		<g>
			<rect x="93.1" y="58.1" fill="#005A8B" width="2" height="3.2"/>
		</g>
		<g>
			<rect x="109.5" y="26.4" fill="#005A8B" width="2" height="3.2"/>
		</g>
		<g>
			<rect x="109.5" y="22.9" fill="#005A8B" width="2" height="3.2"/>
		</g>
		<g>
			<rect x="107.2" y="22.9" fill="#005A8B" width="2" height="3.2"/>
		</g>
		<g>
			<polygon fill="#005A8B" points="109.5,44 109.5,47.1 110.8,47.1 111.5,46.3 111.5,44 			"/>
		</g>
		<g>
			<rect x="107.2" y="26.4" fill="#005A8B" width="2" height="3.2"/>
		</g>
		<g>
			<rect x="107.2" y="19.2" fill="#005A8B" width="2" height="3.2"/>
		</g>
		<g>
			<rect x="107.2" y="15.7" fill="#005A8B" width="2" height="3.2"/>
		</g>
		<g>
			<rect x="109.5" y="29.8" fill="#005A8B" width="2" height="3.2"/>
		</g>
		<g>
			<rect x="95.4" y="19.2" fill="#005A8B" width="2" height="3.2"/>
		</g>
		<g>
			<rect x="95.4" y="22.9" fill="#005A8B" width="2" height="3.2"/>
		</g>
		<g>
			<rect x="95.4" y="29.8" fill="#005A8B" width="2" height="3.2"/>
		</g>
		<g>
			<rect x="95.4" y="26.4" fill="#005A8B" width="2" height="3.2"/>
		</g>
		<g>
			<rect x="95.4" y="54.6" fill="#005A8B" width="2" height="3.2"/>
		</g>
		<g>
			<polygon fill="#005A8B" points="97.4,3.7 96.5,4.8 97.4,4.8 			"/>
		</g>
		<g>
			<rect x="95.4" y="12.1" fill="#005A8B" width="2" height="3.2"/>
		</g>
		<g>
			<rect x="109.5" y="36.8" fill="#005A8B" width="2" height="3.2"/>
		</g>
		<g>
			<rect x="95.4" y="15.7" fill="#005A8B" width="2" height="3.2"/>
		</g>
		<g>
			<rect x="95.4" y="51.1" fill="#005A8B" width="2" height="3.2"/>
		</g>
		<g>
			<polygon fill="#005A8B" points="109.5,48.3 110.3,47.6 109.5,47.6 			"/>
		</g>
		<g>
			<rect x="95.4" y="47.6" fill="#005A8B" width="2" height="3.2"/>
		</g>
		<g>
			<rect x="95.4" y="36.8" fill="#005A8B" width="2" height="3.2"/>
		</g>
		<g>
			<rect x="95.4" y="33.3" fill="#005A8B" width="2" height="3.2"/>
		</g>
		<g>
			<rect x="95.4" y="40.5" fill="#005A8B" width="2" height="3.2"/>
		</g>
		<g>
			<rect x="95.4" y="44" fill="#005A8B" width="2" height="3.2"/>
		</g>
		<g>
			<rect x="93.1" y="33.3" fill="#005A8B" width="2" height="3.2"/>
		</g>
		<g>
			<rect x="93.1" y="22.9" fill="#005A8B" width="2" height="3.2"/>
		</g>
		<g>
			<rect x="95.4" y="8.6" fill="#005A8B" width="2" height="3.2"/>
		</g>
		<g>
			<polygon fill="#005A8B" points="97.4,5.1 96,5.1 95.4,5.5 95.4,8.3 97.4,8.3 			"/>
		</g>
		<g>
			<polygon fill="#005A8B" points="97.4,58.1 95.4,58.1 95.4,61.2 96.6,61.2 97.4,60.4 			"/>
		</g>
		<g>
			<rect x="93.1" y="26.4" fill="#005A8B" width="2" height="3.2"/>
		</g>
		<g>
			<path fill="#005A8B" d="M104.5-2.4h-0.2H104.5z"/>
		</g>
		<g>
			<rect x="93.1" y="29.8" fill="#005A8B" width="2" height="3.2"/>
		</g>
		<g>
			<rect x="93.1" y="19.2" fill="#005A8B" width="2" height="3.2"/>
		</g>
		<g>
			<polygon fill="#005A8B" points="107.2,50.6 109.2,48.6 109.2,47.6 107.2,47.6 			"/>
		</g>
		<g>
			<polygon fill="#005A8B" points="107.2,-5 107.2,-2.4 109.2,-2.4 109.2,-5.5 108,-5.5 			"/>
		</g>
		<g>
			<rect x="93.1" y="8.6" fill="#005A8B" width="2" height="3.2"/>
		</g>
		<g>
			<polygon fill="#005A8B" points="95.1,8.3 95.1,5.8 93.1,7.7 93.1,8.3 			"/>
		</g>
		<g>
			<rect x="107.2" y="40.5" fill="#005A8B" width="2" height="3.2"/>
		</g>
		<g>
			<rect x="93.1" y="12.1" fill="#005A8B" width="2" height="3.2"/>
		</g>
		<g>
			<rect x="93.1" y="15.7" fill="#005A8B" width="2" height="3.2"/>
		</g>
		<g>
			<polygon fill="#005A8B" points="95.1,61.7 93.1,61.7 93.1,64.7 93.1,64.7 95.1,62.9 			"/>
		</g>
		<g>
			<rect x="107.2" y="12.1" fill="#005A8B" width="2" height="3.2"/>
		</g>
		<g>
			<rect x="107.2" y="44" fill="#005A8B" width="2" height="3.2"/>
		</g>
		<g>
			<rect x="107.2" y="1.6" fill="#005A8B" width="2" height="3.2"/>
		</g>
		<g>
			<rect x="107.2" y="5.1" fill="#005A8B" width="2" height="3.2"/>
		</g>
		<g>
			<rect x="109.5" y="12.1" fill="#005A8B" width="2" height="3.2"/>
		</g>
		<g>
			<rect x="109.5" y="15.7" fill="#005A8B" width="2" height="3.2"/>
		</g>
		<g>
			<rect x="93.1" y="44" fill="#005A8B" width="2" height="3.2"/>
		</g>
		<g>
			<rect x="107.2" y="8.6" fill="#005A8B" width="2" height="3.2"/>
		</g>
		<g>
			<rect x="109.5" y="19.2" fill="#005A8B" width="2" height="3.2"/>
		</g>
		<g>
			<rect x="93.1" y="47.6" fill="#005A8B" width="2" height="3.2"/>
		</g>
		<g>
			<rect x="93.1" y="40.5" fill="#005A8B" width="2" height="3.2"/>
		</g>
		<g>
			<rect x="109.5" y="-2" fill="#005A8B" width="2" height="3.2"/>
		</g>
		<g>
			<rect x="109.5" y="-5.5" fill="#005A8B" width="2" height="3.2"/>
		</g>
		<g>
			<rect x="93.1" y="36.8" fill="#005A8B" width="2" height="3.2"/>
		</g>
		<g>
			<rect x="109.5" y="1.6" fill="#005A8B" width="2" height="3.2"/>
		</g>
		<g>
			<rect x="109.5" y="8.6" fill="#005A8B" width="2" height="3.2"/>
		</g>
		<g>
			<rect x="109.5" y="5.1" fill="#005A8B" width="2" height="3.2"/>
		</g>
		<g>
			<rect x="107.2" y="-2" fill="#005A8B" width="2" height="3.2"/>
		</g>
		<g>
			<polygon fill="#005A8B" points="109.2,-6.7 108.5,-6 109.2,-6 			"/>
		</g>
		<g>
			<rect x="97.9" y="44" fill="#005A8B" width="2" height="3.2"/>
		</g>
		<g>
			<rect x="97.9" y="40.5" fill="#005A8B" width="2" height="3.2"/>
		</g>
		<g>
			<rect x="97.9" y="47.6" fill="#005A8B" width="2" height="3.2"/>
		</g>
		<g>
			<polygon fill="#005A8B" points="102.5,55.4 103.2,54.6 102.5,54.6 			"/>
		</g>
		<g>
			<polygon fill="#005A8B" points="100.2,54.6 100.2,57.7 102.2,55.7 102.2,54.6 			"/>
		</g>
		<g>
			<rect x="100.2" y="8.6" fill="#005A8B" width="2" height="3.2"/>
		</g>
		<g>
			<rect x="97.9" y="36.8" fill="#005A8B" width="2" height="3.2"/>
		</g>
		<g>
			<rect x="97.9" y="29.8" fill="#005A8B" width="2" height="3.2"/>
		</g>
		<g>
			<rect x="97.9" y="33.3" fill="#005A8B" width="2" height="3.2"/>
		</g>
		<g>
			<rect x="102.5" y="22.9" fill="#005A8B" width="2" height="3.2"/>
		</g>
		<g>
			<rect x="102.5" y="19.2" fill="#005A8B" width="2" height="3.2"/>
		</g>
		<g>
			<rect x="104.9" y="19.2" fill="#005A8B" width="2" height="3.2"/>
		</g>
		<g>
			<rect x="102.5" y="29.8" fill="#005A8B" width="2" height="3.2"/>
		</g>
		<g>
			<rect x="104.9" y="22.9" fill="#005A8B" width="2" height="3.2"/>
		</g>
		<g>
			<rect x="104.9" y="15.7" fill="#005A8B" width="2" height="3.2"/>
		</g>
		<g>
			<rect x="102.5" y="26.4" fill="#005A8B" width="2" height="3.2"/>
		</g>
		<g>
			<polygon fill="#005A8B" points="102.5,51.1 102.5,54.2 103.7,54.2 104.5,53.4 104.5,51.1 			"/>
		</g>
		<g>
			<rect x="104.9" y="33.3" fill="#005A8B" width="2" height="3.2"/>
		</g>
		<g>
			<rect x="104.9" y="26.4" fill="#005A8B" width="2" height="3.2"/>
		</g>
		<g>
			<rect x="104.9" y="29.8" fill="#005A8B" width="2" height="3.2"/>
		</g>
		<g>
			<rect x="102.5" y="44" fill="#005A8B" width="2" height="3.2"/>
		</g>
		<g>
			<rect x="102.5" y="47.6" fill="#005A8B" width="2" height="3.2"/>
		</g>
		<g>
			<rect x="104.9" y="12.1" fill="#005A8B" width="2" height="3.2"/>
		</g>
		<g>
			<rect x="102.5" y="36.8" fill="#005A8B" width="2" height="3.2"/>
		</g>
		<g>
			<rect x="102.5" y="33.3" fill="#005A8B" width="2" height="3.2"/>
		</g>
		<g>
			<rect x="102.5" y="40.5" fill="#005A8B" width="2" height="3.2"/>
		</g>
		<g>
			<rect x="100.2" y="51.1" fill="#005A8B" width="2" height="3.2"/>
		</g>
		<g>
			<rect x="100.2" y="5.1" fill="#005A8B" width="2" height="3.2"/>
		</g>
		<g>
			<rect x="100.2" y="15.7" fill="#005A8B" width="2" height="3.2"/>
		</g>
		<g>
			<rect x="100.2" y="1.6" fill="#005A8B" width="2" height="3.2"/>
		</g>
		<g>
			<rect x="100.2" y="12.1" fill="#005A8B" width="2" height="3.2"/>
		</g>
		<g>
			<rect x="97.9" y="15.7" fill="#005A8B" width="2" height="3.2"/>
		</g>
		<g>
			<rect x="102.5" y="12.1" fill="#005A8B" width="2" height="3.2"/>
		</g>
		<g>
			<rect x="97.9" y="22.9" fill="#005A8B" width="2" height="3.2"/>
		</g>
		<g>
			<rect x="97.9" y="26.4" fill="#005A8B" width="2" height="3.2"/>
		</g>
		<g>
			<rect x="97.9" y="19.2" fill="#005A8B" width="2" height="3.2"/>
		</g>
		<g>
			<rect x="102.5" y="8.6" fill="#005A8B" width="2" height="3.2"/>
		</g>
		<g>
			<rect x="102.5" y="5.1" fill="#005A8B" width="2" height="3.2"/>
		</g>
		<g>
			<polygon fill="#005A8B" points="102.2,-0.4 100.3,1.1 102.2,1.1 			"/>
		</g>
		<g>
			<rect x="102.5" y="1.6" fill="#005A8B" width="2" height="3.2"/>
		</g>
		<g>
			<rect x="102.5" y="15.7" fill="#005A8B" width="2" height="3.2"/>
		</g>
		<g>
			<rect x="97.9" y="51.1" fill="#005A8B" width="2" height="3.2"/>
		</g>
		<g>
			<rect x="97.9" y="54.6" fill="#005A8B" width="2" height="3.2"/>
		</g>
		<g>
			<rect x="109.5" y="40.5" fill="#005A8B" width="2" height="3.2"/>
		</g>
		<g>
			<rect x="97.9" y="12.1" fill="#005A8B" width="2" height="3.2"/>
		</g>
		<g>
			<polygon fill="#005A8B" points="106.9,-2.4 106.9,-4.6 104.9,-2.9 104.9,-2.4 			"/>
		</g>
		<g>
			<rect x="100.2" y="19.2" fill="#005A8B" width="2" height="3.2"/>
		</g>
		<g>
			<rect x="97.9" y="8.6" fill="#005A8B" width="2" height="3.2"/>
		</g>
		<g>
			<polygon fill="#005A8B" points="106.8,51.1 104.9,51.1 104.9,52.9 			"/>
		</g>
		<g>
			<rect x="104.9" y="-2" fill="#005A8B" width="2" height="3.2"/>
		</g>
		<g>
			<rect x="97.9" y="5.1" fill="#005A8B" width="2" height="3.2"/>
		</g>
		<g>
			<rect x="100.2" y="47.6" fill="#005A8B" width="2" height="3.2"/>
		</g>
		<g>
			<rect x="104.9" y="40.5" fill="#005A8B" width="2" height="3.2"/>
		</g>
		<g>
			<polygon fill="#005A8B" points="109.5,-6 111.5,-6 111.5,-8.9 109.5,-7 			"/>
		</g>
		<g>
			<rect x="104.9" y="47.6" fill="#005A8B" width="2" height="3.2"/>
		</g>
		<g>
			<rect x="104.9" y="44" fill="#005A8B" width="2" height="3.2"/>
		</g>
		<g>
			<rect x="100.2" y="26.4" fill="#005A8B" width="2" height="3.2"/>
		</g>
		<g>
			<rect x="100.2" y="36.8" fill="#005A8B" width="2" height="3.2"/>
		</g>
		<g>
			<rect x="104.9" y="5.1" fill="#005A8B" width="2" height="3.2"/>
		</g>
		<g>
			<rect x="100.2" y="22.9" fill="#005A8B" width="2" height="3.2"/>
		</g>
		<g>
			<rect x="104.9" y="8.6" fill="#005A8B" width="2" height="3.2"/>
		</g>
		<g>
			<rect x="104.9" y="1.6" fill="#005A8B" width="2" height="3.2"/>
		</g>
		<g>
			<rect x="100.2" y="44" fill="#005A8B" width="2" height="3.2"/>
		</g>
		<g>
			<rect x="100.2" y="40.5" fill="#005A8B" width="2" height="3.2"/>
		</g>
		<g>
			<rect x="100.2" y="29.8" fill="#005A8B" width="2" height="3.2"/>
		</g>
		<g>
			<polygon fill="#005A8B" points="102.5,1.1 104.5,1.1 104.5,-2 103.9,-2 102.5,-0.7 			"/>
		</g>
		<g>
			<rect x="104.9" y="36.8" fill="#005A8B" width="2" height="3.2"/>
		</g>
		<g>
			<rect x="100.2" y="33.3" fill="#005A8B" width="2" height="3.2"/>
		</g>
		<g>
			<polygon fill="#005A8B" points="99.9,1.7 97.9,3.5 97.9,4.8 99.9,4.8 			"/>
		</g>
		<g>
			<polygon fill="#005A8B" points="106.9,51.1 106.9,50.9 106.8,51.1 			"/>
		</g>
		<g>
			<path fill="#005A8B" d="M93.1,64.7L93.1,64.7L93.1,64.7z"/>
		</g>
		<g>
			<path fill="#005A8B" d="M107.2,50.8L107.2,50.8L107.2,50.8z"/>
		</g>
	</g>
	<g>
		<path fill="#005A8B" d="M61.8,39.8c-1.4,0-2.8-0.6-3.7-1.6c-0.9,0.4-1.9,0.6-2.9,0.6c-4.1,0-7.5-3.3-7.5-7.5
			c0-3.6,2.6-6.7,6.1-7.3c0.5-2.3,2.6-4,5-4c1.9,0,3.6,1,4.5,2.6c3.2,0.3,5.7,2.9,5.7,6.2c0,1.8-0.8,3.6-2.2,4.8
			C67,34,67,34.3,67,34.7C67,37.5,64.7,39.8,61.8,39.8z M58.6,36l0.4,0.6c0.6,0.9,1.7,1.5,2.8,1.5c1.9,0,3.4-1.5,3.4-3.4
			c0-0.3-0.1-0.7-0.2-1.1l-0.2-0.6l0.5-0.4c1.2-0.8,2-2.2,2-3.7c0-2.5-2-4.5-4.5-4.5h-0.6l-0.3-0.5c-0.6-1.2-1.8-2-3.1-2
			c-1.8,0-3.2,1.3-3.4,3.1l-0.1,0.7l-0.7,0.1c-3,0.3-5.2,2.7-5.2,5.7c0,3.2,2.6,5.7,5.7,5.7c0.9,0,1.8-0.2,2.7-0.7L58.6,36z"/>
	</g>
	<g>
		<path fill="#005A8B" d="M76.9,37.2c-0.7,0-1.4-0.3-2-0.8c-0.5,0.2-0.9,0.2-1.4,0.2c-2.3,0-4.2-1.9-4.2-4.2c0-2,1.4-3.7,3.2-4.1
			c0.4-1.2,1.5-2.1,2.9-2.1c1,0,2,0.5,2.5,1.3c1.8,0.2,3.1,1.8,3.1,3.6c0,1-0.4,1.9-1.1,2.5c0,0.1,0,0.3,0,0.4
			C80,35.8,78.6,37.2,76.9,37.2z M75.4,34.2l0.4,0.6c0.2,0.2,0.5,0.6,1.1,0.6c0.7,0,1.3-0.6,1.3-1.3c0-0.1,0-0.3-0.1-0.5L77.9,33
			l0.6-0.4c0.5-0.4,0.9-0.9,0.9-1.5c0-1-0.8-1.8-1.8-1.9l-0.7,0l-0.2-0.5c-0.2-0.5-0.7-0.8-1.2-0.8c-0.7,0-1.2,0.5-1.3,1.2L74,29.8
			l-0.7,0.1C72,30,71,31.1,71,32.4c0,1.8,2,3.1,3.7,2.2L75.4,34.2z"/>
	</g>
	<g>
		<path fill="#005A8B" d="M68.8,47.1C68.8,47.1,68.8,47.1,68.8,47.1c-0.5,0-1-0.1-1.4-0.4c-0.5-0.3-0.9-0.8-1.1-1.4
			c-0.4-0.1-0.7-0.2-1-0.4c-0.8-0.5-1.4-1.3-1.6-2.3c-0.2-0.9,0-1.9,0.5-2.7c0.9-1.3,2.6-2,4.1-1.5c0.9-0.7,2.1-0.8,3.1-0.2
			c0.7,0.5,1.2,1.3,1.2,2.1c1.1,1,1.4,2.7,0.6,4c-0.4,0.7-1.1,1.1-1.9,1.3c0,0.1-0.1,0.2-0.1,0.3C70.6,46.7,69.8,47.1,68.8,47.1z
			 M67.2,39.9c-0.6,0-1.2,0.3-1.6,0.9c-0.3,0.4-0.4,0.9-0.2,1.4c0.1,0.5,0.4,0.9,0.8,1.2c0.2,0.1,0.5,0.2,0.9,0.3l0.8,0l0,0.8
			c0,0.2,0.1,0.6,0.4,0.8c0.2,0.1,0.3,0.1,0.5,0.1l0,0c0.3,0,0.6-0.2,0.8-0.4c0-0.1,0.1-0.2,0.1-0.3l0.1-0.7l0.7,0
			c0.5,0,0.9-0.2,1.1-0.6c0.4-0.6,0.2-1.5-0.4-1.9l0,0l-0.4-0.2l0-0.7c0.1-0.4-0.1-0.7-0.4-0.9c-0.4-0.3-0.9-0.1-1.2,0.2l-0.4,0.6
			l-0.6-0.3C67.8,40,67.5,39.9,67.2,39.9z"/>
	</g>
	<g>
		<polygon fill="#005A8B" points="68.3,37.1 65.6,34.2 66.9,33 68.5,34.8 70.2,33.6 71.2,35 		"/>
	</g>
	<g>
		
			<rect x="66.7" y="36.8" transform="matrix(3.675451e-02 0.9993 -0.9993 3.675451e-02 103.5754 -32.1159)" fill="#005A8B" width="3.4" height="1.7"/>
	</g>
</g>
</svg>
