<?xml version="1.0" encoding="utf-8"?>
<!-- Generator: Adobe Illustrator 18.1.1, SVG Export Plug-In . SVG Version: 6.00 Build 0)  -->
<svg version="1.1" id="Layer_1" xmlns="http://www.w3.org/2000/svg" xmlns:xlink="http://www.w3.org/1999/xlink" x="0px" y="0px"
	 viewBox="13.5 -34 100 100" enable-background="new 13.5 -34 100 100" xml:space="preserve">
<g>
	<g>
		<path fill="#005A8B" d="M105.3-11.8L105.3-11.8l-10.9-0.3c-5.3,0-9.7-4.4-9.7-9.7v-11.6c0-0.3,0.3-0.6,0.6-0.6
			c0.3,0,0.6,0,0.6,0.3L105.6-13c0.3,0.3,0.3,0.3,0.3,0.6C106-12.1,106-11.8,105.3-11.8L105.3-11.8z M86.3-31.5v9.7
			c0,4.4,3.7,8.1,8.1,8.1l9.1,0.3L86.3-31.5z"/>
	</g>
	<g>
		<path fill="#005A8B" d="M85.6-21.8c0,5,3.7,8.7,8.7,8.7l11.2,0.3l-20-20.6V-21.8z"/>
	</g>
	<path fill="#005A8B" d="M105.3,25.7H28.2c-0.3,0-0.3-0.3-0.3-0.6v-50.9c0-4.7,3.4-8.1,8.1-8.1h50h0.3l19.4,20.3
		c0,0.3,0.3,0.3,0.3,0.6v38.1C106,25.7,105.6,25.7,105.3,25.7z M28.8,24.1h75.9v-35.9l-10.3-0.3c-5.3,0-10-4.4-10-9.7V-33H36
		c-3.7,0-6.9,3.4-6.9,6.9L28.8,24.1L28.8,24.1z M86-31.5v9.7c0,4.4,3.7,8.1,8.1,8.1l9.1,0.3L86-31.5z"/>
	<path fill="#005A8B" d="M97.8,66H36c-4.7,0-8.1-3.7-8.1-8.4v-4.7c0-0.3,0-0.9,0.3-0.9h77.2c0.3,0,0.6,0.6,0.6,0.9v4.7
		C106,62.3,102.2,66,97.8,66z M28.8,53.2v4.1c0,3.7,3.1,6.9,6.9,6.9h61.9c3.7,0,7.2-3.1,7.2-6.9v-4.1C105,53.2,28.8,53.2,28.8,53.2z
		"/>
	<g>
		<path fill="#005A8B" d="M112.5,52.6c0,0.3-0.3,0.9-0.9,0.9h-89c-0.3,0-0.9-0.3-0.9-0.9V24.8c0-0.3,0.3-0.9,0.9-0.9h89.4
			c0.3,0,0.9,0.3,0.9,0.9L112.5,52.6L112.5,52.6z M22.8,51.6H111V25.7H22.8C22.8,25.7,22.8,51.6,22.8,51.6z"/>
	</g>
	<g>
		<path fill="#005A8B" d="M54.1,33.8c-1.6,0-2.5,0.6-2.5,1.6c0,0.3,0.3,0.9,0.6,0.9c0.3,0.3,1.2,0.6,2.8,0.9
			c1.2,0.3,2.5,0.9,3.1,1.6c0.6,0.6,0.9,1.6,0.9,2.8c0,1.6-0.6,2.8-1.2,3.4c-0.9,0.9-2.2,1.2-3.7,1.2c-1.2,0-2.5-0.3-4.1-0.6
			l-0.9-0.3l0.3-2.2c1.9,0.3,3.4,0.3,4.4,0.3c1.6,0,2.2-0.6,2.2-1.9c0-0.3-0.3-0.9-0.6-1.2c-0.3-0.3-0.9-0.6-2.2-0.9
			c-1.6-0.6-2.8-0.9-3.7-1.6c-0.6-0.6-0.9-1.6-0.9-2.8c0-1.6,0.3-2.5,1.2-3.4c0.9-0.6,2.2-1.2,3.7-1.2c1.2,0,2.5,0.3,4.1,0.3
			l0.9,0.3l-0.3,2.5C56.3,33.8,54.7,33.8,54.1,33.8z"/>
		<path fill="#005A8B" d="M64.4,46.3h-3.1V31.6h3.1v6.2l1.9-0.3l2.5-6.2h3.4l-3.1,7.5l3.4,7.5h-3.4l-2.5-5.9l-2.5,0.3L64.4,46.3
			L64.4,46.3z"/>
		<path fill="#005A8B" d="M79.7,41.9h-2.5v4.4h-3.1V31.6h5.6c3.4,0,5.3,1.6,5.3,5c0,1.6-0.3,3.1-1.2,4.1
			C82.8,41.6,81.3,41.9,79.7,41.9z M77.2,39.4h2.5c1.6,0,2.2-0.9,2.2-2.8c0-0.9-0.3-1.6-0.6-1.9c-0.3-0.3-0.9-0.6-1.6-0.6h-2.5V39.4
			z"/>
	</g>
	<path fill="#005A8B" d="M72.8-21.5l-24.7,3.1l3.1,20.9l5.6,16.6l26.2-7.5L86-11.5L72.8-21.5z M57.5,8.8L56,4.8l7.8-1.6l1.9,3.7
		L57.5,8.8z M64.7-0.2L63.1-4L55-2.4l-1.6-4.1l15-2.5l5.3,6.6L64.7-0.2z M73.5-9.6l-5.6-5.6L52.5-13L51-16.5l21.6-2.8l10.3,8.1
		L73.5-9.6z"/>
</g>
</svg>
