<?xml version="1.0" encoding="utf-8"?>
<!-- Generator: Adobe Illustrator 18.1.1, SVG Export Plug-In . SVG Version: 6.00 Build 0)  -->
<svg version="1.1" id="Layer_1" xmlns="http://www.w3.org/2000/svg" xmlns:xlink="http://www.w3.org/1999/xlink" x="0px" y="0px"
	 viewBox="3.1 -34 120.8 100" enable-background="new 3.1 -34 120.8 100" xml:space="preserve">
<g>
	<path fill="#FFFFFF" d="M123.9,66H3.1V-34h120.8V66z M5.1,64h116.9V-32H5.1V64z"/>
</g>
<g>
	<path fill="#FFFFFF" d="M123.9-20.7H3.1V-34h120.8V-20.7z M5.1-22.6h116.9V-32H5.1V-22.6z"/>
</g>
<g>
	<g>
		<path fill="#FFFFFF" d="M91.3,22.5H14.1V7.6h77.3V22.5z M14.9,21.7h75.7V8.4H14.9V21.7z"/>
	</g>
	<g>
		<path fill="#FFFFFF" d="M91.3,36.6H14.1V21.7h77.3V36.6z M14.9,35.8h75.7V22.5H14.9V35.8z"/>
	</g>
	<g>
		<path fill="#FFFFFF" d="M91.3,50.7H14.1V35.8h77.3V50.7z M14.9,49.9h75.7V36.6H14.9V49.9z"/>
	</g>
	<g>
		<path fill="#FFFFFF" d="M112.9,50.7H90.6V7.6h22.4V50.7z M91.3,49.9h20.8V8.4H91.3V49.9z"/>
	</g>
</g>
<g>
	<circle fill="#FFFFFF" cx="11.7" cy="-27.3" r="2"/>
</g>
<g>
	<circle fill="#FFFFFF" cx="19.2" cy="-27.3" r="2"/>
</g>
<g>
	<circle fill="#FFFFFF" cx="27.4" cy="-27.3" r="2"/>
</g>
<g>
	<path fill="#FFFFFF" d="M109,32.7H94.9c-0.4,0-1.2-0.4-1.2-0.8s0.4-0.8,1.2-0.8H109c0.4,0,1.2,0.4,1.2,0.8S109.4,32.7,109,32.7z"/>
</g>
<g>
	<path fill="#FFFFFF" d="M109,37H94.9c-0.4,0-1.2-0.4-1.2-0.8s0.4-0.8,1.2-0.8H109c0.4,0,1.2,0.4,1.2,0.8S109.4,37,109,37z"/>
</g>
<g>
	<path fill="#FFFFFF" d="M109,41.1H94.9c-0.4,0-1.2-0.4-1.2-0.8s0.4-0.8,1.2-0.8H109c0.4,0,1.2,0.4,1.2,0.8
		C110.2,40.7,109.4,41.1,109,41.1z"/>
</g>
<g>
	<path fill="#FFFFFF" d="M109,14.8H94.9c-0.4,0-1.2-0.4-1.2-0.8s0.4-0.8,1.2-0.8H109c0.4,0,1.2,0.4,1.2,0.8S109.4,14.8,109,14.8z"/>
</g>
<g>
	<path fill="#FFFFFF" d="M109,19.1H94.9c-0.4,0-1.2-0.4-1.2-0.8s0.4-0.8,1.2-0.8H109c0.4,0,1.2,0.4,1.2,0.8S109.4,19.1,109,19.1z"/>
</g>
<g>
	<path fill="#FFFFFF" d="M109,23.2H94.9c-0.4,0-1.2-0.4-1.2-0.8c0-0.4,0.4-0.8,1.2-0.8H109c0.4,0,1.2,0.4,1.2,0.8
		C110.2,22.8,109.4,23.2,109,23.2z"/>
</g>
<rect x="6.9" y="-19.5" fill="#FFFFFF" width="22" height="12.5"/>
<rect x="29.9" y="-19.5" fill="#FFFFFF" width="22" height="12.5"/>
<rect x="52.8" y="-19.5" fill="#FFFFFF" width="22" height="12.5"/>
<rect x="75.8" y="-19.5" fill="#FFFFFF" width="22" height="12.5"/>
<rect x="98.7" y="-19.5" fill="#FFFFFF" width="22" height="12.5"/>
</svg>
