<?xml version="1.0" encoding="utf-8"?>
<!-- Generator: Adobe Illustrator 18.1.1, SVG Export Plug-In . SVG Version: 6.00 Build 0)  -->
<svg version="1.1" id="Layer_1" xmlns="http://www.w3.org/2000/svg" xmlns:xlink="http://www.w3.org/1999/xlink" x="0px" y="0px"
	 viewBox="-15 -34 135.5 100" enable-background="new -15 -34 135.5 100" xml:space="preserve">
<path fill="#FFFFFF" d="M77.4,45.9C77.4,45.9,77.4,45.9,77.4,45.9c-0.3-0.2-2.2-1.8-3.2-3.4c0,0-0.3,0.1-0.6-2.5
	c-0.4-3.7-0.8-6.4-0.8-6.4H53.1c0,0-0.4,2.8-0.8,6.4c-0.3,2.6-0.6,2.6-0.6,2.6c-1.1,1.7-3.2,3.3-3.2,3.3s-1.4,1.4,0.4,1.6
	c0.1,0,0.2,0,0.2,0c0.1,0,0.2,0,0.2,0c0.5,0,1.5,0,2.8,0.1c0.4,0,0.9,0,1.6,0c2.3,0,5.9,0,9.7,0c2.2,0,4.4,0,6.3,0
	c1.3,0,2.5,0,3.3,0c0.5,0,1,0,1.5,0c0.8,0,1.5,0,1.9,0c0.2,0,0.3,0,0.4,0c0.5,0,0.8-0.2,1-0.3c0.3-0.4,0-0.9-0.2-1.2
	C77.5,46,77.4,45.9,77.4,45.9z M62.9,47.6"/>
<path fill="#FFFFFF" d="M16.7-30.4h92.2h-0.2V7.3h3.8v-39.6c0-1.8-2-1.8-2-1.8H15.4c0,0-2.7,0-2.7,1.8v31.8h4V-30.4z"/>
<g>
	<g>
		<path fill="#FFFFFF" d="M61,49.2"/>
	</g>
</g>
<path fill="#FFFFFF" d="M29.6,2.4h-42.7c-1.6,0-1.8,0.9-1.8,1.3v57.6c0,0.8,1,1.9,1.8,1.9h42.7c1.1,0,1.1-1.3,1.1-1.9V3.8
	C30.7,3.2,30.6,2.4,29.6,2.4z M8.2,4.4C9,4.4,9.6,5,9.6,5.8c0,0.7-0.6,1.4-1.4,1.4c-0.7,0-1.4-0.6-1.4-1.4C6.9,5,7.5,4.4,8.2,4.4z
	 M8.2,61.4c-1.1,0-2-0.9-2-2c0-1.1,0.9-2,2-2c1.1,0,2,0.9,2,2C10.2,60.6,9.3,61.4,8.2,61.4z M27.9,9.3C27.9,9.3,27.9,9.3,27.9,9.3
	c-0.1,0.1-0.2,0.2-0.2,0.3v45.9c-0.3,0.2-0.6,0.4-1,0.4h-37c-0.7,0-2-0.9-2-1.7V9.6c0-0.2,0-0.6,1.2-0.6c0.2,0,0.3-0.1,0.5,0
	c0.1,0,0.2-0.1,0.3-0.1h37.6c0.1,0,0.2,0.1,0.3,0c0.1,0,0.1,0,0.2,0c0.1,0,0.1,0,0.2,0.1C27.9,9.1,27.9,9.2,27.9,9.3z"/>
<g>
	<path fill="#FFFFFF" d="M105.8,61.2C105.8,61.2,105.7,61.2,105.8,61.2C105.7,61.3,105.9,61.3,105.8,61.2
		C105.9,61.2,105.8,61.2,105.8,61.2z"/>
	<path fill="#FFFFFF" d="M116.5,10.2H95.1c-2.4,0-5,1.8-5,4.4v46.2c0,2.5,2.4,4.8,5,4.8h21.4c2.6,0,4-2.4,4-4.8V14.6
		C120.5,12,119,10.2,116.5,10.2z M105.8,62.7c-0.8,0-1.4-0.6-1.4-1.4c0-0.8,0.6-1.4,1.4-1.4c0.8,0,1.4,0.6,1.4,1.4
		C107.2,62,106.6,62.7,105.8,62.7z M118.1,54.8c0,3-1.3,3.1-1.6,3.1H95.1c-1.4,0-3.1-1.8-3.1-3.1V14.6c0-0.7,0.5-1.7,3.1-1.7h21.4
		c1.3,0,1.6,0.4,1.6,1.7V54.8z"/>
</g>
<g>
	<g>
		<path fill="#FFFFFF" d="M62.8-20.8c-0.5,0-1.1-0.1-1.6-0.1c-4.9,0-9.6,1.8-13.2,5.1c-3.6,3.3-5.9,7.9-6.3,12.8
			C41.3,2.3,43,7.4,46.3,11.3c3.4,4,8.1,6.4,13.3,6.8c0.5,0,1.1,0.1,1.6,0.1c4.9,0,9.6-1.8,13.2-5.1c3.6-3.3,5.9-7.9,6.3-12.8
			C81.6-10.4,73.5-19.9,62.8-20.8z M61.2,17.1c-0.5,0-1,0-1.5-0.1c-4.9-0.4-9.4-2.7-12.5-6.4C44,6.9,42.5,2.1,42.9-2.8
			c0.4-4.6,2.5-8.9,5.9-12.1c3.4-3.1,7.8-4.8,12.4-4.8c0.5,0,1,0,1.5,0.1c4.9,0.4,9.3,2.7,12.5,6.4c3.2,3.8,4.7,8.5,4.3,13.4
			c-0.4,4.6-2.5,8.9-5.9,12.1C70.3,15.4,65.9,17.1,61.2,17.1z"/>
	</g>
	<g>
		<g>
			<g>
				<path fill="#FFFFFF" d="M50.8,5.2c0.1,2,0.3,3.4,0.3,3.5l-0.2,0c1.6,0.5,3.3,0.8,5.1,1c0-0.2-0.2-1.8-0.3-3.7
					C54.1,5.8,52.5,5.6,50.8,5.2z"/>
			</g>
		</g>
		<g>
			<g>
				<path fill="#FFFFFF" d="M72.9,1.2c-0.4-1-0.8-2.1-1.3-3c-0.9,0.5-1.9,1-3,1.4c-0.1,0-0.2,0.1-0.3,0.1c0.4,1,0.9,2.2,1.3,3.3
					c0.1-0.1,0.2-0.1,0.3-0.2C71,2.3,72,1.8,72.9,1.2z"/>
			</g>
		</g>
		<g>
			<g>
				<path fill="#FFFFFF" d="M55.6,5.6c-0.1-1.1-0.2-2.4-0.3-3.6c-1.5-0.1-3-0.3-4.6-0.6c0,1.2,0,2.4,0.1,3.5
					C52.5,5.2,54.1,5.5,55.6,5.6z"/>
			</g>
		</g>
		<g>
			<g>
				<path fill="#FFFFFF" d="M59.5,1.9C58.2,2,57,2.1,55.6,2c0.1,1.2,0.2,2.4,0.3,3.6c1.5,0.1,2.9,0.1,4.2-0.1
					C59.9,4.4,59.7,3.1,59.5,1.9z"/>
			</g>
		</g>
		<g>
			<g>
				<path fill="#FFFFFF" d="M69.3,3.1c0,0.1,0.1,0.2,0.1,0.3c0.1,0,0.2-0.1,0.3-0.1c0-0.1-0.1-0.2-0.1-0.3C69.5,3,69.4,3.1,69.3,3.1
					z"/>
			</g>
		</g>
		<g>
			<g>
				<path fill="#FFFFFF" d="M65,4.7C65,4.8,65,4.9,65.1,5c0.1,0,0.2-0.1,0.3-0.1c0-0.1-0.1-0.2-0.1-0.3C65.2,4.6,65.1,4.6,65,4.7z"
					/>
			</g>
		</g>
		<g>
			<g>
				<path fill="#FFFFFF" d="M68-0.2c-1.1,0.4-2.3,0.8-3.5,1.2c0.3,1.1,0.6,2.4,0.9,3.5c1.4-0.4,2.8-0.9,3.9-1.4
					C68.9,2,68.4,0.9,68-0.2z"/>
			</g>
		</g>
		<g>
			<g>
				<path fill="#FFFFFF" d="M60.2,5.5c0,0.1,0,0.2,0.1,0.4c0.1,0,0.2,0,0.4,0c0-0.1,0-0.2-0.1-0.3C60.4,5.5,60.3,5.5,60.2,5.5z"/>
			</g>
		</g>
		<g>
			<g>
				<path fill="#FFFFFF" d="M64.1,1.1c-1.3,0.3-2.8,0.6-4.3,0.8c0.2,1.2,0.5,2.4,0.7,3.6C62.1,5.3,63.6,5,65,4.7
					C64.7,3.5,64.4,2.3,64.1,1.1z"/>
			</g>
		</g>
		<g>
			<g>
				<path fill="#FFFFFF" d="M55.6,5.6c0,0.1,0,0.2,0,0.4c0.1,0,0.2,0,0.4,0c0-0.1,0-0.2,0-0.4C55.8,5.6,55.7,5.6,55.6,5.6z"/>
			</g>
		</g>
		<g>
			<g>
				<path fill="#FFFFFF" d="M56.3,9.7l-0.2,0c1.6,0.1,3.2,0.1,4.8-0.1c0-0.2-0.3-1.8-0.7-3.7C58.9,6,57.5,6,56,6
					C56.2,8,56.3,9.6,56.3,9.7z"/>
			</g>
		</g>
		<g>
			<g>
				<path fill="#FFFFFF" d="M61.3,9.6l-0.1,0c1.7-0.2,3.3-0.5,4.9-1l-0.1,0c0,0-0.4-1.6-0.9-3.6c-1.4,0.4-2.9,0.7-4.5,0.8
					C61,7.9,61.3,9.5,61.3,9.6z"/>
			</g>
		</g>
		<g>
			<g>
				<path fill="#FFFFFF" d="M66.3,8.5c1.5-0.5,3-1.1,4.4-1.9l-0.2,0.1c-0.3-0.8-0.7-2-1.1-3.2c-1.2,0.5-2.5,1-4,1.5
					C65.9,6.8,66.2,8.3,66.3,8.5z"/>
			</g>
		</g>
		<g>
			<g>
				<path fill="#FFFFFF" d="M74.3,4.3c1-0.8,1.9-1.6,2.8-2.5l-0.2,0c0,0-0.3-1.1-0.7-2.5c-0.8,0.7-1.8,1.4-2.8,2.1
					C73.8,2.8,74.2,4,74.3,4.3z"/>
			</g>
		</g>
		<g>
			<g>
				<path fill="#FFFFFF" d="M46.9,7l-0.2,0c1.3,0.6,2.6,1.2,4,1.6c0-0.4-0.2-1.7-0.3-3.5c-1.3-0.3-2.6-0.7-3.9-1.2
					C46.7,5.7,46.9,7,46.9,7z"/>
			</g>
		</g>
		<g>
			<g>
				<path fill="#FFFFFF" d="M42.3-1.8c0,1.3,0.1,2.6,0.3,3.9l0.1-0.2C43.8,2.5,45,3,46.1,3.4c-0.1-1.1-0.2-2.3-0.2-3.5
					C44.7-0.6,43.5-1.1,42.3-1.8z"/>
			</g>
		</g>
		<g>
			<g>
				<path fill="#FFFFFF" d="M50.4,1.3C49,1,47.7,0.6,46.3,0.1c0,1.2,0.1,2.4,0.2,3.5c1.4,0.5,2.7,0.9,4,1.2
					C50.4,3.7,50.3,2.5,50.4,1.3z"/>
			</g>
		</g>
		<g>
			<g>
				<path fill="#FFFFFF" d="M46.1,3.4c0,0.1,0,0.3,0,0.4c0.1,0,0.2,0.1,0.4,0.1c0-0.1,0-0.3,0-0.4C46.3,3.5,46.2,3.5,46.1,3.4z"/>
			</g>
		</g>
		<g>
			<g>
				<path fill="#FFFFFF" d="M43.3,5.1c1,0.7,2.1,1.3,3.2,1.9c-0.1-0.4-0.2-1.6-0.4-3.1c-1.2-0.4-2.3-0.9-3.5-1.5
					C42.8,3.3,43,4.2,43.3,5.1z"/>
			</g>
		</g>
		<g>
			<g>
				<path fill="#FFFFFF" d="M50.4,4.8c0,0.1,0,0.2,0,0.4c0.1,0,0.2,0.1,0.4,0.1c0-0.1,0-0.2,0-0.4C50.7,4.8,50.5,4.8,50.4,4.8z"/>
			</g>
		</g>
		<g>
			<g>
				<path fill="#FFFFFF" d="M78.3-3.1c0,0.1,0.1,0.3,0.1,0.4c0.1-0.1,0.2-0.2,0.3-0.3c0-0.1-0.1-0.3-0.1-0.4
					C78.5-3.3,78.4-3.2,78.3-3.1z"/>
			</g>
		</g>
		<g>
			<g>
				<path fill="#FFFFFF" d="M69.7,3.3c0.6,1.6,1,3,1.1,3.2c0.6-0.3,1.1-0.6,1.6-1c0.6-0.4,1.1-0.8,1.7-1.2l-0.2,0c0,0-0.4-1.3-1-2.9
					c-0.9,0.6-1.9,1.1-2.9,1.6C69.9,3.2,69.8,3.3,69.7,3.3z"/>
			</g>
		</g>
		<g>
			<g>
				<path fill="#FFFFFF" d="M63.4-2.5c0.2,0.6,0.5,1.8,0.9,3.2c1.3-0.3,2.4-0.7,3.5-1.2c-0.6-1.3-1.1-2.3-1.4-2.6l0.2-0.3
					C67-3,67.6-2,68.2-0.6c0.1,0,0.2-0.1,0.2-0.1c1.1-0.5,2.1-0.9,3-1.4c-0.5-1-1.1-1.9-1.6-2.4l0.1-0.1C67.9-3.7,65.7-3,63.4-2.5z"
					/>
			</g>
		</g>
		<g>
			<g>
				<path fill="#FFFFFF" d="M50.9-2.9l0.3,0.1c-0.3,1-0.4,2.4-0.5,3.8c1.6,0.3,3.1,0.5,4.5,0.6c-0.2-1.8-0.3-3.3-0.3-3.8l0.2,0
					c-3-0.4-5.8-1.2-8.4-2.4c-0.3,1.3-0.4,2.8-0.4,4.3c1.4,0.5,2.8,1,4.1,1.3C50.4-0.5,50.6-1.8,50.9-2.9z"/>
			</g>
		</g>
		<g>
			<g>
				<path fill="#FFFFFF" d="M76.4-1c0.4,1.2,0.7,2.3,0.8,2.6c0.6-0.7,1.2-1.4,1.8-2.1l-0.2,0c0,0-0.2-1-0.5-2.2
					C77.9-2.2,77.2-1.6,76.4-1z"/>
			</g>
		</g>
		<g>
			<g>
				<path fill="#FFFFFF" d="M78.7-3c0.3,1.1,0.4,2,0.5,2.3c0.4-0.5,0.7-1,1-1.5c0-0.8-0.1-1.5-0.2-2.2C79.8-4.2,79.3-3.7,78.7-3z"/>
			</g>
		</g>
		<g>
			<g>
				<path fill="#FFFFFF" d="M79.9-4.6c-0.2-0.9-0.4-1.9-0.7-2.8c-0.2,0.2-0.6,0.6-1.4,1.3c0.3,0.9,0.6,1.8,0.8,2.7
					c0.8-0.8,1.2-1.3,1.2-1.3L79.9-4.6z"/>
			</g>
		</g>
		<g>
			<g>
				<path fill="#FFFFFF" d="M42.3-2.1c1.2,0.7,2.4,1.2,3.6,1.7c0-1.5,0.1-3,0.5-4.3l0.2,0c-1.2-0.6-2.4-1.3-3.5-2.1
					c-0.4,1.3-0.6,2.6-0.7,4c0,0.3,0,0.6,0,0.9L42.3-2.1z"/>
			</g>
		</g>
		<g>
			<g>
				<path fill="#FFFFFF" d="M55.6,1.7c1.3,0.1,2.6,0,3.8-0.1c-0.3-1.6-0.6-3-0.7-3.6l0.2,0c-0.9,0-1.8,0-2.7-0.1
					c-0.3,0-0.6-0.1-0.8-0.1C55.3-1.6,55.5-0.1,55.6,1.7z"/>
			</g>
		</g>
		<g>
			<g>
				<path fill="#FFFFFF" d="M77.7-6.5C78.5-7.2,79-7.7,79-7.7l0.1,0.1c-0.4-1-0.8-2-1.3-3c-0.5,0.5-1,1-1.5,1.5
					C76.8-8.5,77.3-7.6,77.7-6.5z"/>
			</g>
		</g>
		<g>
			<g>
				<path fill="#FFFFFF" d="M75.1-4.5c0.9-0.6,1.6-1.2,2.2-1.7c-0.4-1.1-0.8-2-1.3-2.6L76.2-9c-0.8,0.7-1.7,1.4-2.6,2.1
					C74.1-6.5,74.6-5.6,75.1-4.5z"/>
			</g>
		</g>
		<g>
			<g>
				<path fill="#FFFFFF" d="M59-2c0.1,0.6,0.4,2,0.7,3.6c1.5-0.2,2.9-0.4,4.3-0.8c-0.4-1.4-0.7-2.6-0.9-3.2l0.2-0.1
					C61.9-2.2,60.4-2.1,59-2z"/>
			</g>
		</g>
		<g>
			<g>
				<path fill="#FFFFFF" d="M71.7-2.3c1.2-0.7,2.2-1.3,3.1-2c-0.5-1.1-1-2-1.5-2.3l0.1-0.1c-1.1,0.7-2.2,1.4-3.4,2
					C70.6-4.2,71.2-3.3,71.7-2.3z"/>
			</g>
		</g>
		<g>
			<g>
				<path fill="#FFFFFF" d="M75-4c-0.9,0.6-2,1.3-3.1,1.9c0.5,1,0.9,2,1.3,3c1.1-0.7,2-1.4,2.9-2.1C75.7-2,75.4-3,75-4z"/>
			</g>
		</g>
		<g>
			<g>
				<path fill="#FFFFFF" d="M72.9,1.2c0,0.1,0.1,0.2,0.1,0.3c0.1-0.1,0.2-0.1,0.3-0.2c0-0.1-0.1-0.2-0.1-0.3
					C73.1,1.1,73,1.1,72.9,1.2z"/>
			</g>
		</g>
		<g>
			<g>
				<path fill="#FFFFFF" d="M76-1.1c0,0.1,0.1,0.2,0.1,0.4c0.1-0.1,0.2-0.2,0.3-0.2c0-0.1-0.1-0.2-0.1-0.4C76.2-1.3,76.1-1.2,76-1.1
					z"/>
			</g>
		</g>
		<g>
			<g>
				<path fill="#FFFFFF" d="M78.3-3.1C78.1-4,77.8-5,77.5-5.9c-0.6,0.5-1.3,1.1-2.2,1.7c0.4,0.9,0.7,1.9,1.1,2.8
					C77.1-2,77.8-2.6,78.3-3.1z"/>
			</g>
		</g>
	</g>
	<g>
		<g>
			<path fill="#FFFFFF" d="M61.5,15c-5.5,0-10.6-2.7-13.7-7.4L48,7.6c3,4.5,8,7.3,13.5,7.3c3.9,0,7.6-1.4,10.5-3.9
				c2.9-2.5,4.8-5.9,5.4-9.7l0.2,0c-0.6,3.8-2.6,7.3-5.5,9.8C69.2,13.6,65.4,15,61.5,15z"/>
		</g>
	</g>
	<g>
		<g>
			<path fill="#FFFFFF" d="M45.8-5.2l-0.2-0.1c1.8-7.4,8.3-12.5,15.9-12.5c6.1,0,11.6,3.3,14.5,8.7l-0.2,0.1
				c-2.8-5.3-8.3-8.6-14.3-8.6C54-17.5,47.6-12.4,45.8-5.2z"/>
		</g>
	</g>
	<g>
		<g>
			<path fill="#FFFFFF" d="M61.5,11.9c-2.7,0-5.3-0.8-7.6-2.4L54,9.3c2.2,1.5,4.8,2.3,7.4,2.3c4.6,0,8.8-2.4,11.2-6.4l0.2,0.1
				C70.5,9.4,66.1,11.9,61.5,11.9z"/>
		</g>
	</g>
	<g>
		<g>
			<path fill="#FFFFFF" d="M48.8-4l-0.2,0c1.3-6.1,6.7-10.6,13-10.6c5.2,0,9.9,3,12,7.7l-0.2,0.1c-2.1-4.6-6.8-7.6-11.8-7.6
				C55.3-14.3,50-10,48.8-4z"/>
		</g>
	</g>
	<g>
		<g>
			<path fill="#FFFFFF" d="M52.4-1.6h-0.2c0-1.1,0-0.8,0.1-1.2c0.7-4.5,4.6-7.9,9.2-7.9c3.8,0,7.2,2.3,8.7,5.9L70-4.7
				c-1.4-3.5-4.7-5.7-8.5-5.7c-4.5,0-8.4,3.2-9,7.6C52.4-2.4,52.4-2.7,52.4-1.6z"/>
		</g>
	</g>
	<g>
		<g>
			<path fill="#FFFFFF" d="M56.4-1.1h-0.2c0-0.5,0-0.6,0.1-0.8c0.4-2.5,2.6-4.4,5.1-4.4c2.1,0,4,1.3,4.8,3.2L65.9-3
				c-0.8-1.9-2.5-3.1-4.6-3.1c-2.4,0-4.5,1.8-4.9,4.2C56.4-1.6,56.4-1.6,56.4-1.1z"/>
		</g>
	</g>
	<g>
		<g>
			<rect x="60.8" y="-20.7" fill="#FFFFFF" width="0.8" height="20.7"/>
		</g>
	</g>
	<g>
		<g>
			<rect x="60.8" y="8.1" fill="#FFFFFF" width="0.8" height="9.1"/>
		</g>
	</g>
</g>
<g>
	<g>
		<path fill="#FFFFFF" d="M9.3,20c-0.3,0-0.7,0-1,0c-3,0-5.8,1.1-8,3.1c-2.2,2-3.6,4.8-3.8,7.8C-3.7,34-2.7,37-0.7,39.5
			c2.1,2.4,4.9,3.9,8.1,4.1c0.3,0,0.7,0,1,0c3,0,5.8-1.1,8-3.1c2.2-2,3.6-4.8,3.8-7.8C20.7,26.2,15.9,20.5,9.3,20z M8.4,43
			c-0.3,0-0.6,0-0.9,0c-3-0.2-5.7-1.6-7.6-3.9c-1.9-2.3-2.9-5.2-2.6-8.1c0.2-2.8,1.5-5.4,3.6-7.3c2.1-1.9,4.8-2.9,7.5-2.9
			c0.3,0,0.6,0,0.9,0c3,0.2,5.7,1.6,7.6,3.9c1.9,2.3,2.9,5.2,2.6,8.1c-0.2,2.8-1.5,5.4-3.6,7.3C13.9,41.9,11.2,43,8.4,43z"/>
	</g>
	<g>
		<g>
			<g>
				<path fill="#FFFFFF" d="M2,35.7c0.1,1.2,0.2,2.1,0.2,2.1l-0.1,0c1,0.3,2,0.5,3.1,0.6c0-0.1-0.1-1.1-0.2-2.3
					C4,36.1,3.1,36,2,35.7z"/>
			</g>
		</g>
		<g>
			<g>
				<path fill="#FFFFFF" d="M15.4,33.3c-0.2-0.6-0.5-1.2-0.8-1.8c-0.6,0.3-1.2,0.6-1.8,0.9c-0.1,0-0.1,0-0.2,0.1
					c0.3,0.6,0.5,1.3,0.8,2c0.1,0,0.1-0.1,0.2-0.1C14.3,34,14.9,33.6,15.4,33.3z"/>
			</g>
		</g>
		<g>
			<g>
				<path fill="#FFFFFF" d="M5,36c-0.1-0.7-0.1-1.5-0.2-2.2c-0.9,0-1.8-0.2-2.8-0.4c0,0.7,0,1.4,0,2.1C3.1,35.7,4,35.9,5,36z"/>
			</g>
		</g>
		<g>
			<g>
				<path fill="#FFFFFF" d="M7.3,33.7c-0.7,0.1-1.5,0.1-2.3,0.1c0.1,0.7,0.1,1.5,0.2,2.2c0.9,0.1,1.7,0,2.6,0
					C7.6,35.2,7.4,34.4,7.3,33.7z"/>
			</g>
		</g>
		<g>
			<g>
				<path fill="#FFFFFF" d="M13.3,34.5c0,0.1,0,0.1,0.1,0.2c0.1,0,0.1-0.1,0.2-0.1c0-0.1,0-0.1-0.1-0.2
					C13.4,34.4,13.3,34.4,13.3,34.5z"/>
			</g>
		</g>
		<g>
			<g>
				<path fill="#FFFFFF" d="M10.7,35.4c0,0.1,0,0.1,0.1,0.2c0.1,0,0.1,0,0.2-0.1c0-0.1,0-0.1-0.1-0.2C10.8,35.4,10.7,35.4,10.7,35.4
					z"/>
			</g>
		</g>
		<g>
			<g>
				<path fill="#FFFFFF" d="M12.5,32.5c-0.7,0.3-1.4,0.5-2.2,0.7c0.2,0.7,0.4,1.5,0.5,2.2c0.9-0.2,1.7-0.6,2.4-0.9
					C13,33.8,12.7,33.1,12.5,32.5z"/>
			</g>
		</g>
		<g>
			<g>
				<path fill="#FFFFFF" d="M7.7,35.9c0,0.1,0,0.1,0,0.2c0.1,0,0.1,0,0.2,0C8,36,8,36,8,35.9C7.9,35.9,7.8,35.9,7.7,35.9z"/>
			</g>
		</g>
		<g>
			<g>
				<path fill="#FFFFFF" d="M10.1,33.2c-0.8,0.2-1.7,0.4-2.6,0.5c0.1,0.7,0.3,1.5,0.4,2.2c1-0.1,1.9-0.3,2.7-0.5
					C10.5,34.7,10.3,33.9,10.1,33.2z"/>
			</g>
		</g>
		<g>
			<g>
				<path fill="#FFFFFF" d="M5,36c0,0.1,0,0.1,0,0.2c0.1,0,0.1,0,0.2,0c0-0.1,0-0.1,0-0.2C5.1,36,5,36,5,36z"/>
			</g>
		</g>
		<g>
			<g>
				<path fill="#FFFFFF" d="M5.4,38.4l-0.1,0c1,0.1,2,0.1,2.9,0c0-0.1-0.2-1.1-0.4-2.3c-0.8,0.1-1.7,0.1-2.6,0
					C5.3,37.4,5.4,38.4,5.4,38.4z"/>
			</g>
		</g>
		<g>
			<g>
				<path fill="#FFFFFF" d="M8.4,38.4L8.4,38.4c0.9-0.1,1.9-0.3,2.9-0.6l-0.1,0c0,0-0.2-1-0.5-2.2C9.9,35.8,9,36,8,36.1
					C8.2,37.4,8.4,38.4,8.4,38.4z"/>
			</g>
		</g>
		<g>
			<g>
				<path fill="#FFFFFF" d="M11.5,37.7c0.9-0.3,1.8-0.7,2.7-1.1l-0.1,0c-0.2-0.5-0.4-1.2-0.7-2c-0.7,0.3-1.5,0.6-2.4,0.9
					C11.2,36.7,11.4,37.6,11.5,37.7z"/>
			</g>
		</g>
		<g>
			<g>
				<path fill="#FFFFFF" d="M16.3,35.2c0.6-0.5,1.2-1,1.7-1.5l-0.1,0c0,0-0.2-0.7-0.4-1.5c-0.5,0.4-1.1,0.8-1.7,1.3
					C16,34.3,16.3,35,16.3,35.2z"/>
			</g>
		</g>
		<g>
			<g>
				<path fill="#FFFFFF" d="M-0.3,36.8l-0.1,0c0.8,0.4,1.6,0.7,2.4,1c0-0.2-0.1-1.1-0.2-2.1C1,35.5,0.3,35.3-0.6,35
					C-0.5,36.1-0.3,36.8-0.3,36.8z"/>
			</g>
		</g>
		<g>
			<g>
				<path fill="#FFFFFF" d="M-3.1,31.5c0,0.8,0,1.6,0.2,2.4l0-0.1c0.7,0.3,1.4,0.6,2.1,0.9c-0.1-0.6-0.1-1.4-0.1-2.1
					C-1.6,32.2-2.4,31.9-3.1,31.5z"/>
			</g>
		</g>
		<g>
			<g>
				<path fill="#FFFFFF" d="M1.8,33.4c-0.8-0.2-1.6-0.4-2.5-0.8c0,0.7,0.1,1.5,0.1,2.1C0.2,35,1,35.3,1.8,35.5
					C1.8,34.8,1.8,34.1,1.8,33.4z"/>
			</g>
		</g>
		<g>
			<g>
				<path fill="#FFFFFF" d="M-0.8,34.7c0,0.1,0,0.2,0,0.2c0.1,0,0.1,0.1,0.2,0.1c0-0.1,0-0.2,0-0.2C-0.7,34.7-0.7,34.7-0.8,34.7z"/>
			</g>
		</g>
		<g>
			<g>
				<path fill="#FFFFFF" d="M-2.5,35.6c0.6,0.4,1.3,0.8,1.9,1.2c0-0.2-0.1-1-0.2-1.9c-0.7-0.3-1.4-0.6-2.1-0.9
					C-2.8,34.5-2.7,35.1-2.5,35.6z"/>
			</g>
		</g>
		<g>
			<g>
				<path fill="#FFFFFF" d="M1.8,35.5c0,0.1,0,0.2,0,0.2c0.1,0,0.1,0,0.2,0.1c0-0.1,0-0.1,0-0.2C2,35.5,1.9,35.5,1.8,35.5z"/>
			</g>
		</g>
		<g>
			<g>
				<path fill="#FFFFFF" d="M18.7,30.7c0,0.1,0,0.2,0.1,0.2c0.1-0.1,0.1-0.1,0.2-0.2c0-0.1,0-0.2-0.1-0.2
					C18.9,30.5,18.8,30.6,18.7,30.7z"/>
			</g>
		</g>
		<g>
			<g>
				<path fill="#FFFFFF" d="M13.5,34.6c0.4,1,0.6,1.8,0.7,2c0.3-0.2,0.7-0.4,1-0.6c0.4-0.2,0.7-0.5,1-0.7l-0.1,0
					c0,0-0.2-0.8-0.6-1.8c-0.5,0.3-1.1,0.7-1.8,1C13.7,34.5,13.6,34.5,13.5,34.6z"/>
			</g>
		</g>
		<g>
			<g>
				<path fill="#FFFFFF" d="M9.7,31c0.1,0.4,0.3,1.1,0.5,1.9c0.8-0.2,1.5-0.4,2.1-0.7c-0.3-0.8-0.7-1.4-0.9-1.6l0.1-0.2
					c0.2,0.2,0.6,0.8,0.9,1.7c0,0,0.1,0,0.1-0.1c0.6-0.3,1.2-0.6,1.8-0.9c-0.3-0.6-0.6-1.1-1-1.5l0.1-0.1
					C12.4,30.3,11.1,30.8,9.7,31z"/>
			</g>
		</g>
		<g>
			<g>
				<path fill="#FFFFFF" d="M2.1,30.8l0.2,0.1C2.1,31.5,2,32.3,2,33.2c0.9,0.2,1.9,0.3,2.8,0.4c-0.1-1.1-0.2-2-0.2-2.3l0.1,0
					c-1.8-0.2-3.5-0.7-5.1-1.5c-0.2,0.8-0.3,1.7-0.3,2.6C0.1,32.7,1,33,1.8,33.1C1.8,32.3,1.9,31.5,2.1,30.8z"/>
			</g>
		</g>
		<g>
			<g>
				<path fill="#FFFFFF" d="M17.6,32c0.2,0.7,0.4,1.4,0.5,1.6c0.4-0.4,0.8-0.8,1.1-1.3l-0.1,0c0,0-0.1-0.6-0.3-1.4
					C18.5,31.2,18.1,31.6,17.6,32z"/>
			</g>
		</g>
		<g>
			<g>
				<path fill="#FFFFFF" d="M19,30.7c0.2,0.7,0.3,1.2,0.3,1.4c0.2-0.3,0.4-0.6,0.6-0.9c0-0.5-0.1-0.9-0.1-1.4
					C19.6,30,19.4,30.3,19,30.7z"/>
			</g>
		</g>
		<g>
			<g>
				<path fill="#FFFFFF" d="M19.7,29.7c-0.1-0.6-0.2-1.1-0.4-1.7c-0.1,0.1-0.4,0.4-0.8,0.8c0.2,0.5,0.4,1.1,0.5,1.6
					C19.4,30,19.6,29.7,19.7,29.7L19.7,29.7z"/>
			</g>
		</g>
		<g>
			<g>
				<path fill="#FFFFFF" d="M-3.1,31.3c0.7,0.4,1.5,0.7,2.2,1c0-0.9,0.1-1.8,0.3-2.6l0.1,0c-0.7-0.4-1.5-0.8-2.1-1.3
					C-2.9,29.2-3,30-3.1,30.8C-3.1,31-3.1,31.2-3.1,31.3L-3.1,31.3z"/>
			</g>
		</g>
		<g>
			<g>
				<path fill="#FFFFFF" d="M5,33.6c0.8,0,1.6,0,2.3-0.1c-0.2-1-0.4-1.8-0.5-2.2l0.1,0c-0.5,0-1.1,0-1.6,0c-0.2,0-0.3,0-0.5,0
					C4.8,31.6,4.9,32.5,5,33.6z"/>
			</g>
		</g>
		<g>
			<g>
				<path fill="#FFFFFF" d="M18.4,28.6c0.5-0.4,0.8-0.7,0.8-0.8l0.1,0.1c-0.2-0.6-0.5-1.2-0.8-1.8c-0.3,0.3-0.6,0.6-0.9,0.9
					C17.8,27.4,18.1,28,18.4,28.6z"/>
			</g>
		</g>
		<g>
			<g>
				<path fill="#FFFFFF" d="M16.8,29.8c0.5-0.4,1-0.8,1.4-1.1c-0.2-0.7-0.5-1.2-0.8-1.6l0.1-0.1c-0.5,0.5-1,0.9-1.6,1.3
					C16.2,28.6,16.5,29.2,16.8,29.8z"/>
			</g>
		</g>
		<g>
			<g>
				<path fill="#FFFFFF" d="M7,31.3c0.1,0.4,0.3,1.2,0.5,2.2c0.9-0.1,1.8-0.3,2.6-0.5c-0.2-0.9-0.4-1.6-0.5-1.9l0.1,0
					C8.8,31.2,7.9,31.3,7,31.3z"/>
			</g>
		</g>
		<g>
			<g>
				<path fill="#FFFFFF" d="M14.7,31.1c0.7-0.4,1.3-0.8,1.9-1.2c-0.3-0.7-0.6-1.2-0.9-1.4l0.1-0.1c-0.7,0.5-1.3,0.9-2.1,1.2
					C14.1,30,14.4,30.5,14.7,31.1z"/>
			</g>
		</g>
		<g>
			<g>
				<path fill="#FFFFFF" d="M16.7,30.2c-0.6,0.4-1.2,0.8-1.9,1.2c0.3,0.6,0.6,1.2,0.8,1.8c0.7-0.4,1.2-0.9,1.7-1.3
					C17.2,31.3,17,30.7,16.7,30.2z"/>
			</g>
		</g>
		<g>
			<g>
				<path fill="#FFFFFF" d="M15.4,33.3c0,0.1,0.1,0.1,0.1,0.2c0.1,0,0.1-0.1,0.2-0.1c0-0.1-0.1-0.1-0.1-0.2
					C15.6,33.2,15.5,33.2,15.4,33.3z"/>
			</g>
		</g>
		<g>
			<g>
				<path fill="#FFFFFF" d="M17.4,31.9c0,0.1,0,0.1,0.1,0.2c0.1,0,0.1-0.1,0.2-0.1c0-0.1,0-0.1-0.1-0.2
					C17.5,31.8,17.4,31.9,17.4,31.9z"/>
			</g>
		</g>
		<g>
			<g>
				<path fill="#FFFFFF" d="M18.7,30.7c-0.1-0.5-0.3-1.1-0.5-1.7c-0.4,0.3-0.8,0.7-1.4,1c0.2,0.6,0.5,1.2,0.6,1.7
					C18,31.4,18.4,31,18.7,30.7z"/>
			</g>
		</g>
	</g>
	<g>
		<g>
			<path fill="#FFFFFF" d="M8.5,41.7c-3.3,0-6.4-1.7-8.3-4.5l0.1-0.1c1.8,2.8,4.9,4.4,8.2,4.4c2.3,0,4.6-0.8,6.4-2.4
				c1.8-1.5,2.9-3.6,3.3-5.9l0.1,0c-0.4,2.3-1.6,4.4-3.3,6C13.2,40.8,10.9,41.7,8.5,41.7z"/>
		</g>
	</g>
	<g>
		<g>
			<path fill="#FFFFFF" d="M-1,29.4l-0.1,0c1.1-4.5,5.1-7.6,9.7-7.6c3.7,0,7,2,8.8,5.3l-0.1,0.1c-1.7-3.2-5-5.2-8.7-5.2
				C4,22,0.1,25-1,29.4z"/>
		</g>
	</g>
	<g>
		<g>
			<path fill="#FFFFFF" d="M8.5,39.8c-1.7,0-3.2-0.5-4.6-1.4L4,38.2c1.3,0.9,2.9,1.4,4.5,1.4c2.8,0,5.4-1.5,6.8-3.9l0.1,0.1
				C14,38.3,11.4,39.8,8.5,39.8z"/>
		</g>
	</g>
	<g>
		<g>
			<path fill="#FFFFFF" d="M0.8,30.2l-0.1,0c0.8-3.7,4.1-6.4,7.9-6.4c3.1,0,6,1.8,7.3,4.7l-0.1,0.1c-1.3-2.8-4.1-4.6-7.2-4.6
				C4.8,23.9,1.6,26.5,0.8,30.2z"/>
		</g>
	</g>
	<g>
		<g>
			<path fill="#FFFFFF" d="M3,31.5H2.9c0-0.5,0-0.4,0.1-0.7C3.3,28,5.7,26,8.5,26c2.3,0,4.4,1.4,5.3,3.6l-0.1,0.1
				c-0.8-2.1-2.9-3.5-5.1-3.5c-2.7,0-5.1,1.9-5.5,4.6C3,31.1,3,30.9,3,31.5z"/>
		</g>
	</g>
	<g>
		<g>
			<path fill="#FFFFFF" d="M5.5,31.7H5.3c0-0.3,0-0.2,0-0.4c0.2-1.5,1.6-2.6,3.1-2.6c1.3,0,2.4,0.8,2.9,2l-0.1,0.1
				c-0.5-1.1-1.5-1.9-2.8-1.9c-1.5,0-2.7,1-3,2.5C5.5,31.5,5.5,31.5,5.5,31.7z"/>
		</g>
	</g>
	<g>
		<g>
			<rect x="8.1" y="19.9" fill="#FFFFFF" width="0.5" height="12.6"/>
		</g>
	</g>
	<g>
		<g>
			<rect x="8.1" y="37.4" fill="#FFFFFF" width="0.5" height="5.6"/>
		</g>
	</g>
</g>
<g>
	<g>
		<path fill="#FFFFFF" d="M106.3,24.8c-0.3,0-0.5,0-0.8,0c-2.5,0-4.9,0.9-6.7,2.6c-1.8,1.7-3,4-3.2,6.5c-0.2,2.6,0.6,5.2,2.3,7.2
			c1.7,2,4.1,3.3,6.8,3.5c0.3,0,0.5,0,0.8,0c2.5,0,4.9-0.9,6.7-2.6c1.8-1.7,3-4,3.2-6.5C115.8,30.1,111.7,25.3,106.3,24.8z
			 M105.5,44.1c-0.3,0-0.5,0-0.8,0c-2.5-0.2-4.8-1.4-6.4-3.3c-1.6-1.9-2.4-4.3-2.2-6.8c0.2-2.4,1.3-4.5,3-6.1c1.7-1.6,4-2.5,6.3-2.5
			c0.3,0,0.5,0,0.8,0c2.5,0.2,4.8,1.4,6.4,3.3c1.6,1.9,2.4,4.3,2.2,6.8c-0.2,2.4-1.3,4.5-3,6.1C110.1,43.2,107.8,44.1,105.5,44.1z"
			/>
	</g>
	<g>
		<g>
			<g>
				<path fill="#FFFFFF" d="M100.1,38.1c0.1,1,0.1,1.7,0.1,1.8l-0.1,0c0.8,0.2,1.7,0.4,2.6,0.5c0-0.1-0.1-0.9-0.2-1.9
					C101.8,38.4,101,38.2,100.1,38.1z"/>
			</g>
		</g>
		<g>
			<g>
				<path fill="#FFFFFF" d="M111.4,36c-0.2-0.5-0.4-1-0.7-1.5c-0.5,0.3-1,0.5-1.5,0.7c0,0-0.1,0-0.1,0.1c0.2,0.5,0.4,1.1,0.6,1.7
					c0.1,0,0.1-0.1,0.2-0.1C110.4,36.6,110.9,36.3,111.4,36z"/>
			</g>
		</g>
		<g>
			<g>
				<path fill="#FFFFFF" d="M102.6,38.2c-0.1-0.6-0.1-1.2-0.2-1.8c-0.7,0-1.5-0.1-2.3-0.3c0,0.6,0,1.2,0,1.8
					C101,38.1,101.8,38.2,102.6,38.2z"/>
			</g>
		</g>
		<g>
			<g>
				<path fill="#FFFFFF" d="M104.5,36.4c-0.6,0.1-1.3,0.1-1.9,0c0.1,0.6,0.1,1.2,0.2,1.8c0.7,0,1.5,0,2.1,0
					C104.8,37.6,104.7,37,104.5,36.4z"/>
			</g>
		</g>
		<g>
			<g>
				<path fill="#FFFFFF" d="M109.5,37c0,0.1,0,0.1,0.1,0.2c0.1,0,0.1-0.1,0.2-0.1c0-0.1,0-0.1-0.1-0.2C109.6,36.9,109.6,37,109.5,37
					z"/>
			</g>
		</g>
		<g>
			<g>
				<path fill="#FFFFFF" d="M107.4,37.8c0,0.1,0,0.1,0,0.2c0.1,0,0.1,0,0.2,0c0-0.1,0-0.1,0-0.2C107.5,37.7,107.4,37.8,107.4,37.8z"
					/>
			</g>
		</g>
		<g>
			<g>
				<path fill="#FFFFFF" d="M108.9,35.3c-0.6,0.2-1.2,0.4-1.8,0.6c0.2,0.6,0.3,1.2,0.5,1.8c0.7-0.2,1.4-0.5,2-0.7
					C109.3,36.4,109.1,35.8,108.9,35.3z"/>
			</g>
		</g>
		<g>
			<g>
				<path fill="#FFFFFF" d="M104.9,38.2c0,0.1,0,0.1,0,0.2c0.1,0,0.1,0,0.2,0c0-0.1,0-0.1,0-0.2C105,38.2,105,38.2,104.9,38.2z"/>
			</g>
		</g>
		<g>
			<g>
				<path fill="#FFFFFF" d="M106.9,36c-0.7,0.2-1.4,0.3-2.2,0.4c0.1,0.6,0.2,1.2,0.4,1.8c0.8-0.1,1.6-0.2,2.3-0.4
					C107.2,37.2,107.1,36.5,106.9,36z"/>
			</g>
		</g>
		<g>
			<g>
				<path fill="#FFFFFF" d="M102.6,38.2c0,0.1,0,0.1,0,0.2c0.1,0,0.1,0,0.2,0c0-0.1,0-0.1,0-0.2C102.7,38.2,102.7,38.2,102.6,38.2z"
					/>
			</g>
		</g>
		<g>
			<g>
				<path fill="#FFFFFF" d="M103,40.3L103,40.3c0.7,0.1,1.6,0.1,2.4,0c0-0.1-0.2-0.9-0.4-1.9c-0.7,0.1-1.4,0.1-2.2,0
					C102.9,39.5,103,40.3,103,40.3z"/>
			</g>
		</g>
		<g>
			<g>
				<path fill="#FFFFFF" d="M105.5,40.3L105.5,40.3c0.8-0.1,1.6-0.3,2.4-0.5l-0.1,0c0,0-0.2-0.8-0.4-1.8c-0.7,0.2-1.5,0.3-2.3,0.4
					C105.3,39.4,105.5,40.3,105.5,40.3z"/>
			</g>
		</g>
		<g>
			<g>
				<path fill="#FFFFFF" d="M108,39.7c0.8-0.3,1.5-0.6,2.2-1l-0.1,0c-0.1-0.4-0.3-1-0.6-1.6c-0.6,0.3-1.3,0.5-2,0.7
					C107.8,38.8,108,39.6,108,39.7z"/>
			</g>
		</g>
		<g>
			<g>
				<path fill="#FFFFFF" d="M112.1,37.6c0.5-0.4,1-0.8,1.4-1.3l-0.1,0c0,0-0.2-0.6-0.4-1.3c-0.4,0.3-0.9,0.7-1.4,1
					C111.9,36.8,112,37.4,112.1,37.6z"/>
			</g>
		</g>
		<g>
			<g>
				<path fill="#FFFFFF" d="M98.2,39L98.2,39c0.6,0.3,1.2,0.6,2,0.8c0-0.2-0.1-0.9-0.2-1.8c-0.6-0.2-1.3-0.4-2-0.6
					C98,38.3,98.2,39,98.2,39z"/>
			</g>
		</g>
		<g>
			<g>
				<path fill="#FFFFFF" d="M95.8,34.5c0,0.7,0,1.3,0.2,2l0-0.1c0.6,0.3,1.2,0.5,1.8,0.8c0-0.5-0.1-1.2-0.1-1.8
					C97.1,35.1,96.4,34.8,95.8,34.5z"/>
			</g>
		</g>
		<g>
			<g>
				<path fill="#FFFFFF" d="M99.9,36.1c-0.7-0.2-1.4-0.4-2.1-0.6c0,0.6,0,1.2,0.1,1.8c0.7,0.3,1.4,0.5,2,0.6
					C99.9,37.3,99.9,36.7,99.9,36.1z"/>
			</g>
		</g>
		<g>
			<g>
				<path fill="#FFFFFF" d="M97.8,37.1c0,0.1,0,0.1,0,0.2c0.1,0,0.1,0,0.2,0.1c0-0.1,0-0.1,0-0.2C97.9,37.2,97.8,37.2,97.8,37.1z"/>
			</g>
		</g>
		<g>
			<g>
				<path fill="#FFFFFF" d="M96.4,38c0.5,0.4,1.1,0.7,1.6,1c0-0.2-0.1-0.8-0.2-1.6c-0.6-0.2-1.2-0.5-1.8-0.8
					C96.1,37.1,96.2,37.5,96.4,38z"/>
			</g>
		</g>
		<g>
			<g>
				<path fill="#FFFFFF" d="M99.9,37.8c0,0.1,0,0.1,0,0.2c0.1,0,0.1,0,0.2,0c0-0.1,0-0.1,0-0.2C100.1,37.9,100,37.8,99.9,37.8z"/>
			</g>
		</g>
		<g>
			<g>
				<path fill="#FFFFFF" d="M114.1,33.8c0,0.1,0,0.1,0,0.2c0.1-0.1,0.1-0.1,0.2-0.2c0-0.1,0-0.1,0-0.2
					C114.2,33.7,114.2,33.8,114.1,33.8z"/>
			</g>
		</g>
		<g>
			<g>
				<path fill="#FFFFFF" d="M109.8,37.1c0.3,0.8,0.5,1.5,0.6,1.6c0.3-0.2,0.6-0.3,0.8-0.5c0.3-0.2,0.6-0.4,0.9-0.6l-0.1,0
					c0,0-0.2-0.7-0.5-1.5c-0.5,0.3-1,0.6-1.5,0.8C109.9,37,109.8,37.1,109.8,37.1z"/>
			</g>
		</g>
		<g>
			<g>
				<path fill="#FFFFFF" d="M106.6,34.1c0.1,0.3,0.3,0.9,0.5,1.6c0.6-0.2,1.2-0.4,1.8-0.6c-0.3-0.7-0.5-1.2-0.7-1.3l0.1-0.1
					c0.2,0.2,0.5,0.7,0.8,1.4c0,0,0.1,0,0.1-0.1c0.5-0.2,1-0.5,1.5-0.7c-0.3-0.5-0.5-0.9-0.8-1.2l0.1-0.1
					C108.8,33.5,107.7,33.9,106.6,34.1z"/>
			</g>
		</g>
		<g>
			<g>
				<path fill="#FFFFFF" d="M100.2,33.9l0.2,0.1c-0.2,0.5-0.2,1.2-0.2,1.9c0.8,0.2,1.6,0.3,2.3,0.3c-0.1-0.9-0.1-1.7-0.2-2l0.1,0
					c-1.5-0.2-3-0.6-4.3-1.2c-0.2,0.7-0.2,1.4-0.2,2.2c0.7,0.3,1.4,0.5,2.1,0.6C99.9,35.2,100,34.5,100.2,33.9z"/>
			</g>
		</g>
		<g>
			<g>
				<path fill="#FFFFFF" d="M113.2,34.9c0.2,0.6,0.3,1.1,0.4,1.3c0.3-0.3,0.6-0.7,0.9-1.1l-0.1,0c0,0-0.1-0.5-0.2-1.1
					C113.9,34.3,113.6,34.6,113.2,34.9z"/>
			</g>
		</g>
		<g>
			<g>
				<path fill="#FFFFFF" d="M114.3,33.9c0.1,0.5,0.2,1,0.2,1.2c0.2-0.2,0.4-0.5,0.5-0.7c0-0.4-0.1-0.8-0.1-1.1
					C114.9,33.3,114.7,33.5,114.3,33.9z"/>
			</g>
		</g>
		<g>
			<g>
				<path fill="#FFFFFF" d="M115,33c-0.1-0.5-0.2-1-0.4-1.4c-0.1,0.1-0.3,0.3-0.7,0.7c0.2,0.5,0.3,0.9,0.4,1.4
					C114.7,33.3,114.9,33,115,33L115,33z"/>
			</g>
		</g>
		<g>
			<g>
				<path fill="#FFFFFF" d="M95.8,34.3c0.6,0.3,1.2,0.6,1.8,0.9c0-0.8,0.1-1.5,0.2-2.2l0.1,0c-0.6-0.3-1.2-0.7-1.8-1
					c-0.2,0.6-0.3,1.3-0.4,2C95.8,34.1,95.8,34.2,95.8,34.3L95.8,34.3z"/>
			</g>
		</g>
		<g>
			<g>
				<path fill="#FFFFFF" d="M102.6,36.2c0.7,0,1.3,0,1.9,0c-0.2-0.8-0.3-1.5-0.4-1.8l0.1,0c-0.5,0-0.9,0-1.4,0c-0.1,0-0.3,0-0.4,0
					C102.4,34.6,102.5,35.3,102.6,36.2z"/>
			</g>
		</g>
		<g>
			<g>
				<path fill="#FFFFFF" d="M113.8,32.1c0.4-0.4,0.7-0.6,0.7-0.6l0.1,0.1c-0.2-0.5-0.4-1-0.7-1.5c-0.2,0.3-0.5,0.5-0.8,0.8
					C113.4,31.1,113.6,31.6,113.8,32.1z"/>
			</g>
		</g>
		<g>
			<g>
				<path fill="#FFFFFF" d="M112.5,33.1c0.5-0.3,0.8-0.6,1.1-0.9c-0.2-0.5-0.4-1-0.7-1.3l0.1-0.1c-0.4,0.4-0.9,0.7-1.3,1.1
					C112,32.1,112.3,32.6,112.5,33.1z"/>
			</g>
		</g>
		<g>
			<g>
				<path fill="#FFFFFF" d="M104.3,34.4c0.1,0.3,0.2,1,0.4,1.8c0.8-0.1,1.5-0.2,2.2-0.4c-0.2-0.7-0.4-1.3-0.5-1.6l0.1,0
					C105.8,34.3,105.1,34.3,104.3,34.4z"/>
			</g>
		</g>
		<g>
			<g>
				<path fill="#FFFFFF" d="M110.8,34.2c0.6-0.3,1.1-0.7,1.6-1c-0.2-0.6-0.5-1-0.8-1.2l0.1-0.1c-0.5,0.4-1.1,0.7-1.7,1
					C110.2,33.3,110.5,33.7,110.8,34.2z"/>
			</g>
		</g>
		<g>
			<g>
				<path fill="#FFFFFF" d="M112.4,33.4c-0.5,0.3-1,0.7-1.6,1c0.2,0.5,0.5,1,0.7,1.5c0.5-0.4,1-0.7,1.5-1.1
					C112.8,34.4,112.6,33.8,112.4,33.4z"/>
			</g>
		</g>
		<g>
			<g>
				<path fill="#FFFFFF" d="M111.4,36c0,0.1,0,0.1,0.1,0.2c0.1,0,0.1-0.1,0.2-0.1c0-0.1,0-0.1-0.1-0.2C111.5,35.9,111.4,36,111.4,36
					z"/>
			</g>
		</g>
		<g>
			<g>
				<path fill="#FFFFFF" d="M113,34.8c0,0.1,0,0.1,0.1,0.2c0.1,0,0.1-0.1,0.2-0.1c0-0.1,0-0.1-0.1-0.2C113.1,34.8,113,34.8,113,34.8
					z"/>
			</g>
		</g>
		<g>
			<g>
				<path fill="#FFFFFF" d="M114.1,33.8c-0.1-0.4-0.2-0.9-0.4-1.4c-0.3,0.3-0.7,0.6-1.1,0.9c0.2,0.5,0.4,1,0.5,1.4
					C113.5,34.4,113.9,34.1,114.1,33.8z"/>
			</g>
		</g>
	</g>
	<g>
		<g>
			<path fill="#FFFFFF" d="M105.6,43c-2.8,0-5.4-1.4-7-3.7l0.1-0.1c1.5,2.3,4.1,3.7,6.9,3.7c2,0,3.9-0.7,5.4-2
				c1.5-1.3,2.5-3,2.8-4.9l0.1,0c-0.3,1.9-1.3,3.7-2.8,5C109.5,42.3,107.6,43,105.6,43z"/>
		</g>
	</g>
	<g>
		<g>
			<path fill="#FFFFFF" d="M97.6,32.8l-0.1,0c0.9-3.7,4.2-6.4,8.1-6.4c3.1,0,5.9,1.7,7.4,4.4l-0.1,0.1c-1.4-2.7-4.2-4.4-7.3-4.4
				C101.8,26.5,98.5,29.1,97.6,32.8z"/>
		</g>
	</g>
	<g>
		<g>
			<path fill="#FFFFFF" d="M105.6,41.4c-1.4,0-2.7-0.4-3.9-1.2l0.1-0.1c1.1,0.8,2.4,1.2,3.8,1.2c2.3,0,4.5-1.2,5.7-3.2l0.1,0.1
				C110.2,40.2,107.9,41.4,105.6,41.4z"/>
		</g>
	</g>
	<g>
		<g>
			<path fill="#FFFFFF" d="M99.1,33.4l-0.1,0c0.6-3.1,3.4-5.4,6.6-5.4c2.6,0,5,1.5,6.1,3.9l-0.1,0c-1.1-2.4-3.4-3.9-6-3.9
				C102.5,28.1,99.7,30.3,99.1,33.4z"/>
		</g>
	</g>
	<g>
		<g>
			<path fill="#FFFFFF" d="M100.9,34.4h-0.1c0-0.5,0-0.3,0.1-0.5c0.3-2.3,2.4-4,4.7-4c2,0,3.7,1.2,4.4,3l-0.1,0.1
				c-0.7-1.8-2.4-2.9-4.3-2.9c-2.3,0-4.3,1.6-4.6,3.8C101,34.1,100.9,33.9,100.9,34.4z"/>
		</g>
	</g>
	<g>
		<g>
			<path fill="#FFFFFF" d="M103,34.7h-0.1c0-0.3,0-0.2,0-0.3c0.2-1.3,1.3-2.2,2.6-2.2c1.1,0,2,0.7,2.4,1.7l-0.1,0.1
				c-0.4-1-1.3-1.6-2.3-1.6c-1.2,0-2.3,0.9-2.5,2.1C103,34.5,103,34.4,103,34.7z"/>
		</g>
	</g>
	<g>
		<g>
			<rect x="105.2" y="24.7" fill="#FFFFFF" width="0.5" height="10.5"/>
		</g>
	</g>
	<g>
		<g>
			<rect x="105.2" y="39.5" fill="#FFFFFF" width="0.5" height="4.6"/>
		</g>
	</g>
</g>
<rect x="34.5" y="27.4" fill="#FFFFFF" width="52.2" height="3.8"/>
<g>
	<rect x="16.7" y="-25.5" fill="#FFFFFF" width="92" height="0.5"/>
</g>
<circle fill="#FFFFFF" cx="106.2" cy="-27.9" r="1"/>
<circle fill="#FFFFFF" cx="102.1" cy="-27.9" r="1"/>
<circle fill="#FFFFFF" cx="97.6" cy="-27.9" r="1"/>
<g>
	<rect x="-13.9" y="13.7" fill="#FFFFFF" width="41.7" height="0.5"/>
</g>
<circle fill="#FFFFFF" cx="25.2" cy="11.4" r="1"/>
<circle fill="#FFFFFF" cx="21.2" cy="11.4" r="1"/>
<circle fill="#FFFFFF" cx="16.6" cy="11.4" r="1"/>
<g>
	<rect x="91" y="17.7" fill="#FFFFFF" width="28" height="0.5"/>
</g>
<rect x="114.1" y="14.3" fill="#FFFFFF" width="2.4" height="2.4"/>
</svg>
