<?xml version="1.0" encoding="utf-8"?>
<!-- Generator: Adobe Illustrator 18.1.1, SVG Export Plug-In . SVG Version: 6.00 Build 0)  -->
<svg version="1.1" id="Layer_1" xmlns="http://www.w3.org/2000/svg" xmlns:xlink="http://www.w3.org/1999/xlink" x="0px" y="0px"
	 viewBox="32.8 -34 64.7 100" enable-background="new 32.8 -34 64.7 100" xml:space="preserve">
<g>
	
		<rect x="75.9" y="-2.6" transform="matrix(-0.2295 0.9733 -0.9733 -0.2295 101.5907 -85.1199)" fill="#FFFFFF" width="17.1" height="0.5"/>
	<path fill="#FFFFFF" d="M53.3,12.6c-1.2-0.3-2.3-0.6-3.5-1.1c0,1.1,0.1,2.1,0.2,3c1.2,0.4,2.3,0.8,3.4,1
		C53.3,14.7,53.3,13.6,53.3,12.6z"/>
	<path fill="#FFFFFF" d="M62.8-6.6c-4.2,0-8.3,1.6-11.5,4.5C48.2,0.8,46.2,4.7,45.9,9c-0.4,4.5,1,8.9,4,12.3c2.9,3.4,7,5.5,11.6,5.9
		c0.5,0,0.9,0.1,1.4,0.1c4.2,0,8.3-1.6,11.5-4.5c3.2-2.9,5.1-6.8,5.4-11.1c0.8-9.3-6.2-17.5-15.5-18.2C63.7-6.5,63.2-6.6,62.8-6.6z
		 M62.9-0.9c0,0,0.1,0,0.1,0c4.4,0,8.4,2.6,10.3,6.6l0.1,0c-0.9,0.6-1.9,1.2-2.8,1.7c-1.2-3.1-4.2-5.1-7.5-5.1c0,0-0.1,0-0.1,0V-0.9
		z M52-1.4c2.9-2.7,6.7-4.2,10.7-4.2v1.7C56.3-3.7,50.7,0.7,49.2,6.9c-0.6-0.3-1.2-0.7-1.8-1.1C48.3,3.1,49.8,0.6,52-1.4z M75,0
		c0.7,0.8,1.3,1.7,1.8,2.7c-0.3,0.3-0.6,0.6-0.9,0.9c0.5,0.5,0.9,1.3,1.2,2.2c0.3-0.3,0.6-0.5,0.8-0.7c0,0.1,0.1,0.2,0.1,0.3
		c-0.2,0.2-0.5,0.4-0.8,0.7c0.3,0.8,0.5,1.6,0.7,2.3c0.3-0.3,0.5-0.6,0.7-0.7c0,0.1,0,0.3,0.1,0.4c-0.2,0.2-0.4,0.4-0.7,0.7
		c0.2,0.9,0.4,1.7,0.4,2c0.1-0.2,0.3-0.4,0.4-0.6c0,0.5,0,0.9,0,1.4c-0.3,4-2.2,7.7-5.1,10.4c-2.9,2.7-6.7,4.2-10.7,4.2v-1.8
		c0,0,0.1,0,0.1,0c3.4,0,6.7-1.2,9.3-3.4c2.5-2.2,4.2-5.2,4.8-8.5l0-0.2c0.5-0.5,1-1.3,1-1.3c0,0-0.1-0.8-0.4-1.9
		c-0.5,0.4-1,1-1.7,1.5c0.3,1.1,0.6,1.9,0.7,2.2c0.1-0.1,0.1-0.1,0.2-0.2c-0.5,3.2-2.2,6.1-4.7,8.2c-2.5,2.2-5.8,3.4-9.1,3.4
		c0,0-0.1,0-0.1,0v-2.5c0,0,0.1,0,0.1,0c4,0,7.8-2.1,9.9-5.6L73,16c0.4-0.3,0.9-0.7,0.9-0.7c0,0-0.3-1.1-0.9-2.5
		c-0.8,0.5-1.6,1-2.5,1.4c-0.1,0-0.2,0.1-0.3,0.1c0.5,1.4,0.9,2.6,1,2.8c0.5-0.3,1-0.5,1.4-0.8c0,0,0,0,0.1,0
		c-2.1,3.3-5.7,5.3-9.6,5.3c0,0-0.1,0-0.1,0v-1.8c1.4-0.2,4-0.8,4-0.8c0,0-0.3-1.4-0.8-3.1c-1.2,0.3-2.5,0.6-3.9,0.7
		c0.2,0.9,0.3,1.7,0.5,2.3l0,0.9v1.7c-2.2-0.1-4.2-0.7-6-1.9c0.5,0.1,1,0.2,1.5,0.2c0-0.2-0.1-1.6-0.3-3.2c-1.3-0.1-2.7-0.3-4.2-0.6
		c0.1,1.7,0.3,3,0.3,3c0,0,1.3,0.4,2.2,0.6l0.2,0.2c1.8,1.3,4,2,6.3,2.1v2.5c-4.5-0.1-8.7-2.4-11.3-6.1c0.7,0.3,1.5,0.6,2.3,0.8
		c0-0.3-0.2-1.5-0.3-3c-1.1-0.3-2.2-0.6-3.4-1c0.2,1.5,0.3,2.6,0.3,2.7c0,0,0.3,0.2,0.7,0.4l0.1,0.2c2.6,3.9,6.9,6.2,11.5,6.3v1.8
		c-0.4,0-0.8,0-1.2,0c-4.3-0.3-8.1-2.3-10.9-5.6c-1.1-1.3-2-2.8-2.6-4.4c0.7,0.4,1.3,0.8,2.1,1.2c-0.1-0.3-0.2-1.4-0.3-2.7
		c-0.8-0.3-1.7-0.7-2.5-1.1c0-0.1-0.1-0.2-0.1-0.4c0.9,0.4,1.7,0.8,2.6,1.1c-0.1-0.9-0.1-2-0.1-3c-0.9-0.3-1.8-0.8-2.7-1.2
		c0-0.1,0-0.2,0-0.3c0.9,0.5,1.8,0.9,2.7,1.2c0-1.3,0.1-2.6,0.4-3.7l0.2,0c-0.2-0.1-0.5-0.2-0.7-0.4l0,0c1.5-6.2,6.9-10.5,13.3-10.7
		v2.5C57.4-1,52.8,2.8,51.8,8L52,8c1-5.1,5.5-8.8,10.7-9v3.1c-3.9,0.2-7.1,3-7.7,6.9c0,0,0,0,0,0c-1.7-0.4-3.3-0.9-4.8-1.7
		c-0.3,1.1-0.4,2.4-0.4,3.8c1.2,0.5,2.4,0.8,3.5,1.1c0-1.2,0.2-2.4,0.4-3.3l0.3,0.1c-0.3,0.9-0.4,2-0.4,3.3c1.4,0.3,2.7,0.5,3.9,0.5
		c-0.1-1.5-0.3-2.9-0.3-3.3l0.2,0c-0.8-0.1-1.5-0.2-2.3-0.4c0,0,0,0,0,0c0.5-3.7,3.7-6.5,7.5-6.7V6c-2.1,0.1-3.8,1.6-4.2,3.6
		c-0.1,0-0.1,0-0.2,0c-0.2,0-0.5,0-0.7-0.1c0,0.5,0.1,1.8,0.3,3.3c1.1,0,2.2,0,3.3-0.1c-0.3-1.4-0.5-2.6-0.6-3.1l0.2,0
		c-0.7,0-1.3,0-2-0.1c0.4-1.9,2-3.4,4-3.4v3.4c-0.6,0.1-1.2,0.1-1.8,0.1c0.1,0.5,0.4,1.7,0.6,3.1c1.3-0.1,2.6-0.4,3.7-0.7
		c-0.3-1.2-0.6-2.3-0.8-2.8l0.2-0.1c-0.6,0.1-1.1,0.2-1.7,0.3V6.2c1.7,0,3.2,1,3.9,2.6c-0.7,0.2-1.4,0.4-2.1,0.5
		c0.2,0.5,0.5,1.6,0.8,2.8c1.1-0.3,2.1-0.6,3-1c-0.5-1.1-0.9-2-1.2-2.2l0.2-0.2c0.4,0.3,0.8,1.2,1.3,2.4c0.1,0,0.1-0.1,0.2-0.1
		c0.9-0.4,1.8-0.8,2.6-1.2c-0.4-0.9-0.9-1.6-1.4-2.1l0.1-0.1c-1.1,0.5-2.2,0.9-3.3,1.3C66.3,7.1,64.7,6,62.9,6V2.4c0,0,0.1,0,0.1,0
		c3.3,0,6.1,1.9,7.3,4.9l0.2-0.1c0,0-0.1,0-0.1,0c0.5,0.5,1,1.3,1.4,2.1c1-0.6,1.9-1.1,2.7-1.7c-0.4-0.9-0.9-1.7-1.3-2l0.1-0.1
		l0.1,0c-1.9-4.1-6-6.7-10.5-6.7c0,0-0.1,0-0.1,0v-2.5c0,0,0.1,0,0.1,0c5.2,0,9.9,2.8,12.4,7.4l0.2-0.1C73.1-1,68.3-3.9,63-3.9
		c0,0-0.1,0-0.1,0v-1.7c0.4,0,0.8,0,1.2,0C68.3-5.2,72.2-3.2,75,0z"/>
	
		<rect x="79.9" y="-17.1" transform="matrix(0.1725 -0.985 0.985 0.1725 82.5448 65.3266)" fill="#FFFFFF" width="0.6" height="1.2"/>
	<path fill="#FFFFFF" d="M88.5-14.4c0.3-1.8-0.9-3.5-2.7-3.8c-0.2,0-0.4-0.1-0.6-0.1c-1.6,0-3,1.2-3.3,2.7c-0.3,1.8,0.9,3.5,2.7,3.8
		c0.2,0,0.4,0,0.6,0C86.8-11.7,88.2-12.8,88.5-14.4z M85.2-12.2c-0.2,0-0.3,0-0.5,0c-0.7-0.1-1.4-0.5-1.8-1.1
		c-0.4-0.6-0.6-1.4-0.5-2.1c0.2-1.3,1.4-2.3,2.8-2.3c0.2,0,0.3,0,0.5,0c1.5,0.3,2.5,1.7,2.3,3.2C87.7-13.2,86.6-12.2,85.2-12.2z"/>
	
		<rect x="77.1" y="-9.5" transform="matrix(-0.7586 0.6516 -0.6516 -0.7586 135.1173 -68.5854)" fill="#FFFFFF" width="6.3" height="0.5"/>
	
		<rect x="82.6" y="-9.5" transform="matrix(0.3774 -0.926 0.926 0.3774 60.8406 71.9736)" fill="#FFFFFF" width="2.7" height="0.5"/>
	<rect x="79.2" y="-13" transform="matrix(0.929 -0.3701 0.3701 0.929 10.3834 28.719)" fill="#FFFFFF" width="1.6" height="0.5"/>
	<path fill="#FFFFFF" d="M83.7-29.4H33.2v0h-0.1v78.6h21.5v-1H34.2v-76.6h3.1v0h45.8l0,7.3l8.2,0.1l-0.1,66.4v2.9H70.1v1h22.1v0h0.1
		v-70.8L83.7-29.4L83.7-29.4z M84.1-27.8l6.5,5.8l-6.5-0.1V-27.8z"/>
	
		<rect x="68" y="-13.7" transform="matrix(-0.9722 0.2342 -0.2342 -0.9722 144.0868 -43.9691)" fill="#FFFFFF" width="13.4" height="0.5"/>
	<polygon fill="#FFFFFF" points="36.3,-33.7 36.3,-30.9 85.1,-30.9 93.8,-23.2 93.8,47.1 97.5,47.1 97.5,-33.7 	"/>
	<path fill="#FFFFFF" d="M73.5,5.5c0.5,0.3,0.9,1.1,1.3,2.1c0.8-0.6,1.4-1.1,2-1.5c-0.3-0.9-0.7-1.8-1.2-2.2l0.1-0.1
		C75.1,4.4,74.3,5,73.5,5.5z"/>
	<path fill="#FFFFFF" d="M69.2,11.1c-0.1,0-0.1,0.1-0.2,0.1c0.4,0.9,0.8,1.9,1.1,2.8c0.1,0,0.2-0.1,0.3-0.1c0.9-0.4,1.8-0.9,2.6-1.4
		c-0.3-0.8-0.7-1.8-1.1-2.6C71,10.3,70.1,10.7,69.2,11.1z"/>
	<path fill="#FFFFFF" d="M66.4,15.7c0.4,1.6,0.7,2.9,0.8,3.1c1.3-0.4,3.7-1.6,3.7-1.6c-0.2-0.7-0.6-1.7-1-2.8
		C68.8,14.9,67.7,15.4,66.4,15.7z"/>
	<path fill="#FFFFFF" d="M75.9,10.3c0.7-0.6,1.3-1.1,1.7-1.6c-0.2-0.8-0.4-1.6-0.7-2.4c-0.5,0.4-1.2,0.9-1.9,1.5
		C75.3,8.6,75.6,9.5,75.9,10.3z"/>
	<path fill="#FFFFFF" d="M73.3,12.6c0.5,1.3,0.8,2.3,0.9,2.5c0.8-0.7,2.3-2.1,2.3-2.1c0,0-0.3-1-0.6-2.2C75,11.4,74.2,12,73.3,12.6z
		"/>
	<path fill="#FFFFFF" d="M74.7,8C73.9,8.6,73,9.2,72,9.7c0.4,0.8,0.8,1.8,1.1,2.6c0.9-0.6,1.8-1.2,2.5-1.8C75.4,9.7,75.1,8.8,74.7,8
		z"/>
	<path fill="#FFFFFF" d="M61.9,16.3c-0.2-1-0.4-2.1-0.6-3.1c-1.1,0.1-2.2,0.1-3.3,0.1c0.1,1,0.2,2.1,0.3,3.1
		C59.5,16.4,60.7,16.4,61.9,16.3z"/>
	<path fill="#FFFFFF" d="M68.7,11.3c-0.9,0.4-2,0.7-3.1,1c0.3,1,0.5,2.1,0.8,3.1c1.3-0.4,2.4-0.8,3.4-1.2
		C69.4,13.2,69,12.2,68.7,11.3z"/>
	<path fill="#FFFFFF" d="M53.7,12.7c0,1,0,2.1,0.1,3c1.5,0.3,2.9,0.5,4.2,0.6c-0.1-1-0.2-2.1-0.3-3.1C56.3,13.1,55,13,53.7,12.7z"/>
	<path fill="#FFFFFF" d="M58.2,16.6c0.2,1.8,0.3,3.2,0.3,3.2l-0.2,0c1.4,0.1,2.8,0.1,4.2,0c0-0.1-0.3-1.5-0.6-3.2
		C60.8,16.7,59.5,16.7,58.2,16.6z"/>
	<path fill="#FFFFFF" d="M61.6,13.1c0.2,1,0.4,2.1,0.6,3.1c1.4-0.1,2.7-0.4,3.9-0.7c-0.2-1-0.5-2.1-0.8-3.1
		C64.1,12.7,62.9,13,61.6,13.1z"/>
	<path fill="#FFFFFF" d="M73.8,51.6h-5.2V30.7l-1.3,0.3c-3.3,0.9-6.7,0.9-10,0l-1.3-0.3v20.9H51c-1.1,0-2,0.6-2.3,1.6
		c-0.3,0.9-0.1,1.8,0.7,2.5l11.4,9.7c0.5,0.4,1,0.6,1.7,0.6c0.6,0,1.2-0.2,1.7-0.6l11.4-9.7c0.7-0.6,1-1.6,0.7-2.5
		C75.8,52.2,74.9,51.6,73.8,51.6z M74.2,54.2l-11.4,9.7c-0.2,0.2-0.6,0.2-0.8,0l-11.4-9.7c-0.1-0.1-0.1-0.2-0.1-0.3
		c0-0.1,0.2-0.3,0.5-0.3h7.2V33.3c2.8,0.6,5.7,0.6,8.5,0v20.3h7.2c0.3,0,0.4,0.1,0.5,0.3C74.3,53.9,74.3,54,74.2,54.2z"/>
</g>
</svg>
